<?xml version="1.0" encoding="utf-8"?>
<!-- Generator: Adobe Illustrator 26.0.3, SVG Export Plug-In . SVG Version: 6.00 Build 0)  -->
<svg version="1.1" id="Ebene_1" xmlns="http://www.w3.org/2000/svg" xmlns:xlink="http://www.w3.org/1999/xlink" x="0px" y="0px"
	 viewBox="0 0 360 65.6" style="enable-background:new 0 0 360 65.6;" xml:space="preserve">
<style type="text/css">
	.st0{fill:#7C7B7B;}
	.st1{fill:#7294FF;}
	.st2{fill:#FBBA21;}
	.st3{fill:#FFDB00;}
	.st4{fill:#E5007A;}
	.st5{fill:#FFE900;}
	.st6{fill:#5863AB;}
	.st7{fill:#55B57A;}
	.st8{fill:#2EA836;}
	.st9{fill:#4655A1;}
	.st10{fill:#80CBD8;}
	.st11{fill:#52BBB4;}
	.st12{fill:#E50051;}
	.st13{fill:#91C579;}
	.st14{fill:#00AEEA;}
	.st15{fill:#814A84;}
	.st16{fill:#E93E8F;}
	.st17{fill:#00AEC1;}
	.st18{fill:#878AC3;}
	.st19{fill:#E791BD;}
	.st20{fill:#7C7C7B;}
</style>
<path class="st0" d="M81.1,16.8h3.5l9.9,26l9.9-26h3.6L96.2,47.6h-3.3L81.1,16.8z"/>
<path class="st0" d="M109.8,40.5c0-1,0.2-2,0.6-2.8s0.9-1.5,1.4-2c0.6-0.5,1.3-0.9,2.1-1.3c0.9-0.4,1.6-0.6,2.3-0.8
	c0.7-0.2,1.4-0.3,2.4-0.4c0.9-0.1,1.6-0.1,1.9-0.2c0.4,0,0.8,0,1.4,0l3.7,0.2c0-2.1-0.6-3.6-1.7-4.5s-2.8-1.3-5-1.3
	c-2.5,0-4.7,0.4-6.7,1.1v-3.2c2.3-0.8,4.6-1.2,6.9-1.2c3.2,0,5.7,0.8,7.4,2.4c1.7,1.6,2.5,4,2.5,7.2v6.9c0,1.5-0.3,2.7-1,3.8
	c-0.7,1-1.6,1.8-2.6,2.3c-1.1,0.5-2.1,0.8-3,1s-1.9,0.3-2.8,0.3c-0.7,0-1.4,0-2.2-0.1c-0.7-0.1-1.6-0.3-2.5-0.6s-1.8-0.7-2.4-1.2
	c-0.7-0.5-1.3-1.2-1.8-2.2C110.1,42.9,109.8,41.8,109.8,40.5z M113.2,40.5c0,2.9,2.1,4.3,6.3,4.3c0,0,0,0,0.1,0
	c4.1,0,6.1-1.4,6.1-4.2v-4.4c-1-0.2-2.4-0.3-4.1-0.3C115.9,36,113.2,37.5,113.2,40.5z"/>
<path class="st0" d="M135.5,47.6V15.8h3.3v31.8H135.5z"/>
<path class="st0" d="M146.1,20.5v-3.7h3.7v3.7H146.1z M146.3,47.6h3.3v-23h-3.3V47.6z"/>
<path class="st0" d="M155.3,35.8c0-2.3,0.3-4.2,0.9-5.8c0.6-1.6,1.5-2.8,2.6-3.6c1.1-0.8,2.2-1.4,3.3-1.7c1.1-0.3,2.4-0.5,3.7-0.5
	c2,0,3.9,0.3,5.7,0.9v-9.3h3.3v24.9c0,0.6-0.1,1.2-0.3,1.9c-0.2,0.6-0.6,1.4-1.1,2.3c-0.6,0.9-1.5,1.6-2.9,2.2
	c-1.4,0.6-3.1,0.8-5.1,0.8c-0.9,0-1.7-0.1-2.5-0.2c-0.8-0.2-1.7-0.5-2.7-1s-1.8-1.2-2.5-2.1c-0.7-0.8-1.3-2-1.8-3.5
	C155.6,39.6,155.3,37.8,155.3,35.8z M158.7,35.8c0,1.9,0.2,3.6,0.6,4.9c0.4,1.3,1,2.2,1.7,2.8s1.4,1,2.1,1.1
	c0.7,0.2,1.4,0.3,2.3,0.3c4.1,0,6.1-1.4,6.1-4.1V28.4c-1.9-0.8-3.8-1.1-5.7-1.1c-2.5,0-4.3,0.7-5.5,2
	C159.2,30.6,158.7,32.8,158.7,35.8z"/>
<path class="st0" d="M181.7,20.5v-3.7h3.7v3.7H181.7z M181.9,47.6h3.3v-23h-3.3V47.6z"/>
<path class="st0" d="M190.2,27.6v-3h4v-6.5h3.3v6.5h5.9v3h-5.9v14c0,1.2,0.2,2,0.7,2.5s1.3,0.7,2.6,0.7c0.9,0,1.8-0.2,2.6-0.5v3.1
	c-1,0.4-2,0.5-2.9,0.5h-0.1c-0.6,0-1.2-0.1-1.8-0.2c-0.6-0.1-1.2-0.4-2-0.8c-0.7-0.4-1.3-1.1-1.8-2s-0.7-2.1-0.7-3.5V27.6H190.2z"/>
<path class="st0" d="M207,24.6h3.6l6.6,18.2l6.6-18.2h3.6L218,49.9c-1.6,4.4-4.1,6.6-7.3,6.6c-0.7,0-1.5-0.1-2.2-0.4v-3
	c0.6,0.3,1.3,0.4,2,0.4c0.6,0,1.2-0.2,1.7-0.6c0.6-0.4,1-0.9,1.4-1.5s0.7-1.2,1-1.8s0.5-1.1,0.6-1.6l0.2-0.6L207,24.6z"/>
<path class="st1" d="M232.7,47.6V16.8h3.3v27.6h15.7v3.2C251.7,47.6,232.7,47.6,232.7,47.6z"/>
<path class="st1" d="M255.4,40.5c0-1,0.2-2,0.6-2.8c0.4-0.8,0.9-1.5,1.4-2c0.6-0.5,1.3-0.9,2.1-1.3c0.9-0.4,1.6-0.6,2.3-0.8
	c0.7-0.2,1.4-0.3,2.4-0.4c0.9-0.1,1.6-0.1,1.9-0.2c0.4,0,0.8,0,1.4,0l3.7,0.2c0-2.1-0.6-3.6-1.7-4.5s-2.8-1.3-5-1.3
	c-2.5,0-4.7,0.4-6.7,1.1v-3.2c2.3-0.8,4.6-1.2,6.9-1.2c3.2,0,5.7,0.8,7.4,2.4c1.7,1.6,2.5,4,2.5,7.2v6.9c0,1.5-0.3,2.7-1,3.8
	c-0.7,1-1.6,1.8-2.6,2.3c-1.1,0.5-2.1,0.8-3,1s-1.9,0.3-2.8,0.3c-0.7,0-1.4,0-2.2-0.1c-0.7-0.1-1.6-0.3-2.5-0.6s-1.8-0.7-2.4-1.2
	c-0.7-0.5-1.3-1.2-1.8-2.2C255.6,42.9,255.4,41.8,255.4,40.5z M258.7,40.5c0,2.9,2.1,4.3,6.3,4.3c0,0,0,0,0.1,0
	c4.1,0,6.1-1.4,6.1-4.2v-4.4c-1-0.2-2.4-0.3-4.1-0.3C261.5,36,258.7,37.5,258.7,40.5z"/>
<path class="st1" d="M280.4,40.7V15.8h3.3v9.3c1.8-0.6,3.7-0.9,5.7-0.9c1.1,0,2,0.1,3,0.3c0.9,0.2,1.9,0.5,2.8,1.1
	c1,0.5,1.8,1.2,2.5,2s1.3,2,1.7,3.4c0.4,1.4,0.6,3.1,0.6,4.9c0,2-0.2,3.8-0.7,5.3s-1.1,2.7-1.7,3.5c-0.7,0.8-1.5,1.5-2.5,2
	s-1.9,0.9-2.7,1c-0.8,0.1-1.7,0.2-2.5,0.2c-1.7,0-3.1-0.2-4.4-0.6c-1.2-0.4-2.2-0.9-2.8-1.4c-0.6-0.5-1.1-1.2-1.5-1.9
	c-0.4-0.8-0.6-1.4-0.7-1.9C280.4,41.6,280.4,41.2,280.4,40.7z M283.7,40.9c0,2.7,2,4,6.1,4c0.9,0,1.6-0.1,2.3-0.3
	c0.7-0.2,1.4-0.6,2.1-1.1c0.7-0.6,1.3-1.5,1.7-2.8c0.4-1.3,0.6-2.9,0.6-4.9c0-3-0.6-5.1-1.7-6.5c-1.1-1.3-3-2-5.5-2
	c-1.9,0-3.8,0.4-5.7,1.1v12.5H283.7z"/>
<path class="st1" d="M305.1,30.8c0-1.8,0.7-3.4,2-4.7c1.3-1.3,3.4-1.9,6.2-1.9c2,0,3.9,0.5,5.9,1.4v3.3c-1.8-1.1-3.6-1.6-5.5-1.6
	c-3.5,0-5.2,1.2-5.2,3.5c0,0.8,0.4,1.4,1.3,1.9c0.8,0.5,1.9,0.9,3.1,1.2s2.4,0.7,3.7,1.2c1.2,0.5,2.2,1.2,3.1,2.3
	c0.8,1.1,1.3,2.5,1.3,4.1c0,2-0.7,3.6-2.2,4.7c-1.5,1.1-3.6,1.7-6.2,1.7s-4.9-0.6-7-1.7v-3.5c2.2,1.4,4.5,2,6.8,2
	c3.5,0,5.3-1.1,5.3-3.2c0-1.1-0.4-2-1.3-2.7c-0.8-0.6-1.9-1.1-3.1-1.5c-1.2-0.3-2.4-0.7-3.7-1.1c-1.2-0.4-2.2-1-3.1-1.9
	C305.5,33.5,305.1,32.3,305.1,30.8z"/>
<g>
	<path class="st2" d="M11.8,35c-1.2,0-2.1,0.9-2.1,2.1v2.4c0,1.1,0.9,2.1,2.1,2.1h2.5c1.2,0,2.1-0.9,2.1-2.1V37
		c0-1.1-0.9-2.1-2.1-2.1L11.8,35L11.8,35z"/>
	<path class="st3" d="M59.7,23.2c-1.2,0-2.1,0.9-2.1,2.1v2.4c0,1.1,0.9,2.1,2.1,2.1h2.5c1.2,0,2.1-0.9,2.1-2.1v-2.4
		c0-1.1-0.9-2.1-2.1-2.1H59.7L59.7,23.2z"/>
	<path class="st4" d="M21.3,11.4c-1.2,0-2.1,0.9-2.1,2.1v2.4c0,1.1,0.9,2.1,2.1,2.1h2.5c1.2,0,2.1-0.9,2.1-2.1v-2.4
		c0-1.1-0.9-2.1-2.1-2.1H21.3L21.3,11.4z"/>
	<path class="st5" d="M31,23.2c-1.2,0-2.1,0.9-2.1,2.1v2.4c0,1.1,0.9,2.1,2.1,2.1h2.4c1.2,0,2.1-0.9,2.1-2.1v-2.4
		c0-1.1-0.9-2.1-2.1-2.1H31L31,23.2z"/>
	<path class="st6" d="M21.3,35c-1.2,0-2.1,0.9-2.1,2.1v2.4c0,1.1,0.9,2.1,2.1,2.1h2.5c1.2,0,2.1-0.9,2.1-2.1V37
		c0-1.1-0.9-2.1-2.1-2.1L21.3,35L21.3,35z"/>
	<path class="st7" d="M11.8,23.2c-1.2,0-2.1,0.9-2.1,2.1v2.4c0,1.1,0.9,2.1,2.1,2.1h2.5c1.2,0,2.1-0.9,2.1-2.1v-2.4
		c0-1.1-0.9-2.1-2.1-2.1H11.8L11.8,23.2z"/>
	<path class="st8" d="M50.2,11.4c-1.2,0-2.1,0.9-2.1,2.1v2.4c0,1.1,0.9,2.1,2.1,2.1h2.5c1.2,0,2.1-0.9,2.1-2.1v-2.4
		c0-1.1-0.9-2.1-2.1-2.1H50.2L50.2,11.4z"/>
	<path class="st9" d="M21.3,0.8c-1.2,0-2.1,0.9-2.1,2.1v2.4c0,1.1,0.9,2.1,2.1,2.1h2.5c1.2,0,2.1-0.9,2.1-2.1V2.8
		c0-1.1-0.9-2.1-2.1-2.1L21.3,0.8L21.3,0.8z"/>
	<path class="st10" d="M50.2,45.6c-1.2,0-2.1,0.9-2.1,2.1v2.4c0,1.1,0.9,2.1,2.1,2.1h2.4c1.2,0,2.1-0.9,2.1-2.1v-2.4
		c0-1.1-0.9-2.1-2.1-2.1H50.2L50.2,45.6z"/>
	<path class="st11" d="M2.4,23.2c-1.2,0-2.1,0.9-2.1,2.1v2.4c0,1.1,0.9,2.1,2.1,2.1h2.5c1.2,0,2.1-0.9,2.1-2.1v-2.4
		c0-1.1-0.9-2.1-2.1-2.1H2.4L2.4,23.2z"/>
	<path class="st12" d="M59.7,35c-1.2,0-2.1,0.9-2.1,2.1v2.4c0,1.1,0.9,2.1,2.1,2.1h2.5c1.2,0,2.1-0.9,2.1-2.1V37
		c0-1.1-0.9-2.1-2.1-2.1L59.7,35L59.7,35z"/>
	<path class="st13" d="M40.7,11.4c-1.2,0-2.1,0.9-2.1,2.1v2.4c0,1.1,0.9,2.1,2.1,2.1h2.4c1.2,0,2.1-0.9,2.1-2.1v-2.4
		c0-1.1-0.9-2.1-2.1-2.1H40.7L40.7,11.4z"/>
	<path class="st14" d="M31,11.4c-1.2,0-2.1,0.9-2.1,2.1v2.4c0,1.1,0.9,2.1,2.1,2.1h2.4c1.2,0,2.1-0.9,2.1-2.1v-2.4
		c0-1.1-0.9-2.1-2.1-2.1H31L31,11.4z"/>
	<path class="st15" d="M40.7,0.8c-1.2,0-2.1,0.9-2.1,2.1v2.4c0,1.1,0.9,2.1,2.1,2.1h2.4c1.2,0,2.1-0.9,2.1-2.1V2.8
		c0-1.1-0.9-2.1-2.1-2.1L40.7,0.8L40.7,0.8z"/>
	<path class="st16" d="M40.5,35c-1.2,0-2.1,0.9-2.1,2.1v2.4c0,1.1,0.9,2.1,2.1,2.1H43c1.2,0,2.1-0.9,2.1-2.1V37
		c0-1.1-0.9-2.1-2.1-2.1L40.5,35L40.5,35z"/>
	<path class="st17" d="M50.2,23.2c-1.2,0-2.1,0.9-2.1,2.1v2.4c0,1.1,0.9,2.1,2.1,2.1h2.4c1.2,0,2.1-0.9,2.1-2.1v-2.4
		c0-1.1-0.9-2.1-2.1-2.1H50.2L50.2,23.2z"/>
	<path class="st18" d="M33.5,52.1c1.2,0,2.1-0.9,2.1-2.1v-2.4c0-1.1-0.9-2.1-2.1-2.1H31c-1.2,0-2.1,0.9-2.1,2.1V50
		c0,1.1,0.9,2.1,2.1,2.1H33.5L33.5,52.1z"/>
	<path class="st19" d="M14.2,52.1c1.2,0,2.1-0.9,2.1-2.1v-2.4c0-1.1-0.9-2.1-2.1-2.1h-2.5c-1.2,0-2.1,0.9-2.1,2.1V50
		c0,1.1,0.9,2.1,2.1,2.1H14.2L14.2,52.1z"/>
	<path class="st20" d="M54.1,33.2H49c-0.6,0-1,0.6-1,1.3v7.2c0,0.7,0.5,1.3,1,1.3h5.1c0.6,0,1-0.6,1-1.3v-7.2
		C55.2,33.8,54.7,33.2,54.1,33.2L54.1,33.2z M24.8,31.4c0.6,0,1-0.6,1-1.3v-7.2c0-0.7-0.5-1.3-1-1.3h-3.3c-2.6-0.1-4.6-2.3-4.6-4.9
		v-5.5c0-0.7-0.5-1.3-1-1.3h-5.1c-0.6,0-1.1,0.6-1.1,1.3v7.2c0,0.7,0.5,1.3,1.1,1.3h3l0,0c2.7,0,4.9,2.1,5,4.8V30
		c0,0.7,0.5,1.3,1,1.3h5V31.4z M44.3,21.5h-5.1c-0.6,0-1,0.6-1,1.3v5.6c0,2.7-2.2,4.7-4.9,4.8h-3c-0.6,0-1,0.6-1,1.3v7.2
		c0,0.7,0.5,1.3,1,1.3h5.1c0.6,0,1-0.6,1-1.3v-5.6c0.1-2.5,2.1-4.6,4.6-4.7h3.3c0.6,0,1-0.6,1-1.3v-7.2
		C45.4,22.1,44.9,21.5,44.3,21.5L44.3,21.5z M43.7,44h-5.1c-0.6,0-1,0.6-1,1.3V51c-0.1,2.5-2.1,4.6-4.7,4.7h-1.1
		c-2.7,0-4.9-2.1-5-4.8v-5.5c0-0.7-0.5-1.3-1-1.3h-5.1c-0.6,0-1,0.6-1,1.3v7.2c0,0.7,0.5,1.3,1,1.3H24c2.2,0.1,4,1.7,4.5,3.8v6.6
		c0,0.7,0.5,1.3,1,1.3h5.1c0.6,0,1-0.6,1-1.3v-5.6c0,0,0.2-0.6,0.3-1c0.5-2.1,2.4-3.7,4.8-3.7h3c0.6,0,1-0.6,1-1.3v-7.2
		C44.8,44.6,44.3,44,43.7,44L43.7,44z"/>
</g>
</svg>
