<?xml version="1.0" encoding="UTF-8" standalone="no"?>
<!-- Generator: Adobe Illustrator 26.2.1, SVG Export Plug-In . SVG Version: 6.00 Build 0)  -->

<svg
   version="1.1"
   id="Ebene_1"
   x="0px"
   y="0px"
   viewBox="0 0 700 200"
   xml:space="preserve"
   width="700"
   height="200"
   xmlns:xlink="http://www.w3.org/1999/xlink"
   xmlns="http://www.w3.org/2000/svg"
   xmlns:svg="http://www.w3.org/2000/svg"><defs
   id="defs153"><linearGradient
     id="linearGradient18404"><stop
       style="stop-color:#fbdea9;stop-opacity:1;"
       offset="0"
       id="stop23178" /><stop
       style="stop-color:#b57d12;stop-opacity:0.98819268"
       offset="0.6693145"
       id="stop18570" /><stop
       style="stop-color:#a36b01;stop-opacity:1"
       offset="1"
       id="stop18402" /></linearGradient><linearGradient
     id="Pfad_2323_00000117638392000652863260000003205296676774957490_"
     gradientUnits="userSpaceOnUse"
     x1="-137.8428"
     y1="811.83002"
     x2="-137.8428"
     y2="808.77612"
     gradientTransform="matrix(3.4979,1.9294,0.6179,-10.922,5.6054,9196.1191)">
				<stop
   offset="0"
   style="stop-color:#FFE4B2"
   id="stop16335" />
				<stop
   offset="0.823"
   style="stop-color:#AD7101"
   id="stop16337" />
				<stop
   offset="1"
   style="stop-color:#241C00"
   id="stop16339" />
			</linearGradient><linearGradient
     xlink:href="#Pfad_2323_00000117638392000652863260000003205296676774957490_"
     id="linearGradient16333"
     x1="277.82028"
     y1="116.38095"
     x2="663.95209"
     y2="116.38095"
     gradientUnits="userSpaceOnUse" /><linearGradient
     xlink:href="#linearGradient18404"
     id="linearGradient23112"
     gradientUnits="userSpaceOnUse"
     x1="277.78726"
     y1="115.56537"
     x2="663.77393"
     y2="115.56537"
     gradientTransform="translate(-6.2034132,-5.1382)" /></defs>
<style
   type="text/css"
   id="style2">
	.st0{clip-path:url(#SVGID_00000049941846930257934220000018420243084974394774_);}
	.st1{fill-rule:evenodd;clip-rule:evenodd;fill:url(#Pfad_2307_00000163770694348768295010000004849646099421593783_);}
	.st2{fill-rule:evenodd;clip-rule:evenodd;fill:url(#Pfad_2308_00000070824407546842121620000015576827952830124679_);}
	.st3{fill-rule:evenodd;clip-rule:evenodd;fill:url(#Pfad_2309_00000051348673875451602220000009611795152938431373_);}
	.st4{fill-rule:evenodd;clip-rule:evenodd;fill:url(#Pfad_2310_00000109713826106008154570000015697756723812503176_);}
	.st5{fill-rule:evenodd;clip-rule:evenodd;fill:url(#Pfad_2311_00000062157027916013611940000006377162523488610707_);}
	.st6{fill-rule:evenodd;clip-rule:evenodd;fill:url(#Pfad_2312_00000103225052295355316660000009400406999204710552_);}
	.st7{fill-rule:evenodd;clip-rule:evenodd;fill:url(#Pfad_2313_00000057870663039214789880000005353980990383691447_);}
	.st8{fill-rule:evenodd;clip-rule:evenodd;fill:url(#Pfad_2314_00000126313229396615487070000008415462651613726644_);}
	.st9{fill-rule:evenodd;clip-rule:evenodd;fill:url(#Pfad_2315_00000054959730252239789480000017169436718940548259_);}
	.st10{fill-rule:evenodd;clip-rule:evenodd;fill:url(#Pfad_2316_00000109732237383645085680000015393284041640384191_);}
	.st11{fill-rule:evenodd;clip-rule:evenodd;fill:url(#Pfad_2317_00000046312370241541574850000006338981156916792706_);}
	.st12{fill-rule:evenodd;clip-rule:evenodd;fill:url(#Pfad_2318_00000000903098372816135260000015449606161695345327_);}
	.st13{fill-rule:evenodd;clip-rule:evenodd;fill:url(#Pfad_2319_00000165215919385570676990000003565118860321195394_);}
	.st14{fill-rule:evenodd;clip-rule:evenodd;fill:url(#Pfad_2320_00000173851432900352454240000015003554721900824459_);}
	.st15{fill-rule:evenodd;clip-rule:evenodd;fill:url(#Pfad_2321_00000140705678134146916420000001666563210577948064_);}
	.st16{fill-rule:evenodd;clip-rule:evenodd;fill:url(#Pfad_2322_00000056414279022464449300000004157934569950787259_);}
	.st17{fill-rule:evenodd;clip-rule:evenodd;fill:url(#Pfad_2323_00000024712252202815116150000003726989801901641917_);}
</style>

<g
   id="g24705"
   transform="translate(21.125653,5.09075)"><g
     id="Gruppe_4218"
     transform="matrix(0.985,-0.174,0.174,0.985,-6.2034132,8.5828)">
	<g
   id="g147">
		<defs
   id="defs5">
			
				<rect
   id="SVGID_1_"
   x="-4.9000001"
   y="27.799999"
   transform="matrix(0.9848,-0.174,0.174,0.9848,-17.5567,21.8271)"
   width="241.39999"
   height="166.5" />
		</defs>
		<clipPath
   id="SVGID_00000051351591309651316640000007626877281409536914_">
			<use
   xlink:href="#SVGID_1_"
   style="overflow:visible"
   id="use7"
   x="0"
   y="0"
   width="100%"
   height="100%" />
		</clipPath>
		
			<g
   id="Gruppe_4147"
   clip-path="url(#SVGID_00000051351591309651316640000007626877281409536914_)">
			
				<linearGradient
   id="Pfad_2307_00000114039404643298544430000009019898074086543762_"
   gradientUnits="userSpaceOnUse"
   x1="-123.1158"
   y1="806.82788"
   x2="-123.1158"
   y2="803.77411"
   gradientTransform="matrix(3.34,1.6742,0.59,-9.4777,28.047,8013.3584)">
				<stop
   offset="0"
   style="stop-color:#FFE4B2"
   id="stop10" />
				<stop
   offset="0.823"
   style="stop-color:#AD7101"
   id="stop12" />
				<stop
   offset="1"
   style="stop-color:#241C00"
   id="stop14" />
			</linearGradient>
			
				<path
   id="Pfad_2307"
   style="clip-rule:evenodd;fill:url(#Pfad_2307_00000114039404643298544430000009019898074086543762_);fill-rule:evenodd"
   d="m 92,160.4 c -3.5,9.7 0.4,21.8 6,29.4 -9.4,-1.5 -14.5,-13.5 -6,-29.4" />
			
				<linearGradient
   id="Pfad_2308_00000116236759271107769010000008617964820323570304_"
   gradientUnits="userSpaceOnUse"
   x1="-128.1035"
   y1="807.5528"
   x2="-128.1035"
   y2="804.4989"
   gradientTransform="matrix(5.0994,1.8929,0.9008,-10.7158,28.6247,9053.5508)">
				<stop
   offset="0"
   style="stop-color:#FFE4B2"
   id="stop18" />
				<stop
   offset="0.823"
   style="stop-color:#AD7101"
   id="stop20" />
				<stop
   offset="1"
   style="stop-color:#241C00"
   id="stop22" />
			</linearGradient>
			
				<path
   id="Pfad_2308"
   style="clip-rule:evenodd;fill:url(#Pfad_2308_00000116236759271107769010000008617964820323570304_);fill-rule:evenodd"
   d="m 96.4,157.5 c -4,20.4 0.2,31.7 14.4,33.2 -10.9,-9.8 -14.3,-25.9 -14.4,-33.2" />
			
				<linearGradient
   id="Pfad_2309_00000008135930175010001900000000664264746850019501_"
   gradientUnits="userSpaceOnUse"
   x1="-132.534"
   y1="806.3092"
   x2="-132.534"
   y2="803.25537"
   gradientTransform="matrix(8.8908,1.8264,1.5706,-10.3393,26.7703,8737.3291)">
				<stop
   offset="0"
   style="stop-color:#FFE4B2"
   id="stop26" />
				<stop
   offset="0.823"
   style="stop-color:#AD7101"
   id="stop28" />
				<stop
   offset="1"
   style="stop-color:#241C00"
   id="stop30" />
			</linearGradient>
			
				<path
   id="Pfad_2309"
   style="clip-rule:evenodd;fill:url(#Pfad_2309_00000008135930175010001900000000664264746850019501_);fill-rule:evenodd"
   d="m 101.3,158.6 c -2.9,18.5 13.4,34.4 27.2,31.8 -16.3,-6.6 -22.4,-21.7 -27.2,-31.8" />
			
				<linearGradient
   id="Pfad_2310_00000053509734745780133580000010269684413006545043_"
   gradientUnits="userSpaceOnUse"
   x1="-131.6284"
   y1="800.0163"
   x2="-131.6284"
   y2="796.9624"
   gradientTransform="matrix(9.7909,1.1849,1.7296,-6.7078,28.0888,5684.9521)">
				<stop
   offset="0"
   style="stop-color:#FFE4B2"
   id="stop34" />
				<stop
   offset="0.823"
   style="stop-color:#AD7101"
   id="stop36" />
				<stop
   offset="1"
   style="stop-color:#241C00"
   id="stop38" />
			</linearGradient>
			
				<path
   id="Pfad_2310"
   style="clip-rule:evenodd;fill:url(#Pfad_2310_00000053509734745780133580000010269684413006545043_);fill-rule:evenodd"
   d="m 107.8,162.6 c 6.1,11.2 17.6,18.5 30.4,19.3 -12.8,4.5 -24.9,-1.2 -30.4,-19.3" />
			
				<linearGradient
   id="Pfad_2311_00000094614505154539691380000007992637153643683768_"
   gradientUnits="userSpaceOnUse"
   x1="-137.5793"
   y1="803.66522"
   x2="-137.5793"
   y2="800.61139"
   gradientTransform="matrix(10.1789,1.6424,1.7981,-9.2977,2.7438,7863.667)">
				<stop
   offset="0"
   style="stop-color:#FFE4B2"
   id="stop42" />
				<stop
   offset="0.823"
   style="stop-color:#AD7101"
   id="stop44" />
				<stop
   offset="1"
   style="stop-color:#241C00"
   id="stop46" />
			</linearGradient>
			
				<path
   id="Pfad_2311"
   style="clip-rule:evenodd;fill:url(#Pfad_2311_00000094614505154539691380000007992637153643683768_);fill-rule:evenodd"
   d="m 50.3,181.4 c -2.7,-1.5 -6.1,-1.2 -8.6,0.6 -1.8,1 -2.8,-0.6 -3.7,-0.6 -2.3,-0.1 -2.7,1.3 -3.1,3.7 -3.2,-3.4 -0.1,-5.2 2.6,-6.3 0.3,-0.1 0.8,-1 1.5,-1.4 0.8,-0.3 1.6,-0.4 2.4,-0.4 1.4,-0.5 -0.7,-2.1 -2.6,-2.7 -1.9,-0.6 -2.1,-1.8 -1.7,-3.3 -1.9,-0.8 -4.1,-0.2 -5.4,1.4 1,-3.6 3,-4.5 6.1,-2.5 1.3,-1.2 2.9,-0.2 4.7,2.3 0.7,1 2.8,0.3 1.5,-1.5 -0.5,-0.7 0.7,-1.1 0.7,-1.2 -0.4,-1.8 -2.2,-3 -4.1,-2.6 -0.2,0 -0.3,0.1 -0.4,0.1 3.1,-3.1 4.5,-1.7 6.4,1.7 1.4,-0.4 2.7,0.8 3.1,2.3 0.4,2.8 2.9,4.8 5.7,4.6 6.2,-0.4 9.1,2.9 7.5,10.4 -0.6,2.6 -1.1,2.9 -2.9,2.7 1.2,1.7 1.3,3.8 -2.8,5.4 1.5,-3 1.2,-5.2 -0.3,-5.2 -1,-0.3 -1.9,-0.6 -2.8,-3 -0.6,-1.9 -1.9,-3.6 -3.8,-4.5" />
			
				<linearGradient
   id="Pfad_2312_00000129207124920147346000000015198098637683448750_"
   gradientUnits="userSpaceOnUse"
   x1="-139.6178"
   y1="810.23242"
   x2="-139.6178"
   y2="807.17859"
   gradientTransform="matrix(36.248,3.0406,6.4032,-17.2124,-16.0913,14510.834)">
				<stop
   offset="0"
   style="stop-color:#FFE4B2"
   id="stop50" />
				<stop
   offset="0.823"
   style="stop-color:#AD7101"
   id="stop52" />
				<stop
   offset="1"
   style="stop-color:#241C00"
   id="stop54" />
			</linearGradient>
			
				<path
   id="Pfad_2312"
   style="clip-rule:evenodd;fill:url(#Pfad_2312_00000129207124920147346000000015198098637683448750_);fill-rule:evenodd"
   d="m 90.6,142 c 5,-3.1 11.9,-2.8 20.2,7.3 13.6,16.7 35.4,24.5 56.5,20.3 -7.9,6.9 -31,10.9 -45.9,1.3 -10.1,-6.5 -13.1,-14.2 -19.6,-17.1 -11.4,-5.1 -13.7,9.9 -17.5,16.2 -4.2,6.9 -7.8,9.9 -12.7,10.2 -1.9,0.3 -1.9,3.4 -1.5,7.4 0.4,3.3 0.2,5.1 -3,6 1.2,-1.3 1.5,-3.2 0.8,-4.9 -1.1,-2.9 -1.6,-6 -1.4,-9 0.4,-3 -1.7,-5.8 -4.7,-6.2 0,0 -0.1,0 -0.1,0 -2.8,-0.5 -4.1,-1.9 -3.4,-4.3 0.5,-1.7 -1.2,-2.4 -3.2,-1.6 0.6,-2.3 1.8,-3.6 6.2,0.2 1.4,1.5 3.1,3.1 5,5.1 0.8,0.9 4,3 5.7,2.4 2.7,-0.9 4.5,-6.5 6.7,-12.7 3.5,-10.1 7.6,-17.8 11.9,-20.6" />
			
				<linearGradient
   id="Pfad_2313_00000088119855464645290860000007108448543670865796_"
   gradientUnits="userSpaceOnUse"
   x1="-136.4966"
   y1="803.21729"
   x2="-136.4966"
   y2="800.16351"
   gradientTransform="matrix(23.0106,1.2263,4.0648,-6.9419,12.3468,5870.0972)">
				<stop
   offset="0"
   style="stop-color:#FFE4B2"
   id="stop58" />
				<stop
   offset="0.823"
   style="stop-color:#AD7101"
   id="stop60" />
				<stop
   offset="1"
   style="stop-color:#241C00"
   id="stop62" />
			</linearGradient>
			
				<path
   id="Pfad_2313"
   style="clip-rule:evenodd;fill:url(#Pfad_2313_00000088119855464645290860000007108448543670865796_);fill-rule:evenodd"
   d="m 100.7,126.8 c 11.4,22.8 50.2,27.8 71.3,13.5 -26.7,7.2 -49.8,1.2 -71.3,-13.5" />
			
				<linearGradient
   id="Pfad_2314_00000164497541724204180250000002135180644034901946_"
   gradientUnits="userSpaceOnUse"
   x1="-137.96831"
   y1="808.34882"
   x2="-137.96831"
   y2="805.29492"
   gradientTransform="matrix(29.8022,1.7514,5.2645,-9.9143,6.5957,8363.1377)">
				<stop
   offset="0"
   style="stop-color:#FFE4B2"
   id="stop66" />
				<stop
   offset="0.823"
   style="stop-color:#AD7101"
   id="stop68" />
				<stop
   offset="1"
   style="stop-color:#241C00"
   id="stop70" />
			</linearGradient>
			
				<path
   id="Pfad_2314"
   style="clip-rule:evenodd;fill:url(#Pfad_2314_00000164497541724204180250000002135180644034901946_);fill-rule:evenodd"
   d="m 104.2,123.9 c 8.4,-3.7 15.8,-9.4 21.5,-16.6 6.4,12.6 30.4,24.5 70.8,13.7 -34.2,32.8 -85.8,9.2 -92.3,2.9" />
			
				<linearGradient
   id="Pfad_2315_00000051354333842910886660000013543306664277901478_"
   gradientUnits="userSpaceOnUse"
   x1="-137.3288"
   y1="808.95508"
   x2="-137.3288"
   y2="805.90118"
   gradientTransform="matrix(28.1464,1.6257,4.9721,-9.2032,16.6857,7760.1025)">
				<stop
   offset="0"
   style="stop-color:#FFE4B2"
   id="stop74" />
				<stop
   offset="0.823"
   style="stop-color:#AD7101"
   id="stop76" />
				<stop
   offset="1"
   style="stop-color:#241C00"
   id="stop78" />
			</linearGradient>
			
				<path
   id="Pfad_2315"
   style="clip-rule:evenodd;fill:url(#Pfad_2315_00000051354333842910886660000013543306664277901478_);fill-rule:evenodd"
   d="m 144.9,91.9 c 12.3,11.9 58.4,12.3 72.2,7.2 -19.8,29 -76.7,26.2 -87.3,5.4 4.1,-5.3 9.3,-9.6 15.1,-12.6" />
			
				<linearGradient
   id="Pfad_2316_00000005224988891198370760000016425250440862789762_"
   gradientUnits="userSpaceOnUse"
   x1="-135.8353"
   y1="805.84698"
   x2="-135.8353"
   y2="802.79321"
   gradientTransform="matrix(24.6014,1.0063,4.3458,-5.6965,26.4058,4807.6079)">
				<stop
   offset="0"
   style="stop-color:#FFE4B2"
   id="stop82" />
				<stop
   offset="0.823"
   style="stop-color:#AD7101"
   id="stop84" />
				<stop
   offset="1"
   style="stop-color:#241C00"
   id="stop86" />
			</linearGradient>
			
				<path
   id="Pfad_2316"
   style="clip-rule:evenodd;fill:url(#Pfad_2316_00000005224988891198370760000016425250440862789762_);fill-rule:evenodd"
   d="m 161.6,80.4 c 20.2,9.6 49.9,6 63.3,1.6 -9.6,20.9 -62.9,19.6 -76.3,6.8 0.9,-1.5 7.6,-5.7 13,-8.4" />
			
				<linearGradient
   id="Pfad_2317_00000051372822719393473190000000525171009819706812_"
   gradientUnits="userSpaceOnUse"
   x1="-135.6335"
   y1="808.83173"
   x2="-135.6335"
   y2="805.77777"
   gradientTransform="matrix(23.0953,1.1192,4.0798,-6.3355,33.2348,5339.2617)">
				<stop
   offset="0"
   style="stop-color:#FFE4B2"
   id="stop90" />
				<stop
   offset="0.823"
   style="stop-color:#AD7101"
   id="stop92" />
				<stop
   offset="1"
   style="stop-color:#241C00"
   id="stop94" />
			</linearGradient>
			
				<path
   id="Pfad_2317"
   style="clip-rule:evenodd;fill:url(#Pfad_2317_00000051372822719393473190000000525171009819706812_);fill-rule:evenodd"
   d="m 173.4,72.6 c 22.1,4.6 42.9,-2.3 63,-9.4 -9.6,19.9 -39.6,23.9 -71.6,15.4 z" />
			
				<linearGradient
   id="Pfad_2318_00000049210352789160103080000013688753815754770872_"
   gradientUnits="userSpaceOnUse"
   x1="-134.0667"
   y1="811.44891"
   x2="-134.0667"
   y2="808.39502"
   gradientTransform="matrix(17.2139,1.2701,3.0408,-7.1898,42.8078,6052.8223)">
				<stop
   offset="0"
   style="stop-color:#FFE4B2"
   id="stop98" />
				<stop
   offset="0.823"
   style="stop-color:#AD7101"
   id="stop100" />
				<stop
   offset="1"
   style="stop-color:#241C00"
   id="stop102" />
			</linearGradient>
			
				<path
   id="Pfad_2318"
   style="clip-rule:evenodd;fill:url(#Pfad_2318_00000049210352789160103080000013688753815754770872_);fill-rule:evenodd"
   d="m 184.5,64.7 c 17,-0.6 29.4,-7.9 44.6,-16.3 -5.6,11.3 -23.1,24.1 -53.4,22.1 3.2,-1.7 6.1,-3.6 8.8,-5.8" />
			
				<linearGradient
   id="Pfad_2319_00000051381088466719310180000002493517703269146797_"
   gradientUnits="userSpaceOnUse"
   x1="-129.2386"
   y1="813.54382"
   x2="-129.2386"
   y2="810.48993"
   gradientTransform="matrix(10.3691,1.3508,1.8317,-7.6466,53.6378,6433.5781)">
				<stop
   offset="0"
   style="stop-color:#FFE4B2"
   id="stop106" />
				<stop
   offset="0.823"
   style="stop-color:#AD7101"
   id="stop108" />
				<stop
   offset="1"
   style="stop-color:#241C00"
   id="stop110" />
			</linearGradient>
			
				<path
   id="Pfad_2319"
   style="clip-rule:evenodd;fill:url(#Pfad_2319_00000051381088466719310180000002493517703269146797_);fill-rule:evenodd"
   d="m 196.9,54.8 c 10.6,-4.7 13,-7.7 22.8,-16.6 -2.1,11.5 -10.3,18.8 -32.1,23.7 z" />
			
				<linearGradient
   id="Pfad_2320_00000132069615415149789310000000015878948438600344_"
   gradientUnits="userSpaceOnUse"
   x1="-140.8812"
   y1="815.39917"
   x2="-140.8812"
   y2="812.34528"
   gradientTransform="matrix(50.9165,8.0308,8.9944,-45.4617,-32.9351,38228.633)">
				<stop
   offset="0"
   style="stop-color:#FFE4B2"
   id="stop114" />
				<stop
   offset="0.823"
   style="stop-color:#AD7101"
   id="stop116" />
				<stop
   offset="1"
   style="stop-color:#241C00"
   id="stop118" />
			</linearGradient>
			
				<path
   id="Pfad_2320"
   style="clip-rule:evenodd;fill:url(#Pfad_2320_00000132069615415149789310000000015878948438600344_);fill-rule:evenodd"
   d="m 52.8,133.7 c -5,-4.6 -5.8,-10.6 1.7,-19.4 5.5,-5.7 13.8,-7.4 21.1,-4.4 15.3,5.2 27.8,0.2 38.3,-11.5 13.3,-12.7 19.8,-14.8 45.5,-29 37.9,-20.9 41.1,-34.1 47.3,-41.6 -0.7,15.6 -12.5,27.9 -43.9,46.8 -20.6,11 -34.3,19.5 -45,31.8 -11.7,12 -25.2,17.1 -41,12.8 -3.9,5.6 -2.8,10.9 4,15.9 1,0.7 5.8,3.5 5,4.3 -3.3,3.9 -5.9,8.2 -7.8,12.9 -2.8,6.2 -6.6,16.7 -8.1,16.5 -2.5,-0.8 -4.7,-2.5 -6.1,-4.8 -0.3,-0.6 17.8,-20 8.6,-23.9 -7.6,-3.2 -11.9,-11 -15.6,-10.4 -2,0.3 -3.6,2 -4,4 m 7,-14.7 c 0.4,-2.3 2.1,-3.8 6.1,-3.7 0.2,1.6 -0.4,3.1 -1.7,4.1 -1.4,0.7 -3.2,0.5 -4.4,-0.4" />
			
				<linearGradient
   id="Pfad_2321_00000178923876574293093770000015564527339878380687_"
   gradientUnits="userSpaceOnUse"
   x1="-141.54849"
   y1="814.15582"
   x2="-141.54849"
   y2="811.10193"
   gradientTransform="matrix(20.533,4.0794,3.6272,-23.0933,-19.7348,19425.301)">
				<stop
   offset="0"
   style="stop-color:#FFE4B2"
   id="stop122" />
				<stop
   offset="0.823"
   style="stop-color:#AD7101"
   id="stop124" />
				<stop
   offset="1"
   style="stop-color:#241C00"
   id="stop126" />
			</linearGradient>
			
				<path
   id="Pfad_2321"
   style="clip-rule:evenodd;fill:url(#Pfad_2321_00000178923876574293093770000015564527339878380687_);fill-rule:evenodd"
   d="m 48.3,117.9 c 1.7,-4.8 5.6,-8.6 10.4,-10.1 -10.3,-0.8 -19.6,-3.7 -25.6,-13.4 -1.6,2.1 -1.2,5.1 0.8,6.8 C 7,97.6 -2.2,73 -0.1,46.3 c -7,14.4 -6.6,34.3 3.5,46.1 11,13.1 24.3,20.7 44.9,25.5" />
			
				<linearGradient
   id="Pfad_2322_00000109002596421701383320000017561286209740699556_"
   gradientUnits="userSpaceOnUse"
   x1="-140.3138"
   y1="812.04968"
   x2="-140.3138"
   y2="808.99579"
   gradientTransform="matrix(3.8152,2.0088,0.674,-11.3718,1.2291,9571.7656)">
				<stop
   offset="0"
   style="stop-color:#FFE4B2"
   id="stop130" />
				<stop
   offset="0.823"
   style="stop-color:#AD7101"
   id="stop132" />
				<stop
   offset="1"
   style="stop-color:#241C00"
   id="stop134" />
			</linearGradient>
			
				<path
   id="Pfad_2322"
   style="clip-rule:evenodd;fill:url(#Pfad_2322_00000109002596421701383320000017561286209740699556_);fill-rule:evenodd"
   d="M 19.1,90.7 C 13.2,86.8 9,80.7 7.5,73.8 6.2,66.6 9.5,59.3 15.7,55.5 11.3,67 12.5,80.1 19.1,90.7" />
			
				<linearGradient
   id="Pfad_2323_00000117638392000652863260000003205296676774957490_-9"
   gradientUnits="userSpaceOnUse"
   x1="-137.8428"
   y1="811.83002"
   x2="-137.8428"
   y2="808.77612"
   gradientTransform="matrix(3.4979,1.9294,0.6179,-10.922,5.6054,9196.1191)">
				<stop
   offset="0"
   style="stop-color:#FFE4B2"
   id="stop138" />
				<stop
   offset="0.823"
   style="stop-color:#AD7101"
   id="stop140" />
				<stop
   offset="1"
   style="stop-color:#241C00"
   id="stop142" />
			</linearGradient>
			
				<path
   id="Pfad_2323"
   style="clip-rule:evenodd;fill:url(#Pfad_2323_00000117638392000652863260000003205296676774957490_-9);fill-rule:evenodd"
   d="m 28.9,97.2 c 0.5,0.3 -1.6,-3.8 1.6,-5.8 -5.5,-8.2 -7.5,-18.3 -5.4,-28 -7.3,6.1 -8.4,26 3.8,33.8" />
		</g>
	</g>
</g><g
     aria-label="AWINO"
     id="text1412"
     style="font-size:133.333px;line-height:1.25;font-family:'Mitra Mono';-inkscape-font-specification:'Mitra Mono';fill:url(#linearGradient23112)"><path
       d="m 307.35011,79.109505 h -0.53333 q -1.99999,5.599985 -4.79999,13.333299 -2.66666,7.733316 -5.59998,15.999956 -2.79999,8.13332 -5.33332,15.19996 l -0.66667,2 q -0.79999,2.39999 -1.99999,5.99998 -1.2,3.59999 -2.53333,7.59998 -1.33333,3.86666 -2.53332,7.33332 -1.2,3.33332 -1.86667,5.46665 -0.93333,0.4 -1.99999,0.53333 -0.93333,0.26667 -2.4,0.26667 -2.13332,0 -3.86665,-1.06666 -1.6,-1.2 -1.6,-3.73333 0,-1.2 0.4,-2.39999 0.4,-1.33333 0.93333,-2.79999 1.6,-4.53333 3.86666,-11.06664 2.39999,-6.53332 5.19999,-14.26663 2.79999,-7.73332 5.86665,-15.86663 3.06666,-8.133312 5.99998,-15.866626 2.93333,-7.733313 5.46665,-14.133297 1.06667,-0.533332 3.2,-1.066664 2.13332,-0.533332 4.39999,-0.533332 2.66665,0 5.06665,0.799998 2.53333,0.799998 3.19999,2.66666 3.19999,7.733314 6.79998,17.599955 3.73333,9.733306 7.46665,20.399946 3.73332,10.53331 7.06665,20.53328 3.46666,9.99998 6.13332,18.13329 -0.93333,1.2 -2.53333,1.86666 -1.46666,0.8 -3.33332,0.8 -2.53333,0 -3.86666,-1.06666 -1.33333,-1.2 -2.26666,-3.86666 l -7.33332,-21.73328 -1.06666,-3.73332 q -2.66666,-8.13332 -5.59999,-16.39996 -2.79999,-8.266646 -5.33332,-15.333295 -2.39999,-7.066648 -3.99999,-11.59997 z m -22.13327,51.066535 3.46666,-8.93331 h 37.1999 l 2.13333,8.93331 z"
       style="font-family:'Baloo Bhai 2';-inkscape-font-specification:'Baloo Bhai 2, '"
       id="path25905" /><path
       d="m 391.08291,90.842808 q 1.06666,-0.533332 2.66666,-0.933331 1.59999,-0.399999 3.33332,-0.399999 2.66666,0 4.39999,0.933331 1.86666,0.799998 2.39999,2.533327 3.33333,9.599974 5.99999,17.866624 2.79999,8.13331 5.19998,15.86662 2.53333,7.59998 5.06666,15.7333 h 0.53333 q 2.53333,-11.99997 4.93332,-23.33328 2.4,-11.46663 4.66666,-23.199938 2.26666,-11.733304 4.13332,-25.066603 1.86666,-0.933331 4.53332,-0.933331 2.53333,0 3.99999,1.199997 1.46666,1.066664 1.46666,3.333325 0,2.533327 -0.79999,7.733314 -0.66667,5.066653 -2,11.999969 -1.2,6.799987 -2.93333,14.533297 -1.59999,7.59998 -3.46665,15.33329 -1.86667,7.59998 -3.73333,14.39997 -1.86666,6.79998 -3.59999,11.86663 -1.19999,0.66667 -3.06666,1.33333 -1.86666,0.53333 -4.26665,0.53333 -2.93333,0 -4.93332,-0.93333 -2,-0.93333 -2.66666,-2.53332 -1.86666,-4.66666 -4.53332,-12.26664 -2.66666,-7.73331 -5.59999,-16.79996 -2.79999,-9.19997 -5.46665,-18.13328 -2.53333,8.79998 -5.46666,18.26662 -2.93332,9.46664 -5.73331,17.59995 -2.66666,8.13332 -4.79999,13.06664 -0.93333,0.53333 -2.93333,1.19999 -1.86666,0.53333 -4.26665,0.53333 -2.93333,0 -4.93332,-0.93333 -1.86667,-1.06666 -2.53333,-2.53332 -1.33333,-3.33333 -3.33333,-9.99998 -1.86666,-6.66665 -3.99999,-15.19996 -2.13332,-8.66664 -4.26665,-17.86662 -2,-9.333309 -3.86666,-17.866621 -1.73333,-8.666644 -2.79999,-15.333294 0.93333,-0.933331 2.53333,-1.733329 1.59999,-0.799998 3.46665,-0.799998 2.4,0 3.73333,1.199997 1.33333,1.066664 1.86666,3.733324 1.73333,8.399979 3.33332,16.266625 1.6,7.866647 3.2,15.866626 1.73332,7.99998 3.59999,16.79996 1.86666,8.66664 4.13332,18.66662 h 0.53333 q 1.86666,-5.99999 3.59999,-11.46664 1.73333,-5.46665 3.59999,-11.19997 1.86666,-5.86665 3.99999,-12.79997 2.26666,-6.93332 5.06666,-16.133292 z"
       style="font-family:'Baloo Bhai 2';-inkscape-font-specification:'Baloo Bhai 2, '"
       id="path25907" /><path
       d="m 462.28265,103.37611 h 10.79998 v 48.13321 q -0.66667,0.26667 -2,0.53333 -1.33333,0.4 -2.93332,0.4 -2.93333,0 -4.39999,-1.2 -1.46667,-1.19999 -1.46667,-3.73332 z m 10.79998,8.93331 H 462.28265 V 70.976192 q 0.66667,-0.266666 2,-0.533332 1.46666,-0.399999 3.06666,-0.399999 2.93332,0 4.26665,1.199997 1.46667,1.066664 1.46667,3.733324 z"
       style="font-family:'Baloo Bhai 2';-inkscape-font-specification:'Baloo Bhai 2, '"
       id="path25909" /><path
       d="m 497.08246,79.909503 9.06664,-0.799998 q 0.53333,4.133323 0.93333,9.733308 0.4,5.599986 0.53333,11.599967 0.26667,5.86666 0.26667,11.19997 v 39.86657 q -0.66667,0.26667 -2.13333,0.53333 -1.33333,0.4 -2.79999,0.4 -2.93333,0 -4.39999,-1.06666 -1.46666,-1.2 -1.46666,-3.73333 z m 64.2665,62.666507 -9.19998,0.8 q -1.33333,-11.19997 -1.59999,-22.79994 -0.13334,-11.73331 -0.13334,-22.666613 V 70.976192 q 0.8,-0.266666 2.13333,-0.533332 1.33333,-0.399999 2.93333,-0.399999 2.93332,0 4.39999,1.199997 1.46666,1.066664 1.46666,3.599991 z m 0,-3.99999 v -0.53333 12.26663 q -1.2,0.93333 -3.06666,1.6 -1.86666,0.66666 -4.13332,0.66666 -3.19999,0 -5.46666,-1.19999 -2.26666,-1.33333 -4.13332,-4.66666 l -25.33327,-42.66656 q -1.99999,-3.59999 -4.39999,-7.866642 -2.39999,-4.399989 -4.53332,-8.266646 -2.13332,-3.999989 -3.33332,-6.533316 l -9.86664,2.533327 V 72.309522 q 1.06666,-1.066664 2.93332,-1.733329 2,-0.666665 4.26666,-0.666665 3.19999,0 5.46665,1.33333 2.26666,1.199997 4.13332,4.533322 l 25.46661,42.66656 q 2.13332,3.59999 4.39998,7.99998 2.4,4.26665 4.39999,8.26664 2,3.86666 3.19999,6.39999 z"
       style="font-family:'Baloo Bhai 2';-inkscape-font-specification:'Baloo Bhai 2, '"
       id="path25911" /><path
       d="m 657.74869,111.24276 q 0,13.86663 -5.06665,23.33327 -5.06665,9.33331 -13.86663,14.1333 -8.66665,4.79998 -19.73328,4.79998 -10.93331,0 -19.73329,-4.79998 -8.79997,-4.79999 -13.86663,-14.1333 -5.06665,-9.46664 -5.06665,-23.33327 0,-13.866635 5.19998,-23.199945 5.19999,-9.466642 13.86664,-14.26663 8.79997,-4.799988 19.59995,-4.799988 10.9333,0 19.59995,4.799988 8.79997,4.799988 13.86663,14.26663 5.19998,9.33331 5.19998,23.199945 z m -11.06663,0 q 0,-15.86663 -7.59999,-24.399942 -7.46664,-8.666644 -19.99994,-8.666644 -12.39997,0 -19.99995,8.666644 -7.46665,8.533312 -7.46665,24.399942 0,15.86662 7.46665,24.53327 7.46664,8.53331 19.99995,8.53331 12.66663,0 20.13328,-8.53331 7.46665,-8.66665 7.46665,-24.53327 z"
       style="font-family:'Baloo Bhai 2';-inkscape-font-specification:'Baloo Bhai 2, '"
       id="path25913" /></g></g></svg>
