<?xml version="1.0" encoding="UTF-8" standalone="no"?>
<svg
   class="MuiSvgIcon-root MuiSvgIcon-fontSizeMedium MuiBox-root css-1om0hkc"
   focusable="false"
   viewBox="0 0 24 24"
   aria-hidden="true"
   data-testid="AccountBoxIcon"
   version="1.1"
   id="svg4"
   xmlns="http://www.w3.org/2000/svg"
   xmlns:svg="http://www.w3.org/2000/svg">
  <defs
     id="defs8" />
  <g
     id="g1094"
     transform="matrix(0.0713427,0,0,0.0713427,2.8681344,3.4412549)">
    <polygon
       fill="#e17726"
       points="140.21855,81.279313 160.64564,33.378773 250.06602,-8.8965179e-15 "
       id="polygon1036" />
    <polygon
       fill="#e27625"
       points="95.371553,33.38465 114.76792,81.913278 6.1906202,0.095526705 "
       id="polygon1038" />
    <polygon
       fill="#e27625"
       points="205.85999,172.85803 254.41065,173.78202 237.44299,231.42425 178.20043,215.11274 "
       id="polygon1040" />
    <polygon
       fill="#e27625"
       points="50.139162,172.85797 77.696429,215.11288 18.553058,231.42532 1.6884683,173.78204 "
       id="polygon1042" />
    <polygon
       fill="#e27625"
       points="114.11539,133.63509 54.744344,130.93391 71.631954,105.45645 71.845697,105.21067 112.13072,69.551647 "
       id="polygon1044" />
    <polygon
       fill="#e27625"
       points="184.154,105.21339 184.36551,105.45719 201.25354,130.93466 141.89632,133.63523 143.25424,68.836919 "
       id="polygon1046" />
    <polygon
       fill="#e27625"
       points="111.85314,198.30277 74.19514,216.48438 79.434778,173.04396 "
       id="polygon1048" />
    <polygon
       fill="#e27625"
       points="181.70167,216.48452 144.14936,198.3012 176.57078,173.04001 "
       id="polygon1050" />
    <polygon
       fill="#d5bfb2"
       points="144.97792,195.92164 183.08488,214.37353 147.63778,231.22035 148.00582,220.0857 "
       id="polygon1052" />
    <polygon
       fill="#d5bfb2"
       points="111.01133,195.92998 108.10209,219.90359 108.34084,231.20724 72.810514,214.37366 "
       id="polygon1054" />
    <polygon
       fill="#233447"
       points="109.96517,162.92682 76.061594,152.99528 100.00717,141.99886 "
       id="polygon1056" />
    <polygon
       fill="#233447"
       points="180.04972,152.99459 146.03608,162.92364 155.99158,142.00094 "
       id="polygon1058" />
    <polygon
       fill="#cc6228"
       points="76.545982,217.87002 47.173122,173.81495 82.026396,172.8304 "
       id="polygon1060" />
    <polygon
       fill="#cc6228"
       points="208.83046,173.81508 179.34702,217.87151 173.97611,172.8305 "
       id="polygon1062" />
    <polygon
       fill="#cc6228"
       points="176.74678,154.23842 157.19033,145.30135 147.82685,164.98526 141.68865,131.13643 202.11227,128.38734 "
       id="polygon1064" />
    <polygon
       fill="#cc6228"
       points="114.30958,131.13643 108.17138,164.98526 98.806143,145.30386 79.352511,154.23882 53.875386,128.38688 "
       id="polygon1066" />
    <polygon
       fill="#e27525"
       points="80.863908,152.20339 81.858481,180.95228 52.165606,123.08249 "
       id="polygon1068" />
    <polygon
       fill="#e27525"
       points="174.11749,181.00302 175.23743,152.20274 203.86335,123.02978 "
       id="polygon1070" />
    <polygon
       fill="#e27525"
       points="106.4058,161.17749 106.40295,160.71542 112.90676,124.85569 114.06166,132.12568 116.91577,150.23652 115.08095,205.86188 "
       id="polygon1072" />
    <polygon
       fill="#e27525"
       points="140.55515,194.76913 139.19817,149.90713 143.078,124.75542 149.59905,160.71545 149.59619,161.17749 140.89933,205.97371 "
       id="polygon1074" />
    <polygon
       fill="#f5841f"
       points="176.81718,176.0239 146.54334,199.61119 140.4233,195.28712 147.28343,159.95163 177.78848,151.04597 "
       id="polygon1076" />
    <polygon
       fill="#f5841f"
       points="108.71646,159.95243 115.57644,195.28712 109.45638,199.6112 79.180734,176.02188 78.316705,151.04646 "
       id="polygon1078" />
    <polygon
       fill="#c0ac9d"
       points="147.16069,216.52833 150.51876,219.36334 150.27138,227.19448 188.75773,208.90398 170.03029,224.37951 147.38461,239.93331 108.51648,239.93331 85.88555,224.31594 67.018098,208.8576 105.75014,227.2095 105.58619,219.37287 108.82684,216.52833 "
       id="polygon1080" />
    <polygon
       fill="#161616"
       points="142.2035,193.47937 147.67976,197.3477 150.88896,222.95249 146.24471,219.03096 109.7693,219.03096 105.21345,223.0314 108.31727,197.34966 113.79543,193.47937 "
       id="polygon1082" />
    <polygon
       fill="#763e1a"
       points="245.69441,92.38121 251.65752,96.986588 243.76121,104.17825 248.60911,107.68897 235.74337,122.7148 182.97339,107.35036 182.51608,107.10524 144.48898,75.026741 242.81425,2.2497895 256,41.807277 247.76534,81.803692 253.62904,86.327422 "
       id="polygon1084" />
    <polygon
       fill="#763e1a"
       points="20.256739,122.7148 7.3912129,107.68893 12.235271,104.18075 4.34251,96.986592 10.294557,92.386218 2.241337,86.315099 8.3262969,81.788667 -8.8965179e-15,41.808753 13.186005,2.2497856 111.51151,75.02674 73.484412,107.10524 73.027102,107.35036 "
       id="polygon1086" />
    <polygon
       fill="#f5841f"
       points="173.52553,176.67128 197.53966,129.86328 180.39164,103.99036 236.30487,120.26918 254.47025,176.25472 206.54645,176.25462 "
       id="polygon1088" />
    <polygon
       fill="#f5841f"
       points="1.6305327,176.25472 19.693897,120.26955 75.608036,103.99038 58.456819,129.86328 82.474187,176.67128 49.469391,176.25472 "
       id="polygon1090" />
    <polygon
       fill="#f5841f"
       points="112.84618,150.3817 111.57211,132.39559 108.25179,75.350505 92.615085,33.111739 163.3839,33.111739 147.74469,75.350505 144.42585,132.41135 143.15593,150.29599 143.05519,195.98351 112.94379,195.98351 "
       id="polygon1092" />
  </g>
</svg>
