<?xml version="1.0" encoding="UTF-8" standalone="no"?>
<svg
   class="MuiSvgIcon-root MuiSvgIcon-fontSizeMedium MuiBox-root css-1om0hkc"
   focusable="false"
   viewBox="0 0 24 24"
   aria-hidden="true"
   data-testid="AccountBoxIcon"
   version="1.1"
   id="svg4"
   xmlns="http://www.w3.org/2000/svg"
   xmlns:svg="http://www.w3.org/2000/svg">
  <defs
     id="defs8" />
  <path
     d="m 6.745647,8.6777444 c 2.9019046,-2.8412063 7.60682,-2.8412063 10.508725,0 l 0.349249,0.3419434 c 0.145095,0.1420606 0.145095,0.372386 0,0.5144461 L 16.40891,10.703855 c -0.07255,0.07103 -0.190171,0.07103 -0.262719,0 L 15.665584,10.2333 c -2.024441,-1.9820966 -5.306708,-1.9820966 -7.3311492,0 l -0.5146915,0.503926 c -0.072548,0.07103 -0.1901708,0.07103 -0.2627179,0 L 6.3623149,9.5675045 c -0.1450953,-0.1420606 -0.1450953,-0.3723854 0,-0.514446 z m 12.9795,2.4191076 1.063294,1.041058 c 0.145093,0.14206 0.145095,0.372383 2e-6,0.514443 l -4.79447,4.694259 c -0.145094,0.142061 -0.38034,0.142064 -0.525436,4e-6 -10e-7,0 -2e-6,-1e-6 -2e-6,-2e-6 l -3.402823,-3.331653 c -0.03628,-0.03552 -0.09508,-0.03552 -0.131359,0 0,1e-6 -10e-7,1e-6 -10e-7,1e-6 l -3.4027498,3.33165 c -0.1450941,0.142062 -0.3803395,0.142065 -0.5254362,5e-6 -1.2e-6,-10e-7 -1.9e-6,-10e-7 -2.5e-6,-2e-6 L 3.2115598,12.652294 c -0.1450951,-0.142061 -0.1450951,-0.372386 0,-0.514446 l 1.0632977,-1.041056 c 0.1450948,-0.142061 0.3803408,-0.142061 0.5254356,0 l 3.4028724,3.331698 c 0.036274,0.03552 0.095085,0.03552 0.1313589,0 6e-7,0 1.3e-6,-10e-7 1.9e-6,-2e-6 l 3.4027017,-3.331696 c 0.145091,-0.142063 0.380337,-0.142069 0.525436,-1.2e-5 1e-6,2e-6 4e-6,4e-6 6e-6,6e-6 l 3.402867,3.331702 c 0.03628,0.03552 0.09509,0.03552 0.13136,0 l 3.402813,-3.331636 c 0.145095,-0.142061 0.380341,-0.142061 0.525437,0 z"
     id="WalletConnect"
     style="fill:#3b99fc;fill-rule:nonzero;stroke:none;stroke-width:0.0593301" />
</svg>
