<?xml version="1.0" encoding="utf-8"?>
<!-- Generator: Adobe Illustrator 26.3.1, SVG Export Plug-In . SVG Version: 6.00 Build 0)  -->
<svg version="1.1" id="Ebene_1" xmlns="http://www.w3.org/2000/svg" xmlns:xlink="http://www.w3.org/1999/xlink" x="0px" y="0px"
	 viewBox="0 0 586.9 537.1" style="enable-background:new 0 0 586.9 537.1;" xml:space="preserve">
<style type="text/css">
	.st0{clip-path:url(#SVGID_00000071556360722172720980000013797339799651417764_);}
	.st1{fill-rule:evenodd;clip-rule:evenodd;fill:#12252F;}
</style>
<g id="Gruppe_4152" transform="translate(569.531 600.218) rotate(-160)">
	<g>
		<defs>
			
				<rect id="SVGID_1_" x="200.9" y="-116.8" transform="matrix(0.342 -0.9397 0.9397 0.342 94.7183 507.745)" width="418.1" height="606.1"/>
		</defs>
		<clipPath id="SVGID_00000062157959613969524030000000738314238408232115_">
			<use xlink:href="#SVGID_1_"  style="overflow:visible;"/>
		</clipPath>
		
			<g id="Gruppe_4147" transform="translate(0 0)" style="clip-path:url(#SVGID_00000062157959613969524030000000738314238408232115_);">
			<path id="Pfad_2307" class="st1" d="M350.4,62.4c-8.7-24.3,0.9-54.7,15.1-73.8C341.7-7.8,329.1,22.3,350.4,62.4"/>
			<path id="Pfad_2308" class="st1" d="M361.3,69.7c-10.1-51.2,0.4-79.7,36.1-83.4C370.1,10.9,361.5,51.3,361.3,69.7"/>
			<path id="Pfad_2309" class="st1" d="M373.8,67c-7.3-46.5,33.6-86.5,68.4-79.7C401,3.6,385.7,41.6,373.8,67"/>
			<path id="Pfad_2310" class="st1" d="M390.1,56.8c12.3-25.1,42.6-46.6,76.2-48.6C434.2-3,403.8,11.2,390.1,56.8"/>
			<path id="Pfad_2311" class="st1" d="M245.4,9.5c-6.9,3.8-13,3-21.6-1.6c-4.5-2.4-7.1,1.5-9.2,1.6c-5.8,0.2-6.9-3.2-7.8-9.3
				c-8.1,8.6-0.3,13.2,6.6,15.8c0.8,0.3,2,2.6,3.7,3.4c3.3,1.5,4.9,0.6,6,0.9c3.4,1.2-1.7,5.2-6.5,6.7s-5.2,4.5-4.2,8.2
				c-6.7,2.3-10.3-0.5-13.7-3.5c2.5,9.1,7.5,11.3,15.3,6.3c3.4,3.1,7.4,0.5,11.8-5.7c1.8-2.5,7-0.7,3.8,3.7
				c-1.3,1.8,1.7,2.8,1.8,3.1c-2.2,6.2-6.4,7-11.2,6.1c7.7,7.8,11.3,4.2,16-4.4c3.6,1.1,6.8-1.9,7.7-5.8c2.3-9.8,9.7-11.8,14.2-11.5
				c15.7,1,22.9-7.2,18.8-26c-1.4-6.5-2.8-7.3-7.3-6.8c3-4.2,3.3-9.5-7-13.7c3.7,7.6,2.9,13-0.7,13.2c-2.5,0.8-4.8,1.6-7.1,7.6
				C253.9,2.9,250.6,6.6,245.4,9.5"/>
			<path id="Pfad_2312" class="st1" d="M346.9,108.5c12.5,7.8,30,7,50.6-18.4c44.4-54.5,105-57.5,141.9-51.1
				c-19.9-17.3-77.8-27.3-115.3-3.3c-25.3,16.2-33,35.6-49.3,42.9c-28.6,12.8-34.3-24.9-44-40.8c-10.5-17.2-19.6-24.9-31.9-25.5
				c-4.7-0.8-4.9-8.6-3.8-18.5c0.9-8.2,0.6-12.8-7.6-15c3.5,5.1,3.6,7.9,2,12.3c-2.8,7.2-4,15-3.5,22.7c0.8,6.6-2.8,14-12.2,15.7
				c-7.2,1.3-10.4,4.7-8.5,10.8c1.2,4.1-2.9,5.8-8,3.8c1.5,5.8,4.6,9.2,15.6-0.4c3.6-3.7,7.7-7.9,12.5-12.7c2-2.1,9.9-7.4,14.3-6
				c6.8,2.2,11.4,16.4,16.9,31.8C325.7,82.1,335.9,101.6,346.9,108.5"/>
			<path id="Pfad_2313" class="st1" d="M372.3,146.7c28.6-57.2,126.1-69.9,179.2-33.8C484.2,94.9,426.2,109.8,372.3,146.7"/>
			<path id="Pfad_2314" class="st1" d="M381,154.1c21.2,10,37.7,21.2,54.1,41.7c16.1-31.6,76.3-61.6,178-34.5
				C526.9,78.8,397.2,138.3,381,154.1"/>
			<path id="Pfad_2315" class="st1" d="M483.3,234.4c30.8-30,146.6-30.9,181.4-18c-49.8-72.8-192.7-65.7-219.2-13.5
				C454.5,213.9,464.5,224.5,483.3,234.4"/>
			<path id="Pfad_2316" class="st1" d="M525.1,263.2c50.7-24.1,125.4-15,159-3.9c-24.2-52.4-158-49.2-191.6-17.1
				C494.7,246.1,511.6,256.5,525.1,263.2"/>
			<path id="Pfad_2317" class="st1" d="M554.8,282.9c55.6-11.6,107.8,5.9,158.1,23.7c-24-50.1-99.5-60.1-179.8-38.7L554.8,282.9z"/>
			<path id="Pfad_2318" class="st1" d="M582.8,302.7c42.8,1.5,73.9,19.8,112,40.9c-14-28.3-58.1-60.5-134-55.5
				C570.3,293,574.8,297.3,582.8,302.7"/>
			<path id="Pfad_2319" class="st1" d="M613.9,327.6c26.7,11.8,32.8,19.4,57.4,41.6c-5.2-29-25.9-47.2-80.7-59.5L613.9,327.6z"/>
			<path id="Pfad_2320" class="st1" d="M251.9,129.3c-12.6,11.6-14.5,26.7,4.4,48.7c15.7,14,33.1,19,53,11.1
				c38.5-12.9,69.8-0.4,96.3,28.9c33.4,31.8,49.7,37.2,114.3,72.9c95.3,52.5,103.3,85.6,118.8,104.5
				c-1.6-39.2-31.3-70.1-110.2-117.4c-51.8-27.6-86.2-49.1-113.1-79.9c-29.5-30.3-63.3-43-102.9-32c-9.9-14.2-7.1-27.4,10.1-40
				c2.5-1.8,14.5-8.8,12.6-10.9c-7.1-8-12.9-17.5-19.7-32.3c-7.2-15.6-16.7-41.9-20.3-41.4c-4.8,0.7-12.5,7.1-15.3,12
				c-0.8,1.4,44.6,50.3,21.6,59.9c-19.1,8-29.9,27.6-39.3,26.1C255.8,138.3,253.2,134.2,251.9,129.3 M269.4,166.5
				c1.1,5.8,5.2,9.5,15.3,9.2c0.4-4.5-1.5-8.9-4.2-10.2C276.8,163.7,273.7,164,269.4,166.5"/>
			<path id="Pfad_2321" class="st1" d="M240.6,169.1c1.7,8.4,13.6,22.5,26.2,25.4c-25.8,2.1-49.2,9.2-64.2,33.7
				c-3.5-5-3.7-10.5,2-17.1c-67.8,9.1-90.8,70.8-85.7,137.9c-17.6-36.2-16.6-86.1,8.7-115.8C155.5,200.3,188.9,181.1,240.6,169.1"/>
			<path id="Pfad_2322" class="st1" d="M167.2,237.5c-8.7,4.9-25.9,21.9-29,42.5c-3.3,22.1,7.8,37.9,20.7,46.1
				C148.5,300.3,149.2,269.4,167.2,237.5"/>
			<path id="Pfad_2323" class="st1" d="M191.8,221.1c1.2-0.8-4,9.4,4.1,14.5c-17.5,29.5-16.8,47.2-13.5,70.5
				C163.9,290.8,161.3,240.8,191.8,221.1"/>
		</g>
	</g>
</g>
</svg>
