<svg xmlns="http://www.w3.org/2000/svg" xmlns:xlink="http://www.w3.org/1999/xlink" width="702.067" height="567.563" viewBox="0 0 702.067 567.563">
  <defs>
    <linearGradient id="linear-gradient" x1="0.5" x2="0.5" y2="1" gradientUnits="objectBoundingBox">
      <stop offset="0" stop-color="#ffe4b2"/>
      <stop offset="0.823" stop-color="#ad7101"/>
      <stop offset="1" stop-color="#241c00"/>
    </linearGradient>
    <clipPath id="clip-path">
      <rect id="Rechteck_1170" data-name="Rechteck 1170" width="613.433" height="423.216" fill="url(#linear-gradient)"/>
    </clipPath>
  </defs>
  <g id="Gruppe_4152" data-name="Gruppe 4152" transform="matrix(0.966, -0.259, 0.259, 0.966, 0, 158.768)">
    <g id="Gruppe_4147" data-name="Gruppe 4147" transform="translate(0 0)" clip-path="url(#clip-path)">
      <path id="Pfad_2307" data-name="Pfad 2307" d="M11.046,0c-8.8,24.639.942,55.324,15.282,74.7C2.186,71-10.55,40.521,11.046,0" transform="translate(235.433 336.974)" fill-rule="evenodd" fill="url(#linear-gradient)"/>
      <path id="Pfad_2308" data-name="Pfad 2308" d="M3.7,0C-6.546,51.824,4.114,80.622,40.2,84.456,12.629,59.509,3.926,18.581,3.7,0" transform="translate(253.785 329.564)" fill-rule="evenodd" fill="url(#linear-gradient)"/>
      <path id="Pfad_2309" data-name="Pfad 2309" d="M.855,0C-6.487,47.087,34.878,87.547,70.071,80.712,28.4,64.15,12.881,25.71.855,0" transform="translate(269.275 332.337)" fill-rule="evenodd" fill="url(#linear-gradient)"/>
      <path id="Pfad_2310" data-name="Pfad 2310" d="M0,0C12.495,25.438,43.107,47.177,77.164,49.157,44.731,60.521,13.953,46.119,0,0" transform="translate(286.602 342.608)" fill-rule="evenodd" fill="url(#linear-gradient)"/>
      <path id="Pfad_2311" data-name="Pfad 2311" d="M47.328,40.508c-6.964-3.859-13.12-3.023-21.823,1.643-4.527,2.432-7.188-1.526-9.337-1.6-5.909-.2-6.958,3.206-7.912,9.4C.093,41.3,7.985,36.609,14.9,33.931c.836-.322,2-2.65,3.725-3.438,3.351-1.529,4.987-.558,6.027-.914,3.472-1.195-1.694-5.29-6.568-6.793s-5.281-4.58-4.246-8.293C7.048,12.167,3.433,14.96,0,18.045,2.491,8.812,7.615,6.569,15.5,11.651c3.433-3.1,7.48-.491,11.92,5.758,1.775,2.5,7.042.724,3.854-3.795-1.313-1.859,1.719-2.791,1.848-3.138-2.21-6.31-6.434-7.127-11.342-6.125C29.569-3.517,33.207.09,37.938,8.759c3.593-1.077,6.843,1.958,7.758,5.89,2.314,9.945,9.861,11.917,14.374,11.631,15.855-1.01,23.214,7.3,19.027,26.327-1.45,6.6-2.847,7.345-7.368,6.84,3.085,4.277,3.323,9.609-7.04,13.818,3.725-7.651,2.948-13.14-.665-13.319-2.558-.822-4.88-1.624-7.211-7.643-.889-5.068-4.221-8.879-9.485-11.8" transform="translate(92.9 349.95)" fill-rule="evenodd" fill="url(#linear-gradient)"/>
      <path id="Pfad_2312" data-name="Pfad 2312" d="M90.789,4.408c12.643-7.9,30.346-7.107,51.263,18.606,44.9,55.2,106.239,58.165,143.633,51.729-20.165,17.532-78.79,27.617-116.731,3.3-25.645-16.441-33.4-36.028-49.936-43.421C90.048,21.662,84.29,59.779,74.5,75.881,63.892,93.323,54.682,101.08,42.235,101.7c-4.709.788-4.945,8.717-3.851,18.766.906,8.307.6,12.988-7.7,15.2,3.59-5.141,3.685-7.962,2-12.458a53.574,53.574,0,0,1-3.59-22.975c.855-6.678-2.866-14.158-12.368-15.874-7.244-1.31-10.514-4.734-8.644-10.9C9.348,69.31,5.127,67.548,0,69.568c1.548-5.862,4.622-9.261,15.765.4,3.6,3.741,7.783,8,12.668,12.9,2.045,2.174,10.055,7.508,14.483,6.064,6.911-2.258,11.5-16.589,17.145-32.172C69.325,31.164,79.618,11.386,90.789,4.408" transform="translate(152.142 285.891)" fill-rule="evenodd" fill="url(#linear-gradient)"/>
      <path id="Pfad_2313" data-name="Pfad 2313" d="M0,0C28.966,57.888,127.613,70.741,181.355,34.25,113.287,52.452,54.629,37.366,0,0" transform="translate(268.585 251.648)" fill-rule="evenodd" fill="url(#linear-gradient)"/>
      <path id="Pfad_2314" data-name="Pfad 2314" d="M0,42.162C21.481,32.071,38.109,20.746,54.78,0c16.244,31.945,77.27,62.3,180.13,34.892C147.633,118.316,16.418,58.188,0,42.162" transform="translate(277.464 201.987)" fill-rule="evenodd" fill="url(#linear-gradient)"/>
      <path id="Pfad_2315" data-name="Pfad 2315" d="M38.216,0C69.4,30.315,186.631,31.291,221.832,18.213,171.461,91.9,26.821,84.748,0,31.875,9.115,20.723,19.237,10.013,38.216,0" transform="translate(342.745 162.856)" fill-rule="evenodd" fill="url(#linear-gradient)"/>
      <path id="Pfad_2316" data-name="Pfad 2316" d="M33.01,0C84.344,24.35,159.945,15.156,193.895,3.952,169.385,56.979,33.992,53.737,0,21.3,2.218,17.372,19.352,6.843,33.01,0" transform="translate(390.264 133.688)" fill-rule="evenodd" fill="url(#linear-gradient)"/>
      <path id="Pfad_2317" data-name="Pfad 2317" d="M21.963,23.96C78.263,35.675,131.077,18.017,182.023,0,157.7,50.7,81.3,60.846,0,39.2Z" transform="translate(431.41 89.762)" fill-rule="evenodd" fill="url(#linear-gradient)"/>
      <path id="Pfad_2318" data-name="Pfad 2318" d="M22.269,41.444c43.326-1.489,74.749-20,113.4-41.444C121.547,28.61,76.821,61.194,0,56.143c9.684-4.908,14.217-9.222,22.269-14.7" transform="translate(459.375 52.315)" fill-rule="evenodd" fill="url(#linear-gradient)"/>
      <path id="Pfad_2319" data-name="Pfad 2319" d="M23.654,42.154C50.654,30.211,56.83,22.488,81.724,0,76.465,29.325,55.489,47.729,0,60.266Z" transform="translate(489.505 26.364)" fill-rule="evenodd" fill="url(#linear-gradient)"/>
      <path id="Pfad_2320" data-name="Pfad 2320" d="M9.773,269.2c-12.8-11.715-14.682-27.031,4.417-49.275,15.852-14.127,33.479-19.2,53.675-11.185,39,13.1,70.66.438,97.483-29.221,33.8-32.178,50.276-37.694,115.716-73.784C377.47,52.564,385.587,19.063,401.3,0c-1.669,39.66-31.7,70.985-111.54,118.855-52.4,27.937-87.235,49.723-114.513,80.9-29.864,30.618-64.063,43.525-104.136,32.433-10.032,14.354-7.236,27.7,10.226,40.5,2.53,1.854,14.679,8.871,12.772,11.019-7.216,8.131-13.092,17.708-19.949,32.666C66.92,332.161,57.272,358.824,53.6,358.289c-4.841-.7-12.671-7.163-15.532-12.1-.822-1.419,45.174-50.907,21.913-60.639-19.357-8.1-30.225-27.979-39.767-26.428-6.532,1.06-9.079,5.124-10.444,10.08m17.686-37.562c1.127-5.834,5.306-9.595,15.437-9.362.426,4.6-1.557,8.989-4.255,10.329-3.7,1.843-6.779,1.559-11.182-.968" transform="translate(136.993 0)" fill-rule="evenodd" fill="url(#linear-gradient)"/>
      <path id="Pfad_2321" data-name="Pfad 2321" d="M135.285,181.978c1.739-8.476,13.734-22.737,26.551-25.66-26.136-2.117-49.816-9.328-65.014-34.1-3.534,5.02-3.744,10.644,2.008,17.344C30.213,130.3,6.921,67.875,12.115,0-5.717,36.606-4.735,87.109,20.9,117.194c28.313,33.229,62.1,52.646,114.389,64.784" transform="translate(0.001 46.952)" fill-rule="evenodd" fill="url(#linear-gradient)"/>
      <path id="Pfad_2322" data-name="Pfad 2322" d="M29.993,89.628c-8.767-5-26.26-22.179-29.392-43C-2.763,24.285,8.523,8.237,21.514,0c-10.475,26-9.76,57.324,8.478,89.628" transform="translate(31.07 70.119)" fill-rule="evenodd" fill="url(#linear-gradient)"/>
      <path id="Pfad_2323" data-name="Pfad 2323" d="M23.456,86.043c1.189.766-4.064-9.558,4.114-14.691C9.848,41.472,10.569,23.581,13.9,0c-18.7,15.493-21.318,66.108,9.553,86.043" transform="translate(62.461 90.312)" fill-rule="evenodd" fill="url(#linear-gradient)"/>
    </g>
  </g>
</svg>
