<?xml version="1.0" encoding="UTF-8" standalone="no"?>
<!-- Generator: Adobe Illustrator 26.3.1, SVG Export Plug-In . SVG Version: 6.00 Build 0)  -->

<svg
   version="1.1"
   id="Ebene_1"
   x="0px"
   y="0px"
   viewBox="0 0 586.9 537.1"
   style="enable-background:new 0 0 586.9 537.1;"
   xml:space="preserve"
   xmlns:xlink="http://www.w3.org/1999/xlink"
   xmlns="http://www.w3.org/2000/svg"
   xmlns:svg="http://www.w3.org/2000/svg"><defs
   id="defs34"><linearGradient
     id="linear-gradient"
     x1="0.5"
     x2="0.5"
     y2="1"
     gradientUnits="objectBoundingBox"><stop
       offset="0"
       stop-color="#002f43"
       id="stop933" /><stop
       offset="0.522"
       stop-color="#002f43"
       id="stop935" /><stop
       offset="1"
       stop-color="#002f43"
       id="stop937" /></linearGradient><clipPath
     id="clip-path"><rect
       id="Rechteck_1170"
       data-name="Rechteck 1170"
       width="606.082"
       height="418.143"
       transform="translate(0 0.001)"
       fill="url(#linear-gradient)" /></clipPath><linearGradient
     xlink:href="#linear-gradient"
     id="linearGradient967"
     gradientUnits="userSpaceOnUse"
     x1="21.907238"
     x2="21.907238"
     y2="43.815254"
     gradientTransform="scale(0.59370262,1.6843449)"
     y1="0" /><linearGradient
     xlink:href="#linear-gradient"
     id="linearGradient969"
     gradientUnits="userSpaceOnUse"
     x1="28.782803"
     x2="28.782803"
     y2="57.568651"
     gradientTransform="scale(0.68990761,1.4494694)"
     y1="0" /><linearGradient
     xlink:href="#linear-gradient"
     id="linearGradient971"
     gradientUnits="userSpaceOnUse"
     x1="37.324893"
     x2="37.324893"
     y2="74.649626"
     gradientTransform="scale(0.92741156,1.0782699)"
     y1="0" /><linearGradient
     xlink:href="#linear-gradient"
     id="linearGradient973"
     gradientUnits="userSpaceOnUse"
     x1="31.549271"
     x2="31.549271"
     y2="63.098542"
     gradientTransform="scale(1.208253,0.82764125)"
     y1="0" /><linearGradient
     xlink:href="#linear-gradient"
     id="linearGradient975"
     gradientUnits="userSpaceOnUse"
     x1="37.880321"
     x2="37.880321"
     y2="75.762595"
     gradientTransform="scale(1.0466037,0.9554715)"
     y1="0.0019529738" /><linearGradient
     xlink:href="#linear-gradient"
     id="linearGradient977"
     gradientUnits="userSpaceOnUse"
     x1="97.260083"
     x2="97.260083"
     y2="194.51186"
     gradientTransform="scale(1.4510938,0.68913534)"
     y1="-3.2471514e-05" /><linearGradient
     xlink:href="#linear-gradient"
     id="linearGradient979"
     gradientUnits="userSpaceOnUse"
     x1="49.209038"
     x2="49.209038"
     y2="98.418077"
     gradientTransform="scale(1.8206208,0.54926319)"
     y1="0" /><linearGradient
     xlink:href="#linear-gradient"
     id="linearGradient981"
     gradientUnits="userSpaceOnUse"
     x1="66.924597"
     x2="66.924597"
     y2="133.84919"
     gradientTransform="scale(1.7339962,0.57670252)"
     y1="0" /><linearGradient
     xlink:href="#linear-gradient"
     id="linearGradient983"
     gradientUnits="userSpaceOnUse"
     x1="62.664934"
     x2="62.664934"
     y2="125.32987"
     gradientTransform="scale(1.7487771,0.57182817)"
     y1="0" /><linearGradient
     xlink:href="#linear-gradient"
     id="linearGradient985"
     gradientUnits="userSpaceOnUse"
     x1="46.09175"
     x2="46.09175"
     y2="92.183499"
     gradientTransform="scale(2.0781593,0.48119505)"
     y1="0" /><linearGradient
     xlink:href="#linear-gradient"
     id="linearGradient987"
     gradientUnits="userSpaceOnUse"
     x1="47.096113"
     x2="47.096113"
     y2="94.192226"
     gradientTransform="scale(1.9093083,0.52374988)"
     y1="0" /><linearGradient
     xlink:href="#linear-gradient"
     id="linearGradient989"
     gradientUnits="userSpaceOnUse"
     x1="43.314031"
     x2="43.314031"
     y2="86.628063"
     gradientTransform="scale(1.5473277,0.64627552)"
     y1="0" /><linearGradient
     xlink:href="#linear-gradient"
     id="linearGradient991"
     gradientUnits="userSpaceOnUse"
     x1="34.66944"
     x2="34.66944"
     y2="69.33888"
     gradientTransform="scale(1.1644982,0.85873899)"
     y1="0" /><linearGradient
     xlink:href="#linear-gradient"
     id="linearGradient993"
     gradientUnits="userSpaceOnUse"
     x1="187.32206"
     x2="187.32206"
     y2="374.64408"
     gradientTransform="scale(1.0583111,0.94490176)"
     y1="0" /><linearGradient
     xlink:href="#linear-gradient"
     id="linearGradient995"
     gradientUnits="userSpaceOnUse"
     x1="84.778234"
     x2="84.778234"
     y2="169.5568"
     gradientTransform="scale(0.94303004,1.0604116)"
     y1="0" /><linearGradient
     xlink:href="#linear-gradient"
     id="linearGradient997"
     gradientUnits="userSpaceOnUse"
     x1="25.613086"
     x2="25.613086"
     y2="51.225786"
     gradientTransform="scale(0.57847601,1.7286802)"
     y1="0" /><linearGradient
     xlink:href="#linear-gradient"
     id="linearGradient999"
     gradientUnits="userSpaceOnUse"
     x1="24.066883"
     x2="24.066883"
     y2="48.133138"
     gradientTransform="scale(0.56592659,1.7670136)"
     y1="0" /></defs>
	<style
   type="text/css"
   id="style2">
	.st0{clip-path:url(#SVGID_00000071556360722172720980000013797339799651417764_);}
	.st1{fill-rule:evenodd;clip-rule:evenodd;fill:#002f43;}
</style>
	
<g
   id="Gruppe_4147"
   data-name="Gruppe 4147"
   transform="matrix(0.82448335,-0.47601568,0.47601568,0.82448335,4.9397376,256.0382)"
   clip-path="url(#clip-path)"><path
     id="Pfad_2307"
     data-name="Pfad 2307"
     d="m 10.913,0 c -8.69,24.343 0.931,54.661 15.1,73.8 C 2.159,70.154 -10.424,40.036 10.913,0"
     transform="translate(232.612,332.935)"
     fill-rule="evenodd"
     fill="url(#linear-gradient)"
     style="fill:url(#linearGradient967)" /><path
     id="Pfad_2308"
     data-name="Pfad 2308"
     d="M 3.66,0 C -6.468,51.2 4.06,79.655 39.716,83.444 12.478,58.8 3.879,18.358 3.66,0"
     transform="translate(250.744,325.614)"
     fill-rule="evenodd"
     fill="url(#linear-gradient)"
     style="fill:url(#linearGradient969)" /><path
     id="Pfad_2309"
     data-name="Pfad 2309"
     d="M 0.845,0 C -6.409,46.523 34.46,86.5 69.231,79.744 28.062,63.382 12.727,25.4 0.845,0"
     transform="translate(266.048,328.355)"
     fill-rule="evenodd"
     fill="url(#linear-gradient)"
     style="fill:url(#linearGradient971)" /><path
     id="Pfad_2310"
     data-name="Pfad 2310"
     d="M 0,0 C 12.345,25.133 42.59,46.611 76.239,48.568 44.195,59.8 13.786,45.567 0,0"
     transform="translate(283.168,338.502)"
     fill-rule="evenodd"
     fill="url(#linear-gradient)"
     style="fill:url(#linearGradient973)" /><path
     id="Pfad_2311"
     data-name="Pfad 2311"
     d="M 46.761,40.022 C 39.88,36.209 33.8,37.035 25.2,41.646 20.728,44.046 18.1,40.138 15.975,40.066 10.136,39.866 9.1,43.233 8.158,49.357 0.091,40.8 7.889,36.17 14.725,33.524 c 0.826,-0.319 1.976,-2.618 3.68,-3.4 3.311,-1.51 4.927,-0.551 5.955,-0.9 3.431,-1.18 -1.674,-5.226 -6.49,-6.711 -4.816,-1.485 -5.218,-4.525 -4.2,-8.194 C 6.964,12.021 3.392,14.781 0,17.829 2.461,8.707 7.523,6.49 15.31,11.511 18.7,8.446 22.7,11.026 27.087,17.2 c 1.754,2.472 6.958,0.715 3.807,-3.749 -1.3,-1.837 1.7,-2.757 1.826,-3.1 C 30.537,4.115 26.363,3.309 21.514,4.3 c 7.7,-7.773 11.295,-4.209 15.969,4.356 3.55,-1.064 6.761,1.934 7.665,5.819 2.286,9.826 9.743,11.774 14.2,11.491 15.665,-1 22.936,7.213 18.8,26.012 -1.433,6.52 -2.813,7.257 -7.28,6.758 3.048,4.226 3.284,9.493 -6.955,13.653 3.68,-7.559 2.912,-12.982 -0.657,-13.16 -2.527,-0.812 -4.822,-1.6 -7.124,-7.551 -0.878,-5.007 -4.17,-8.773 -9.372,-11.655"
     transform="translate(91.787,345.756)"
     fill-rule="evenodd"
     fill="url(#linear-gradient)"
     style="fill:url(#linearGradient975)" /><path
     id="Pfad_2312"
     data-name="Pfad 2312"
     d="m 89.7,4.355 c 12.492,-7.809 29.982,-7.022 50.649,18.383 44.358,54.534 104.966,57.468 141.912,51.109 -19.924,17.322 -77.846,27.286 -115.333,3.256 -25.338,-16.244 -33,-35.6 -49.338,-42.9 C 88.969,21.4 83.28,59.063 73.607,74.972 c -10.48,17.233 -19.58,24.9 -31.878,25.513 -4.653,0.779 -4.885,8.612 -3.8,18.541 0.9,8.208 0.59,12.833 -7.606,15.019 3.547,-5.079 3.641,-7.867 1.976,-12.309 a 52.931,52.931 0 0 1 -3.547,-22.7 C 29.597,92.436 25.92,85.048 16.532,83.352 9.375,82.058 6.143,78.675 7.992,72.584 c 1.25,-4.1 -2.921,-5.844 -7.986,-3.849 1.53,-5.791 4.567,-9.15 15.576,0.394 3.558,3.7 7.69,7.908 12.517,12.741 2.02,2.148 9.934,7.418 14.31,5.991 C 49.237,85.63 53.773,71.47 59.348,56.075 68.494,30.791 78.664,11.249 89.7,4.355"
     transform="translate(150.319,282.465)"
     fill-rule="evenodd"
     fill="url(#linear-gradient)"
     style="fill:url(#linearGradient977)" /><path
     id="Pfad_2313"
     data-name="Pfad 2313"
     d="M 0,0 C 28.619,57.194 126.084,69.894 179.182,33.84 111.93,51.824 53.974,36.918 0,0"
     transform="translate(265.366,248.633)"
     fill-rule="evenodd"
     fill="url(#linear-gradient)"
     style="fill:url(#linearGradient979)" /><path
     id="Pfad_2314"
     data-name="Pfad 2314"
     d="M 0,41.657 C 21.223,31.687 37.653,20.5 54.123,0 70.173,31.562 130.467,61.553 232.094,34.474 145.864,116.9 16.222,57.49 0,41.657"
     transform="translate(274.14,199.566)"
     fill-rule="evenodd"
     fill="url(#linear-gradient)"
     style="fill:url(#linearGradient981)" /><path
     id="Pfad_2315"
     data-name="Pfad 2315"
     d="M 37.758,0 C 68.566,29.952 184.395,30.916 219.174,18 169.406,90.8 26.5,83.732 0,31.493 9.006,20.475 19.006,9.893 37.758,0"
     transform="translate(338.638,160.905)"
     fill-rule="evenodd"
     fill="url(#linear-gradient)"
     style="fill:url(#linearGradient983)" /><path
     id="Pfad_2316"
     data-name="Pfad 2316"
     d="M 32.615,0 C 83.333,24.058 158.028,14.975 191.572,3.9 167.356,56.3 33.585,53.093 0,21.046 2.192,17.164 19.12,6.761 32.615,0"
     transform="translate(385.587,132.087)"
     fill-rule="evenodd"
     fill="url(#linear-gradient)"
     style="fill:url(#linearGradient985)" /><path
     id="Pfad_2317"
     data-name="Pfad 2317"
     d="M 21.7,23.673 C 77.325,35.247 129.506,17.8 179.842,0 155.806,50.095 80.324,60.117 0,38.733 Z"
     transform="translate(426.241,88.687)"
     fill-rule="evenodd"
     fill="url(#linear-gradient)"
     style="fill:url(#linearGradient987)" /><path
     id="Pfad_2318"
     data-name="Pfad 2318"
     d="M 22,40.947 C 64.808,39.476 95.855,21.187 134.042,0 120.09,28.267 75.9,60.461 0,55.47 9.568,50.621 14.046,46.359 22,40.947"
     transform="translate(453.871,51.688)"
     fill-rule="evenodd"
     fill="url(#linear-gradient)"
     style="fill:url(#linearGradient989)" /><path
     id="Pfad_2319"
     data-name="Pfad 2319"
     d="M 23.371,41.648 C 50.047,29.849 56.149,22.218 80.745,0 75.549,28.974 54.825,47.157 0,59.544 Z"
     transform="translate(483.639,26.048)"
     fill-rule="evenodd"
     fill="url(#linear-gradient)"
     style="fill:url(#linearGradient991)" /><path
     id="Pfad_2320"
     data-name="Pfad 2320"
     d="M 9.656,265.971 C -2.991,254.4 -4.851,239.264 14.02,217.287 c 15.662,-13.958 33.078,-18.97 53.032,-11.051 38.531,12.943 69.813,0.432 96.315,-28.871 33.4,-31.792 49.673,-37.242 114.329,-72.9 C 372.947,51.935 380.966,18.835 396.49,0 c -1.649,39.185 -31.324,70.134 -110.2,117.43 -51.771,27.6 -86.19,49.127 -113.141,79.927 -29.506,30.251 -63.3,43 -102.888,32.044 -9.912,14.182 -7.149,27.372 10.1,40.019 2.5,1.832 14.5,8.765 12.619,10.887 -7.13,8.033 -12.935,17.5 -19.71,32.274 -7.152,15.6 -16.684,41.942 -20.309,41.413 -4.783,-0.7 -12.519,-7.077 -15.346,-11.96 -0.812,-1.4 44.633,-50.3 21.65,-59.912 -19.126,-8 -29.863,-27.644 -39.29,-26.111 -6.454,1.047 -8.97,5.063 -10.319,9.959 M 27.13,228.858 c 1.114,-5.764 5.243,-9.48 15.252,-9.25 0.421,4.544 -1.538,8.881 -4.2,10.206 -3.655,1.821 -6.7,1.541 -11.048,-0.956"
     transform="translate(135.352)"
     fill-rule="evenodd"
     fill="url(#linear-gradient)"
     style="fill:url(#linearGradient993)" /><path
     id="Pfad_2321"
     data-name="Pfad 2321"
     d="m 133.664,179.8 c 1.718,-8.374 13.57,-22.465 26.233,-25.352 -25.823,-2.092 -49.219,-9.216 -64.235,-33.7 -3.491,4.96 -3.7,10.516 1.984,17.136 C 29.851,128.736 6.838,67.061 11.97,0 -5.649,36.167 -4.679,86.065 20.646,115.79 48.619,148.621 82,167.8 133.664,179.8"
     transform="translate(0.001,46.39)"
     fill-rule="evenodd"
     fill="url(#linear-gradient)"
     style="fill:url(#linearGradient995)" /><path
     id="Pfad_2322"
     data-name="Pfad 2322"
     d="M 29.633,88.553 C 20.971,83.615 3.688,66.64 0.593,46.068 -2.729,23.994 8.421,8.139 21.256,0 10.906,25.69 11.613,56.637 29.633,88.553"
     transform="translate(30.697,69.279)"
     fill-rule="evenodd"
     fill="url(#linear-gradient)"
     style="fill:url(#linearGradient997)" /><path
     id="Pfad_2323"
     data-name="Pfad 2323"
     d="M 23.175,85.012 C 24.35,85.769 19.16,75.568 27.24,70.497 9.73,40.975 10.442,23.3 13.737,0 -4.737,15.307 -7.325,65.316 23.175,85.012"
     transform="translate(61.712,89.23)"
     fill-rule="evenodd"
     fill="url(#linear-gradient)"
     style="fill:url(#linearGradient999)" /></g></svg>
