<?xml version="1.0" encoding="UTF-8" standalone="no"?>
<svg
   width="529.39154"
   height="423.26938"
   viewBox="0 0 529.39153 423.26939"
   version="1.1"
   id="svg32"
   xmlns:xlink="http://www.w3.org/1999/xlink"
   xmlns="http://www.w3.org/2000/svg"
   xmlns:svg="http://www.w3.org/2000/svg">
  <defs
     id="defs11">
    <linearGradient
       id="linear-gradient"
       x1="0.5"
       x2="0.5"
       y2="1"
       gradientUnits="objectBoundingBox">
      <stop
         offset="0"
         stop-color="#ffe4b2"
         id="stop2" />
      <stop
         offset="0.527"
         stop-color="#ad7101"
         id="stop4" />
      <stop
         offset="1"
         stop-color="#fff"
         id="stop6" />
    </linearGradient>
    <clipPath
       id="clip-path">
      <rect
         id="Rechteck_1170"
         data-name="Rechteck 1170"
         width="537.44702"
         height="370.79099"
         fill="url(#linear-gradient)"
         x="0"
         y="0" />
    </clipPath>
    <linearGradient
       xlink:href="#linear-gradient"
       id="linearGradient885"
       gradientUnits="userSpaceOnUse"
       x1="160.8205"
       x2="160.8205"
       y2="110.1843"
       gradientTransform="scale(0.59369101,1.6843779)"
       y1="71.331381" />
    <linearGradient
       xlink:href="#linear-gradient"
       id="linearGradient887"
       gradientUnits="userSpaceOnUse"
       x1="156.68465"
       x2="156.68465"
       y2="132.11755"
       gradientTransform="scale(0.68990526,1.4494744)"
       y1="81.068697" />
    <linearGradient
       xlink:href="#linear-gradient"
       id="linearGradient889"
       gradientUnits="userSpaceOnUse"
       x1="136.62276"
       x2="136.62276"
       y2="176.09499"
       gradientTransform="scale(0.92741741,1.0782631)"
       y1="109.89896" />
    <linearGradient
       xlink:href="#linear-gradient"
       id="linearGradient891"
       gradientUnits="userSpaceOnUse"
       x1="112.55109"
       x2="112.55109"
       y2="203.55133"
       gradientTransform="scale(1.2082646,0.82763329)"
       y1="147.59919" />
    <linearGradient
       xlink:href="#linear-gradient"
       id="linearGradient893"
       gradientUnits="userSpaceOnUse"
       x1="65.239797"
       x2="65.239797"
       y2="197.7806"
       gradientTransform="scale(1.0466243,0.95545267)"
       y1="130.59783" />
    <linearGradient
       xlink:href="#linear-gradient"
       id="linearGradient895"
       gradientUnits="userSpaceOnUse"
       x1="123.62611"
       x2="123.62611"
       y2="320.40816"
       gradientTransform="scale(1.4511174,0.68912414)"
       y1="147.92453" />
    <linearGradient
       xlink:href="#linear-gradient"
       id="linearGradient897"
       gradientUnits="userSpaceOnUse"
       x1="96.236194"
       x2="96.236194"
       y2="250.63038"
       gradientTransform="scale(1.82063,0.54926043)"
       y1="163.35784" />
    <linearGradient
       xlink:href="#linear-gradient"
       id="linearGradient899"
       gradientUnits="userSpaceOnUse"
       x1="116.39895"
       x2="116.39895"
       y2="243.57243"
       gradientTransform="scale(1.7340062,0.5766992)"
       y1="124.88139" />
    <linearGradient
       xlink:href="#linear-gradient"
       id="linearGradient901"
       gradientUnits="userSpaceOnUse"
       x1="125.44779"
       x2="125.44779"
       y2="212.68262"
       gradientTransform="scale(1.7488032,0.57181963)"
       y1="101.54776" />
    <linearGradient
       xlink:href="#linear-gradient"
       id="linearGradient903"
       gradientUnits="userSpaceOnUse"
       x1="107.83031"
       x2="107.83031"
       y2="180.80151"
       gradientTransform="scale(2.0781587,0.48119521)"
       y1="99.057512" />
    <linearGradient
       xlink:href="#linear-gradient"
       id="linearGradient905"
       gradientUnits="userSpaceOnUse"
       x1="122.3281"
       x2="122.3281"
       y2="144.62341"
       gradientTransform="scale(1.9093079,0.52375)"
       y1="61.097852" />
    <linearGradient
       xlink:href="#linear-gradient"
       id="linearGradient907"
       gradientUnits="userSpaceOnUse"
       x1="144.26489"
       x2="144.26489"
       y2="105.67981"
       gradientTransform="scale(1.54731,0.64628292)"
       y1="28.861973" />
    <linearGradient
       xlink:href="#linear-gradient"
       id="linearGradient909"
       gradientUnits="userSpaceOnUse"
       x1="180.62342"
       x2="180.62342"
       y2="72.43191"
       gradientTransform="scale(1.1645002,0.85873754)"
       y1="10.946301" />
    <linearGradient
       xlink:href="#linear-gradient"
       id="linearGradient911"
       gradientUnits="userSpaceOnUse"
       x1="212.26326"
       x2="212.26326"
       y2="332.21737"
       gradientTransform="scale(1.0583105,0.94490228)"
       y1="0" />
    <linearGradient
       xlink:href="#linear-gradient"
       id="linearGradient913"
       gradientUnits="userSpaceOnUse"
       x1="75.177855"
       x2="75.177855"
       y2="166.14126"
       gradientTransform="scale(0.94303605,1.0604048)"
       y1="15.787367" />
    <linearGradient
       xlink:href="#linear-gradient"
       id="linearGradient915"
       gradientUnits="userSpaceOnUse"
       x1="41.858774"
       x2="41.858774"
       y2="59.88962"
       gradientTransform="scale(0.57849834,1.7286134)"
       y1="14.462459" />
    <linearGradient
       xlink:href="#linear-gradient"
       id="linearGradient917"
       gradientUnits="userSpaceOnUse"
       x1="60.696001"
       x2="60.696001"
       y2="60.899348"
       gradientTransform="scale(0.5658667,1.7672006)"
       y1="18.220908" />
  </defs>
  <g
     id="Gruppe_4150"
     data-name="Gruppe 4150"
     transform="matrix(0.985,-0.174,0.174,0.985,-13.679747,82.060662)">
    <g
       id="Gruppe_4147"
       data-name="Gruppe 4147"
       clip-path="url(#clip-path)">
      <path
         id="Pfad_2307"
         data-name="Pfad 2307"
         d="m 93.622,120.149 c -7.706,21.587 0.826,48.471 13.389,65.443 -21.152,-3.234 -32.31,-29.941 -13.389,-65.443"
         transform="translate(122.326,175.083)"
         fill-rule="evenodd"
         fill="url(#linear-gradient)"
         style="fill:url(#linearGradient885)" />
      <path
         id="Pfad_2308"
         data-name="Pfad 2308"
         d="m 93.734,117.507 c -8.981,45.4 0.359,70.635 31.973,73.994 -24.154,-21.857 -31.779,-57.715 -31.973,-73.994"
         transform="translate(131.861,171.233)"
         fill-rule="evenodd"
         fill="url(#linear-gradient)"
         style="fill:url(#linearGradient887)" />
      <path
         id="Pfad_2309"
         data-name="Pfad 2309"
         d="m 96.76,118.5 c -6.433,41.254 29.808,76.7 60.642,70.714 C 120.9,174.7 107.3,141.021 96.76,118.5"
         transform="translate(139.909,172.674)"
         fill-rule="evenodd"
         fill="url(#linear-gradient)"
         style="fill:url(#linearGradient889)" />
      <path
         id="Pfad_2310"
         data-name="Pfad 2310"
         d="m 102.189,122.158 c 10.947,22.287 37.767,41.333 67.605,43.068 -28.415,9.957 -55.381,-2.661 -67.605,-43.068"
         transform="translate(148.911,178.011)"
         fill-rule="evenodd"
         fill="url(#linear-gradient)"
         style="fill:url(#linearGradient891)" />
      <path
         id="Pfad_2311"
         data-name="Pfad 2311"
         d="m 74.589,160.266 c -6.1,-3.381 -11.495,-2.649 -19.12,1.44 -3.966,2.13 -6.3,-1.337 -8.18,-1.4 -5.177,-0.174 -6.1,2.809 -6.932,8.239 -7.153,-7.588 -0.238,-11.694 5.824,-14.041 0.732,-0.283 1.752,-2.322 3.263,-3.012 2.936,-1.339 4.369,-0.489 5.281,-0.8 3.042,-1.047 -1.484,-4.634 -5.755,-5.951 -4.271,-1.317 -4.627,-4.013 -3.72,-7.266 -5.951,-2.037 -9.119,0.41 -12.126,3.113 2.182,-8.089 6.671,-10.055 13.576,-5.6 3.008,-2.718 6.553,-0.43 10.443,5.045 1.555,2.192 6.17,0.634 3.376,-3.325 -1.15,-1.629 1.506,-2.445 1.619,-2.75 -1.936,-5.529 -5.637,-6.244 -9.937,-5.367 6.829,-6.892 10.016,-3.732 14.161,3.863 3.148,-0.944 6,1.715 6.8,5.16 2.027,8.713 8.64,10.441 12.593,10.19 13.891,-0.885 20.338,6.4 16.67,23.066 -1.27,5.782 -2.494,6.435 -6.455,5.993 2.7,3.747 2.912,8.418 -6.168,12.107 3.263,-6.7 2.583,-11.512 -0.582,-11.669 -2.241,-0.72 -4.276,-1.423 -6.318,-6.7 -0.779,-4.44 -3.7,-7.779 -8.31,-10.335"
         transform="translate(48.269,181.825)"
         fill-rule="evenodd"
         fill="url(#linear-gradient)"
         style="fill:url(#linearGradient893)" />
      <path
         id="Pfad_2312"
         data-name="Pfad 2312"
         d="m 133.789,105.8 c 11.077,-6.924 26.587,-6.227 44.913,16.3 39.335,48.358 93.079,50.96 125.841,45.321 -17.667,15.36 -69.03,24.2 -102.272,2.887 -22.469,-14.4 -29.263,-31.565 -43.751,-38.043 -25.381,-11.35 -30.425,22.046 -39,36.153 -9.293,15.281 -17.363,22.078 -28.268,22.624 -4.126,0.691 -4.332,7.637 -3.374,16.441 0.794,7.278 0.523,11.379 -6.745,13.318 3.145,-4.5 3.229,-6.976 1.752,-10.915 A 46.937,46.937 0 0 1 79.74,189.757 c 0.749,-5.851 -2.511,-12.4 -10.836,-13.908 -6.347,-1.147 -9.212,-4.148 -7.573,-9.549 1.108,-3.639 -2.59,-5.182 -7.082,-3.413 1.356,-5.136 4.049,-8.114 13.812,0.349 3.155,3.278 6.819,7.013 11.1,11.3 1.791,1.9 8.809,6.578 12.689,5.313 6.055,-1.978 10.077,-14.534 15.021,-28.187 8.116,-22.42 17.134,-39.748 26.921,-45.861"
         transform="translate(79.05,148.542)"
         fill-rule="evenodd"
         fill="url(#linear-gradient)"
         style="fill:url(#linearGradient895)" />
      <path
         id="Pfad_2313"
         data-name="Pfad 2313"
         d="m 95.765,89.726 c 25.378,50.717 111.806,61.978 158.891,30.008 -59.637,15.947 -111.029,2.73 -158.891,-30.008"
         transform="translate(139.55,130.75)"
         fill-rule="evenodd"
         fill="url(#linear-gradient)"
         style="fill:url(#linearGradient897)" />
      <path
         id="Pfad_2314"
         data-name="Pfad 2314"
         d="m 98.931,108.958 c 18.82,-8.841 33.389,-18.763 47.994,-36.939 14.232,27.988 67.7,54.582 157.817,30.57 -76.466,73.09 -191.427,20.41 -205.811,6.369"
         transform="translate(144.164,104.947)"
         fill-rule="evenodd"
         fill="url(#linear-gradient)"
         style="fill:url(#linearGradient899)" />
      <path
         id="Pfad_2315"
         data-name="Pfad 2315"
         d="m 155.689,58.067 c 27.319,26.56 130.031,27.415 160.871,15.957 -44.132,64.556 -170.855,58.293 -194.353,11.969 7.986,-9.77 16.854,-19.154 33.482,-27.926"
         transform="translate(178.082,84.616)"
         fill-rule="evenodd"
         fill="url(#linear-gradient)"
         style="fill:url(#linearGradient901)" />
      <path
         id="Pfad_2316"
         data-name="Pfad 2316"
         d="m 168.071,47.667 c 44.975,21.333 111.212,13.279 140.956,3.462 -21.474,46.459 -140.1,43.618 -169.877,15.2 1.944,-3.443 16.955,-12.667 28.921,-18.663"
         transform="translate(202.772,69.461)"
         fill-rule="evenodd"
         fill="url(#linear-gradient)"
         style="fill:url(#linearGradient903)" />
      <path
         id="Pfad_2317"
         data-name="Pfad 2317"
         d="M 173.063,53 C 222.39,63.261 268.661,47.79 313.3,32 291.986,76.422 225.052,85.309 153.824,66.347 Z"
         transform="translate(224.15,46.638)"
         fill-rule="evenodd"
         fill="url(#linear-gradient)"
         style="fill:url(#linearGradient905)" />
      <path
         id="Pfad_2318"
         data-name="Pfad 2318"
         d="m 183.3,54.963 c 37.959,-1.3 65.49,-17.522 99.353,-36.31 -12.37,25.066 -51.553,53.614 -118.861,49.189 8.485,-4.3 12.456,-8.079 19.51,-12.878"
         transform="translate(238.68,27.181)"
         fill-rule="evenodd"
         fill="url(#linear-gradient)"
         style="fill:url(#linearGradient907)" />
      <path
         id="Pfad_2319"
         data-name="Pfad 2319"
         d="M 195.259,46.332 C 218.915,35.869 224.325,29.1 246.136,9.4 c -4.607,25.693 -22.985,41.817 -71.6,52.8 z"
         transform="translate(254.335,13.698)"
         fill-rule="evenodd"
         fill="url(#linear-gradient)"
         style="fill:url(#linearGradient909)" />
      <path
         id="Pfad_2320"
         data-name="Pfad 2320"
         d="m 57.408,235.851 c -11.215,-10.264 -12.863,-23.683 3.87,-43.171 13.888,-12.377 29.332,-16.822 47.026,-9.8 34.168,11.478 61.907,0.383 85.408,-25.6 C 223.329,129.088 237.76,124.255 295.094,92.636 379.558,46.053 386.67,16.7 400.435,0 c -1.462,34.747 -27.776,62.192 -97.723,104.132 -45.912,24.476 -76.43,43.568 -100.329,70.876 -26.165,26.825 -56.128,38.134 -91.236,28.415 -8.789,12.576 -6.34,24.272 8.959,35.487 2.216,1.624 12.861,7.772 11.19,9.654 -6.322,7.123 -11.47,15.515 -17.478,28.619 -6.342,13.832 -14.795,37.192 -18.009,36.723 -4.241,-0.617 -11.1,-6.276 -13.608,-10.605 -0.72,-1.243 39.578,-44.6 19.2,-53.127 C 84.441,243.08 74.92,225.661 66.56,227.02 c -5.723,0.929 -7.954,4.489 -9.151,8.831 m 15.5,-32.91 c 0.988,-5.111 4.649,-8.406 13.525,-8.2 0.373,4.03 -1.364,7.875 -3.728,9.05 -3.241,1.614 -5.939,1.366 -9.8,-0.848"
         transform="translate(71.178)"
         fill-rule="evenodd"
         fill="url(#linear-gradient)"
         style="fill:url(#linearGradient911)" />
      <path
         id="Pfad_2321"
         data-name="Pfad 2321"
         d="m 118.528,176.177 c 1.523,-7.426 12.033,-19.921 23.262,-22.481 -22.9,-1.855 -43.645,-8.173 -56.961,-29.88 -3.1,4.4 -3.28,9.325 1.759,15.2 C 26.471,130.9 6.064,76.208 10.615,16.741 -5.008,48.813 -4.148,93.06 18.308,119.418 c 24.806,29.113 54.405,46.124 100.22,56.759"
         transform="translate(0.001,24.395)"
         fill-rule="evenodd"
         fill="url(#linear-gradient)"
         style="fill:url(#linearGradient913)" />
      <path
         id="Pfad_2322"
         data-name="Pfad 2322"
         d="M 37.355,103.526 C 29.674,99.147 14.349,84.095 11.6,65.852 8.658,46.278 18.545,32.218 29.927,25 c -9.178,22.781 -8.551,50.223 7.428,78.525"
         transform="translate(16.143,36.432)"
         fill-rule="evenodd"
         fill="url(#linear-gradient)"
         style="fill:url(#linearGradient915)" />
      <path
         id="Pfad_2323"
         data-name="Pfad 2323"
         d="m 42.821,107.586 c 1.042,0.671 -3.561,-8.374 3.6,-12.871 C 30.9,68.536 31.53,52.861 34.452,32.2 18.07,45.775 15.775,90.12 42.821,107.586"
         transform="translate(32.453,46.924)"
         fill-rule="evenodd"
         fill="url(#linear-gradient)"
         style="fill:url(#linearGradient917)" />
    </g>
  </g>
</svg>
