<?xml version="1.0" encoding="UTF-8" standalone="no"?>
<svg
   width="529.39154"
   height="423.26938"
   viewBox="0 0 529.39153 423.26939"
   version="1.1"
   id="svg32"
   xmlns:xlink="http://www.w3.org/1999/xlink"
   xmlns="http://www.w3.org/2000/svg"
   xmlns:svg="http://www.w3.org/2000/svg">
  <defs
     id="defs11">
    <linearGradient
       id="linear-gradient"
       x1="0.5"
       x2="0.5"
       y2="1"
       gradientUnits="objectBoundingBox">
      <stop
         offset="0"
         stop-color="#ffe4b2"
         id="stop2" />
      <stop
         offset="0.527"
         stop-color="#ad7101"
         id="stop4" />
      <stop
         offset="1"
         stop-color="#fff"
         id="stop6" />
    </linearGradient>
    <clipPath
       id="clip-path">
      <rect
         id="Rechteck_1170"
         data-name="Rechteck 1170"
         width="537.44702"
         height="370.79099"
         fill="url(#linear-gradient)"
         x="0"
         y="0" />
    </clipPath>
    <linearGradient
       xlink:href="#linear-gradient"
       id="linearGradient885"
       gradientUnits="userSpaceOnUse"
       x1="160.8205"
       x2="160.8205"
       y2="110.1843"
       gradientTransform="scale(0.59369101,1.6843779)"
       y1="71.331381" />
    <linearGradient
       xlink:href="#linear-gradient"
       id="linearGradient887"
       gradientUnits="userSpaceOnUse"
       x1="156.68465"
       x2="156.68465"
       y2="132.11755"
       gradientTransform="scale(0.68990526,1.4494744)"
       y1="81.068697" />
    <linearGradient
       xlink:href="#linear-gradient"
       id="linearGradient889"
       gradientUnits="userSpaceOnUse"
       x1="136.62276"
       x2="136.62276"
       y2="176.09499"
       gradientTransform="scale(0.92741741,1.0782631)"
       y1="109.89896" />
    <linearGradient
       xlink:href="#linear-gradient"
       id="linearGradient891"
       gradientUnits="userSpaceOnUse"
       x1="112.55109"
       x2="112.55109"
       y2="203.55133"
       gradientTransform="scale(1.2082646,0.82763329)"
       y1="147.59919" />
    <linearGradient
       xlink:href="#linear-gradient"
       id="linearGradient893"
       gradientUnits="userSpaceOnUse"
       x1="65.239797"
       x2="65.239797"
       y2="197.7806"
       gradientTransform="scale(1.0466243,0.95545267)"
       y1="130.59783" />
    <linearGradient
       xlink:href="#linear-gradient"
       id="linearGradient895"
       gradientUnits="userSpaceOnUse"
       x1="123.62611"
       x2="123.62611"
       y2="320.40816"
       gradientTransform="scale(1.4511174,0.68912414)"
       y1="147.92453" />
    <linearGradient
       xlink:href="#linear-gradient"
       id="linearGradient897"
       gradientUnits="userSpaceOnUse"
       x1="96.236194"
       x2="96.236194"
       y2="250.63038"
       gradientTransform="scale(1.82063,0.54926043)"
       y1="163.35784" />
    <linearGradient
       xlink:href="#linear-gradient"
       id="linearGradient899"
       gradientUnits="userSpaceOnUse"
       x1="116.39895"
       x2="116.39895"
       y2="243.57243"
       gradientTransform="scale(1.7340062,0.5766992)"
       y1="124.88139" />
    <linearGradient
       xlink:href="#linear-gradient"
       id="linearGradient901"
       gradientUnits="userSpaceOnUse"
       x1="125.44779"
       x2="125.44779"
       y2="212.68262"
       gradientTransform="scale(1.7488032,0.57181963)"
       y1="101.54776" />
    <linearGradient
       xlink:href="#linear-gradient"
       id="linearGradient903"
       gradientUnits="userSpaceOnUse"
       x1="107.83031"
       x2="107.83031"
       y2="180.80151"
       gradientTransform="scale(2.0781587,0.48119521)"
       y1="99.057512" />
    <linearGradient
       xlink:href="#linear-gradient"
       id="linearGradient905"
       gradientUnits="userSpaceOnUse"
       x1="122.3281"
       x2="122.3281"
       y2="144.62341"
       gradientTransform="scale(1.9093079,0.52375)"
       y1="61.097852" />
    <linearGradient
       xlink:href="#linear-gradient"
       id="linearGradient907"
       gradientUnits="userSpaceOnUse"
       x1="144.26489"
       x2="144.26489"
       y2="105.67981"
       gradientTransform="scale(1.54731,0.64628292)"
       y1="28.861973" />
    <linearGradient
       xlink:href="#linear-gradient"
       id="linearGradient909"
       gradientUnits="userSpaceOnUse"
       x1="180.62342"
       x2="180.62342"
       y2="72.43191"
       gradientTransform="scale(1.1645002,0.85873754)"
       y1="10.946301" />
    <linearGradient
       xlink:href="#linear-gradient"
       id="linearGradient911"
       gradientUnits="userSpaceOnUse"
       x1="212.26326"
       x2="212.26326"
       y2="332.21737"
       gradientTransform="scale(1.0583105,0.94490228)"
       y1="0" />
    <linearGradient
       xlink:href="#linear-gradient"
       id="linearGradient913"
       gradientUnits="userSpaceOnUse"
       x1="75.177855"
       x2="75.177855"
       y2="166.14126"
       gradientTransform="scale(0.94303605,1.0604048)"
       y1="15.787367" />
    <linearGradient
       xlink:href="#linear-gradient"
       id="linearGradient915"
       gradientUnits="userSpaceOnUse"
       x1="41.858774"
       x2="41.858774"
       y2="59.88962"
       gradientTransform="scale(0.57849834,1.7286134)"
       y1="14.462459" />
    <linearGradient
       xlink:href="#linear-gradient"
       id="linearGradient917"
       gradientUnits="userSpaceOnUse"
       x1="60.696001"
       x2="60.696001"
       y2="60.899348"
       gradientTransform="scale(0.5658667,1.7672006)"
       y1="18.220908" />
    <clipPath
       id="clip-path-6">
      <rect
         id="Rechteck_1170-1"
         data-name="Rechteck 1170"
         width="537.447"
         height="370.791"
         transform="translate(0 0)"
         fill="#204e62" />
    </clipPath>
  </defs>
  <g
     id="Gruppe_4147-5"
     data-name="Gruppe 4147"
     transform="matrix(-0.985,-0.174,0.174,-0.985,478.55148,447.29159)"
     clip-path="url(#clip-path-6)">
    <path
       id="Pfad_2307-9"
       data-name="Pfad 2307"
       d="M 9.677,65.443 C 1.971,43.856 10.5,16.972 23.067,0 1.915,3.234 -9.243,29.941 9.677,65.443"
       transform="translate(206.27,10.116)"
       fill="#204e62"
       fill-rule="evenodd" />
    <path
       id="Pfad_2308-4"
       data-name="Pfad 2308"
       d="M 3.246,73.994 C -5.735,28.59 3.6,3.359 35.219,0 11.065,21.857 3.44,57.715 3.246,73.994"
       transform="translate(222.348,8.057)"
       fill="#204e62"
       fill-rule="evenodd" />
    <path
       id="Pfad_2309-9"
       data-name="Pfad 2309"
       d="M 0.749,71.377 C -5.684,30.123 30.558,-5.325 61.391,0.663 24.884,15.173 11.286,48.852 0.749,71.377"
       transform="translate(235.92,8.244)"
       fill="#204e62"
       fill-rule="evenodd" />
    <path
       id="Pfad_2310-0"
       data-name="Pfad 2310"
       d="M 0,46.307 C 10.947,24.02 37.767,4.974 67.605,3.24 39.19,-6.717 12.225,5.9 0,46.307"
       transform="translate(251.1,24.316)"
       fill="#204e62"
       fill-rule="evenodd" />
    <path
       id="Pfad_2311-9"
       data-name="Pfad 2311"
       d="m 41.465,28.7 c -6.1,3.381 -11.495,2.649 -19.12,-1.44 -3.966,-2.13 -6.3,1.337 -8.18,1.4 C 8.988,28.834 8.065,25.851 7.233,20.421 0.081,28.01 7,32.116 13.058,34.463 c 0.732,0.283 1.752,2.322 3.263,3.012 2.936,1.339 4.369,0.489 5.281,0.8 3.042,1.047 -1.484,4.634 -5.755,5.951 -4.271,1.317 -4.627,4.013 -3.72,7.266 C 6.175,53.531 3.008,51.083 0,48.38 c 2.182,8.089 6.671,10.055 13.576,5.6 3.008,2.718 6.553,0.43 10.443,-5.045 1.555,-2.192 6.17,-0.634 3.376,3.325 -1.15,1.629 1.506,2.445 1.619,2.75 -1.936,5.529 -5.637,6.244 -9.937,5.367 6.829,6.892 10.016,3.732 14.161,-3.863 3.148,0.944 6,-1.715 6.8,-5.16 2.027,-8.713 8.64,-10.441 12.593,-10.19 13.891,0.885 20.338,-6.4 16.67,-23.066 -1.27,-5.782 -2.494,-6.435 -6.455,-5.993 2.7,-3.745 2.909,-8.417 -6.17,-12.105 3.263,6.7 2.583,11.512 -0.582,11.669 -2.241,0.72 -4.276,1.423 -6.318,6.7 -0.779,4.44 -3.7,7.779 -8.31,10.335"
       transform="translate(81.393)"
       fill="#204e62"
       fill-rule="evenodd" />
    <path
       id="Pfad_2312-1"
       data-name="Pfad 2312"
       d="m 79.542,115 c 11.077,6.924 26.587,6.227 44.913,-16.3 39.335,-48.358 93.079,-50.96 125.841,-45.321 -17.667,-15.36 -69.03,-24.2 -102.272,-2.887 -22.469,14.4 -29.263,31.565 -43.751,38.043 C 78.892,99.885 73.848,66.489 65.273,52.382 55.978,37.1 47.908,30.3 37,29.759 32.874,29.068 32.668,22.122 33.626,13.318 34.423,6.04 34.153,1.939 26.884,0 c 3.145,4.5 3.229,6.976 1.752,10.915 A 46.937,46.937 0 0 0 25.491,31.044 C 26.24,36.895 22.98,43.444 14.655,44.952 8.308,46.1 5.443,49.1 7.082,54.5 8.19,58.14 4.492,59.683 0,57.914 c 1.356,5.136 4.049,8.114 13.812,-0.349 3.155,-3.278 6.819,-7.013 11.1,-11.3 1.791,-1.9 8.809,-6.578 12.689,-5.312 6.055,1.978 10.077,14.534 15.021,28.187 8.115,22.421 17.133,39.749 26.92,45.86"
       transform="translate(133.297,1.45)"
       fill="#204e62"
       fill-rule="evenodd" />
    <path
       id="Pfad_2313-7"
       data-name="Pfad 2313"
       d="M 0,47.935 C 25.378,-2.782 111.806,-14.043 158.891,17.928 99.254,1.981 47.862,15.2 0,47.935"
       transform="translate(235.315,102.38)"
       fill="#204e62"
       fill-rule="evenodd" />
    <path
       id="Pfad_2314-7"
       data-name="Pfad 2314"
       d="M 0,31.51 C 18.82,40.351 33.389,50.273 47.994,68.449 62.226,40.461 115.694,13.867 205.811,37.879 129.345,-35.211 14.385,17.469 0,31.51"
       transform="translate(243.095,125.376)"
       fill="#204e62"
       fill-rule="evenodd" />
    <path
       id="Pfad_2315-1"
       data-name="Pfad 2315"
       d="M 33.482,63.549 C 60.8,36.989 163.513,36.134 194.353,47.592 150.222,-16.964 23.5,-10.7 0,35.623 c 7.986,9.77 16.854,19.154 33.482,27.926"
       transform="translate(300.289,164.559)"
       fill="#204e62"
       fill-rule="evenodd" />
    <path
       id="Pfad_2316-1"
       data-name="Pfad 2316"
       d="M 28.921,39.334 C 73.9,18 140.133,26.055 169.877,35.872 148.4,-10.587 29.781,-7.746 0,20.671 1.944,24.114 16.955,33.338 28.921,39.334"
       transform="translate(341.921,214.329)"
       fill="#204e62"
       fill-rule="evenodd" />
    <path
       id="Pfad_2317-5"
       data-name="Pfad 2317"
       d="m 19.242,22.755 c 49.326,-10.264 95.6,5.207 140.233,20.992 C 138.162,-0.675 71.227,-9.563 0,9.4 Z"
       transform="translate(377.971,248.402)"
       fill="#204e62"
       fill-rule="evenodd" />
    <path
       id="Pfad_2318-9"
       data-name="Pfad 2318"
       d="M 19.51,13.335 C 57.469,14.635 85,30.857 118.863,49.645 106.491,24.58 67.306,-3.968 0,0.457 c 8.485,4.3 12.456,8.079 19.51,12.878"
       transform="translate(402.472,275.311)"
       fill="#204e62"
       fill-rule="evenodd" />
    <path
       id="Pfad_2319-7"
       data-name="Pfad 2319"
       d="M 20.724,15.869 C 44.38,26.332 49.791,33.1 71.6,52.8 66.994,27.108 48.616,10.984 0,0 Z"
       transform="translate(428.87,294.893)"
       fill="#204e62"
       fill-rule="evenodd" />
    <path
       id="Pfad_2320-7"
       data-name="Pfad 2320"
       d="m 8.562,78.063 c -11.215,10.264 -12.862,23.682 3.87,43.171 13.888,12.377 29.332,16.822 47.026,9.8 34.168,-11.478 61.907,-0.383 85.408,25.6 29.617,28.192 44.048,33.025 101.382,64.644 84.464,46.581 91.576,75.933 105.341,92.635 C 350.127,279.166 323.813,251.721 253.866,209.781 207.958,185.305 177.437,166.217 153.538,138.905 127.373,112.081 97.41,100.772 62.3,110.491 53.512,97.915 55.962,86.218 71.26,75 73.476,73.376 84.121,67.228 82.45,65.346 76.128,58.226 70.98,49.834 64.972,36.73 58.63,22.9 50.178,-0.462 46.964,0.007 c -4.241,0.617 -11.1,6.276 -13.608,10.605 -0.72,1.243 39.578,44.6 19.2,53.127 C 35.596,70.833 26.075,88.252 17.715,86.893 11.992,85.964 9.761,82.404 8.564,78.062 m 15.5,32.91 c 0.988,5.111 4.649,8.406 13.525,8.2 0.373,-4.03 -1.364,-7.875 -3.728,-9.05 -3.241,-1.614 -5.939,-1.366 -9.8,0.848"
       transform="translate(120.024,56.878)"
       fill="#204e62"
       fill-rule="evenodd" />
    <path
       id="Pfad_2321-6"
       data-name="Pfad 2321"
       d="m 118.528,0 c 1.523,7.426 12.033,19.921 23.262,22.481 -22.9,1.855 -43.645,8.173 -56.961,29.88 -3.1,-4.4 -3.28,-9.325 1.759,-15.2 C 26.47,45.279 6.063,99.969 10.614,159.436 -5.009,127.365 -4.149,83.118 18.308,56.759 43.113,27.646 72.713,10.635 118.528,0"
       transform="translate(0.001,170.219)"
       fill="#204e62"
       fill-rule="evenodd" />
    <path
       id="Pfad_2322-7"
       data-name="Pfad 2322"
       d="M 26.277,0 C 18.6,4.379 3.271,19.432 0.526,37.674 -2.42,57.248 7.467,71.308 18.849,78.525 9.672,55.744 10.3,28.3 26.277,0"
       transform="translate(27.221,230.833)"
       fill="#204e62"
       fill-rule="evenodd" />
    <path
       id="Pfad_2323-3"
       data-name="Pfad 2323"
       d="m 20.551,0.035 c 1.042,-0.671 -3.561,8.374 3.6,12.871 C 8.628,39.085 9.26,54.76 12.181,75.42 -4.2,61.847 -6.5,17.5 20.551,0.035"
       transform="translate(54.724,216.246)"
       fill="#204e62"
       fill-rule="evenodd" />
  </g>
</svg>
