<?xml version="1.0" encoding="UTF-8" standalone="no"?>
<svg
   class="MuiSvgIcon-root MuiSvgIcon-fontSizeMedium MuiBox-root css-1om0hkc"
   focusable="false"
   viewBox="0 0 24 24"
   aria-hidden="true"
   data-testid="AccountBoxIcon"
   version="1.1"
   id="svg4"
   xmlns="http://www.w3.org/2000/svg"
   xmlns:svg="http://www.w3.org/2000/svg">
  <defs
     id="defs8">
    <linearGradient
       id="linear-gradient"
       x1="7.5172691"
       y1="4.2097636"
       x2="7.5172691"
       y2="15.034631"
       gradientUnits="userSpaceOnUse"
       gradientTransform="matrix(1.1972432,0,0,0.97221476,3,1.0438238)">
      <stop
         offset="0"
         stop-color="#00ffeb"
         id="stop1535" />
      <stop
         offset="1"
         stop-color="#00e63e"
         id="stop1537" />
    </linearGradient>
    <linearGradient
       id="linear-gradient-9"
       x1="7.1571342"
       y1="4.0079952"
       x2="7.1571342"
       y2="14.314268"
       gradientUnits="userSpaceOnUse"
       gradientTransform="matrix(1.2480553,0,0,0.93598714,3.0675002,0.4373409)">
      <stop
         offset="0"
         stop-color="#00ffeb"
         id="stop1685" />
      <stop
         offset="1"
         stop-color="#00e63e"
         id="stop1687" />
    </linearGradient>
    <linearGradient
       id="linear-gradient-4"
       x1="6.927"
       y1="3.87912"
       x2="6.927"
       y2="13.854"
       gradientUnits="userSpaceOnUse"
       gradientTransform="matrix(1.2996644,0,0,1.2996644,2.9972254,2.9972245)">
      <stop
         offset="0"
         stop-color="#00ffeb"
         id="stop1811" />
      <stop
         offset="1"
         stop-color="#00e63e"
         id="stop1813" />
    </linearGradient>
  </defs>
  <path
     id="Icon_simple-micro-dot-blog"
     data-name="Icon simple-micro-dot-blog"
     d="m 19.051979,16.275896 a 3.5857739,3.5857739 0 0 0 -0.224842,4.426657 c 0.224842,0.300222 -0.07538,0.300222 -0.224842,0.300222 a 4.5007377,4.5007377 0 0 1 -2.998326,-2.019678 c -0.149461,-0.07538 -0.224842,-0.149462 -0.375603,-0.07538 A 9.3315901,9.3315901 0 0 1 12.0026,19.357401 C 7.0482791,19.352201 2.9972253,15.750832 2.9972253,11.250094 2.9972253,6.7493564 7.0482791,2.9972254 12,2.9972254 c 4.951721,0 9.002775,3.6754508 9.002775,8.2528686 a 7.7979861,7.7979861 0 0 1 -1.950796,5.025803 z M 12,13.499813 l 2.40048,1.650573 a 0.30022247,0.30022247 0 0 0 0.449684,-0.300222 L 13.950796,12 l 2.3251,-1.800035 A 0.30022247,0.30022247 0 0 0 16.123835,9.755479 H 13.19959 L 12.224842,6.8962175 a 0.30022247,0.30022247 0 0 0 -0.449683,0 L 10.795212,9.755479 H 7.7981854 a 0.30022247,0.30022247 0 0 0 -0.075381,0.519866 L 9.973823,12.07538 9.2239167,14.850164 a 0.30022247,0.30022247 0 0 0 0.375603,0.300222 z"
     fill="url(#linear-gradient)"
     style="fill:url(#linear-gradient-4);stroke-width:1.29966" />
</svg>
