<?xml version="1.0" encoding="UTF-8" standalone="no"?>
<svg
   class="MuiSvgIcon-root MuiSvgIcon-fontSizeMedium MuiBox-root css-1om0hkc"
   focusable="false"
   viewBox="0 0 24 24"
   aria-hidden="true"
   data-testid="AccountBoxIcon"
   version="1.1"
   id="svg4"
   xmlns:xlink="http://www.w3.org/1999/xlink"
   xmlns="http://www.w3.org/2000/svg"
   xmlns:svg="http://www.w3.org/2000/svg">
  <defs
     id="defs8">
    <linearGradient
       id="linear-gradient"
       x1="7.5172691"
       y1="4.2097636"
       x2="7.5172691"
       y2="15.034631"
       gradientUnits="userSpaceOnUse"
       gradientTransform="matrix(1.1972432,0,0,0.97221476,3,1.0438238)">
      <stop
         offset="0"
         stop-color="#00ffeb"
         id="stop1535" />
      <stop
         offset="1"
         stop-color="#00e63e"
         id="stop1537" />
    </linearGradient>
    <linearGradient
       id="linear-gradient-9"
       x1="7.1571342"
       y1="4.0079952"
       x2="7.1571342"
       y2="14.314268"
       gradientUnits="userSpaceOnUse"
       gradientTransform="matrix(1.2480553,0,0,0.93598714,3.0675002,0.4373409)">
      <stop
         offset="0"
         stop-color="#00ffeb"
         id="stop1685" />
      <stop
         offset="1"
         stop-color="#00e63e"
         id="stop1687" />
    </linearGradient>
    <linearGradient
       id="linear-gradient-4"
       x1="6.927"
       y1="3.87912"
       x2="6.927"
       y2="13.854"
       gradientUnits="userSpaceOnUse"
       gradientTransform="matrix(1.2996644,0,0,1.2996644,2.9972254,2.9972245)">
      <stop
         offset="0"
         stop-color="#00ffeb"
         id="stop1811" />
      <stop
         offset="1"
         stop-color="#00e63e"
         id="stop1813" />
    </linearGradient>
    <linearGradient
       id="linear-gradient-90"
       x1="0.5"
       y1="0.28"
       x2="0.5"
       y2="1"
       gradientUnits="objectBoundingBox">
      <stop
         offset="0"
         stop-color="#00ffeb"
         id="stop1940" />
      <stop
         offset="1"
         stop-color="#00e63e"
         id="stop1942" />
    </linearGradient>
    <linearGradient
       xlink:href="#linear-gradient-90"
       id="linearGradient1959"
       gradientUnits="userSpaceOnUse"
       x1="21.049383"
       y1="5.3507644"
       x2="21.049383"
       y2="8.1657843"
       gradientTransform="scale(1.0788443,0.92691784)" />
    <linearGradient
       xlink:href="#linear-gradient-90"
       id="linearGradient1961"
       gradientUnits="userSpaceOnUse"
       x1="14.779435"
       y1="7.0126302"
       x2="14.779435"
       y2="16.216472"
       gradientTransform="scale(0.87185333,1.1469819)" />
  </defs>
  <g
     id="g1957"
     transform="matrix(1.2216341,0,0,1.2216341,5.192444,3.0442004)">
    <path
       id="Pfad_2299"
       data-name="Pfad 2299"
       d="m 21.3,7.569 h 3.335 a 0.181,0.181 0 0 0 0.183,-0.183 v 0 A 1.085,1.085 0 0 0 24.426,6.547 l -2.8,-2.331 A 1.177,1.177 0 0 0 20.871,3.945 v 0 A 0.271,0.271 0 0 0 20.6,4.216 v 2.657 a 0.7,0.7 0 0 0 0.7,0.696 z"
       transform="translate(-13.674,-3.941)"
       fill="url(#linear-gradient)"
       style="fill:url(#linearGradient1959)" />
    <path
       id="Pfad_2300"
       data-name="Pfad 2300"
       d="M 13.287,6.87 V 3.938 h -4.8 A 1.176,1.176 0 0 0 7.313,5.11 V 17.425 A 1.176,1.176 0 0 0 8.485,18.6 h 8.8 a 1.176,1.176 0 0 0 1.173,-1.173 V 8.519 H 14.936 A 1.652,1.652 0 0 1 13.287,6.87 Z"
       transform="translate(-7.313,-3.938)"
       fill="url(#linear-gradient)"
       style="fill:url(#linearGradient1961)" />
  </g>
</svg>
