<?xml version="1.0" encoding="UTF-8" standalone="no"?>
<svg
   class="MuiSvgIcon-root MuiSvgIcon-fontSizeMedium MuiBox-root css-1om0hkc"
   focusable="false"
   viewBox="0 0 24 24"
   aria-hidden="true"
   data-testid="AccountBoxIcon"
   version="1.1"
   id="svg4"
   xmlns="http://www.w3.org/2000/svg"
   xmlns:svg="http://www.w3.org/2000/svg">
  <defs
     id="defs8">
    <linearGradient
       id="linear-gradient"
       x1="6.82"
       y1="-0.55799998"
       x2="17.700999"
       y2="30.070001"
       gradientUnits="userSpaceOnUse">
      <stop
         offset="0"
         stop-color="#4e8869"
         id="stop830" />
      <stop
         offset="0.355"
         stop-color="#7cf76c"
         id="stop832" />
      <stop
         offset="0.754"
         stop-color="#54bcea"
         id="stop834" />
      <stop
         offset="1"
         stop-color="#372fff"
         id="stop836" />
      <stop
         offset="1"
         stop-color="#0025f4"
         id="stop838" />
    </linearGradient>
    <linearGradient
       id="linear-gradient-1"
       x1="10.8042"
       y1="-0.88397997"
       x2="28.041809"
       y2="47.636702"
       gradientUnits="userSpaceOnUse">
      <stop
         offset="0"
         stop-color="#f500ff"
         id="stop971" />
      <stop
         offset="0.355"
         stop-color="#ba6cf7"
         id="stop973" />
      <stop
         offset="0.754"
         stop-color="#f2dd35"
         id="stop975" />
      <stop
         offset="0.936"
         stop-color="#f8d648"
         id="stop977" />
      <stop
         offset="1"
         stop-color="#e6d234"
         id="stop979" />
    </linearGradient>
  </defs>
  <g
     id="Gruppe_4125"
     data-name="Gruppe 4125"
     transform="matrix(0.57686087,0,0,0.57686087,3.0586565,3.0586565)">
    <circle
       id="Ellipse_2"
       data-name="Ellipse 2"
       cx="15.5"
       cy="15.5"
       r="15.5"
       fill="url(#linear-gradient)"
       style="fill:url(#linear-gradient)" />
    <path
       id="Icon_awesome-phoenix-framework"
       data-name="Icon awesome-phoenix-framework"
       d="m 6.607,12.151 c 0.118,0 0.708,-0.043 0.794,-0.068 a 2.735,2.735 0 0 1 -2.11,-1.539 1.521,1.521 0 0 1 -0.2,-0.857 c 0.09,-0.791 1.021,-0.931 1.614,-0.574 1.117,0.67 1.964,2.833 3.529,3.026 a 4.216,4.216 0 0 0 3.358,-1.409 c -0.019,0 -0.025,-0.006 -0.031,0 l -0.034,0.009 A 5.524,5.524 0 0 1 9.347,10.28 3.065,3.065 0 0 1 7.74,7.961 C 7.796,7.3 8.451,7.241 8.854,7.353 c 0.447,0.121 0.757,0.546 1.207,0.85 a 2.093,2.093 0 0 0 1.592,0.32 3.573,3.573 0 0 0 1.133,-0.45 c -0.034,0 -0.056,0 -0.078,-0.006 C 12.516,8.048 12.323,8.042 12.134,8.014 8.684,7.5 8.134,2.937 4.3,2.642 A 6.75,6.75 0 0 0 0.068,3.728 C 0.043,3.747 0.021,3.765 0,3.784 0,3.79 0,3.793 0.006,3.8 A 0.6,0.6 0 0 0 0.08,3.794 1.734,1.734 0 0 1 0.66,3.803 C 1.399,3.936 2.14,4.52 2.395,6.177 a 23.506,23.506 0 0 0 0.248,2.672 4.326,4.326 0 0 0 3.963,3.3 z M 2.337,3.48 A 0.188,0.188 0 0 1 2.297,3.418 7.342,7.342 0 0 1 3.433,3.269 0.609,0.609 0 0 1 2.337,3.48 Z M 8.448,14.358 A 5.5,5.5 0 0 1 4.615,12.452 8.576,8.576 0 0 1 4.038,11.726 L 4.05,11.714 a 5.917,5.917 0 0 0 1.7,0.838 3.3,3.3 0 0 0 2.222,-0.1 1.315,1.315 0 0 1 1.338,0.09 c -0.574,0.118 -0.624,0.137 -0.745,0.245 -0.158,0.137 -0.143,0.363 0.217,0.534 0.813,0.385 1.955,-0.087 3.017,0.788 a 2.469,2.469 0 0 1 0.313,0.332 c 0,0.006 -0.009,0.009 -0.012,0.016 A 3.94,3.94 0 0 0 10.852,14.168 C 10.086,14.1 9.416,14.33 8.448,14.358 Z m 5.425,-7.821 a 2.987,2.987 0 0 1 2.064,-0.1 1.742,1.742 0 0 1 1,1.074 2.622,2.622 0 0 1 0.158,0.891 0.039,0.039 0 0 0 -0.019,0 A 0.216,0.216 0 0 1 17.06,8.362 1.476,1.476 0 0 0 14.96,7.434 5.075,5.075 0 0 1 9.47,5.944 C 9.448,5.916 9.396,5.891 9.43,5.844 a 0.207,0.207 0 0 1 0.093,0.04 4.574,4.574 0 0 0 1.871,0.813 4.649,4.649 0 0 0 2.479,-0.16 z m 3.187,3.647 c -1.006,0.006 -1.049,1.555 -3.215,2 a 6.817,6.817 0 0 1 -1.393,0.13 V 12.3 a 2.124,2.124 0 0 0 0.922,-0.515 c 0.245,-0.227 0.475,-0.469 0.708,-0.711 a 2.985,2.985 0 0 1 2.542,-1.21 1.8,1.8 0 0 1 1.12,0.394 c 0.009,0.006 0.012,0.016 0.022,0.028 -0.016,0 -0.022,0 -0.028,0 a 1.848,1.848 0 0 0 -0.677,-0.1 z M 16.678,9.436 c 0,0.006 0,0.012 -0.006,0.019 a 2.985,2.985 0 0 0 -2.126,0.124 4.35,4.35 0 0 1 -1.924,0.757 3.254,3.254 0 0 1 -2.051,-0.248 0.273,0.273 0 0 0 -0.031,-0.019 c 0,-0.006 0,-0.009 0,-0.016 a 2.2,2.2 0 0 0 1.722,-0.18 5.567,5.567 0 0 1 2.213,-0.962 2.816,2.816 0 0 1 2.2,0.524 z M 8.336,4.485 C 8.317,4.466 8.302,4.448 8.271,4.414 a 4.123,4.123 0 0 1 1.657,0.261 8.91,8.91 0 0 1 1.558,1.025 1.7,1.7 0 0 0 1.13,0.251 c 0.133,-0.012 0.264,-0.037 0.4,-0.053 A 0.069,0.069 0 0 1 13.063,5.907 0.582,0.582 0 0 1 13,5.941 2.233,2.233 0 0 1 12.206,6.161 4.067,4.067 0 0 1 9.928,5.683 a 5.962,5.962 0 0 1 -1.6,-1.2 z m 11.526,7.4 a 1.643,1.643 0 0 1 -1.325,0.164 C 18.155,11.928 17.932,11.587 17.556,11.301 A 1.5,1.5 0 0 0 16.684,11.04 0.2,0.2 0 0 1 16.721,11 a 1.656,1.656 0 0 1 1.468,-0.2 2.675,2.675 0 0 1 0.943,0.751 1.134,1.134 0 0 0 0.717,0.326 c 0,0 0.006,0 0.012,0.012 z m -6.595,4.252 c 0.068,0.037 0.05,0.047 0.047,0.062 a 2.021,2.021 0 0 1 -1.452,-0.689 2.635,2.635 0 0 0 -1.508,-0.922 0.116,0.116 0 0 1 0.034,-0.012 5.1,5.1 0 0 1 1.207,0.121 2.119,2.119 0 0 1 1.291,1.1 1.071,1.071 0 0 0 0.381,0.339 z"
       transform="matrix(0.259,0.966,-0.966,0.259,22.055,4.609)"
       fill="#ffffff" />
  </g>
</svg>
