<?xml version="1.0" encoding="UTF-8" standalone="no"?>
<svg
   class="MuiSvgIcon-root MuiSvgIcon-fontSizeMedium MuiBox-root css-1om0hkc"
   focusable="false"
   viewBox="0 0 24 24"
   aria-hidden="true"
   data-testid="AccountBoxIcon"
   version="1.1"
   id="svg4"
   xmlns="http://www.w3.org/2000/svg"
   xmlns:svg="http://www.w3.org/2000/svg">
  <defs
     id="defs8">
    <linearGradient
       id="linear-gradient"
       x1="6.82"
       y1="-0.55799998"
       x2="17.700999"
       y2="30.070001"
       gradientUnits="userSpaceOnUse">
      <stop
         offset="0"
         stop-color="#4e8869"
         id="stop830" />
      <stop
         offset="0.355"
         stop-color="#7cf76c"
         id="stop832" />
      <stop
         offset="0.754"
         stop-color="#54bcea"
         id="stop834" />
      <stop
         offset="1"
         stop-color="#372fff"
         id="stop836" />
      <stop
         offset="1"
         stop-color="#0025f4"
         id="stop838" />
    </linearGradient>
    <linearGradient
       id="linear-gradient-1"
       x1="10.8042"
       y1="-0.88397997"
       x2="28.041809"
       y2="47.636702"
       gradientUnits="userSpaceOnUse">
      <stop
         offset="0"
         stop-color="#f500ff"
         id="stop971" />
      <stop
         offset="0.355"
         stop-color="#ba6cf7"
         id="stop973" />
      <stop
         offset="0.754"
         stop-color="#f2dd35"
         id="stop975" />
      <stop
         offset="0.936"
         stop-color="#f8d648"
         id="stop977" />
      <stop
         offset="1"
         stop-color="#e6d234"
         id="stop979" />
    </linearGradient>
  </defs>
  <g
     id="Gruppe_4124"
     data-name="Gruppe 4124"
     transform="matrix(0.36222245,0,0,0.36222245,3.1056276,3.1056276)">
    <circle
       id="Ellipse_2-5"
       data-name="Ellipse 2"
       cx="24.555"
       cy="24.555"
       r="24.555"
       fill="url(#linear-gradient)"
       style="fill:url(#linear-gradient-1)" />
    <path
       id="Icon_awesome-phoenix-framework-9"
       data-name="Icon awesome-phoenix-framework"
       d="m 10.467,17.717 c 0.187,0 1.121,-0.069 1.259,-0.108 A 4.333,4.333 0 0 1 8.383,15.17 2.41,2.41 0 0 1 8.068,13.813 c 0.143,-1.254 1.618,-1.475 2.557,-0.91 1.77,1.062 3.112,4.489 5.59,4.794 a 6.68,6.68 0 0 0 5.32,-2.232 c -0.029,0 -0.039,-0.01 -0.049,0 l -0.054,0.015 a 8.751,8.751 0 0 1 -6.623,-0.728 4.855,4.855 0 0 1 -2.547,-3.668 c 0.088,-1.047 1.126,-1.141 1.765,-0.964 0.708,0.192 1.2,0.865 1.913,1.347 a 3.316,3.316 0 0 0 2.522,0.506 5.661,5.661 0 0 0 1.795,-0.713 c -0.054,0 -0.088,0 -0.123,-0.01 -0.3,-0.03 -0.61,-0.039 -0.91,-0.084 C 13.757,10.355 12.887,3.123 6.81,2.655 A 10.693,10.693 0 0 0 0.11,4.376 C 0.069,4.4 0.034,4.432 0,4.462 0,4.472 0,4.477 0.01,4.487 a 0.955,0.955 0 0 0 0.118,-0.01 2.747,2.747 0 0 1 0.919,0.015 c 1.17,0.208 2.345,1.135 2.753,3.76 0.261,1.686 -0.034,2.5 0.393,4.233 a 6.854,6.854 0 0 0 6.278,5.231 z M 3.7,3.98 A 0.3,0.3 0 0 1 3.636,3.88 11.631,11.631 0 0 1 5.436,3.644 0.965,0.965 0 0 1 3.7,3.98 Z m 9.681,17.232 A 8.72,8.72 0 0 1 7.309,18.193 13.586,13.586 0 0 1 6.395,17.043 l 0.02,-0.02 a 9.374,9.374 0 0 0 2.695,1.328 5.221,5.221 0 0 0 3.52,-0.162 2.083,2.083 0 0 1 2.119,0.143 c -0.91,0.187 -0.988,0.216 -1.18,0.388 -0.251,0.216 -0.226,0.575 0.344,0.846 1.288,0.61 3.1,-0.138 4.779,1.249 a 3.912,3.912 0 0 1 0.5,0.526 c 0,0.01 -0.015,0.015 -0.02,0.025 a 6.242,6.242 0 0 0 -1.976,-0.457 c -1.217,-0.1 -2.279,0.259 -3.813,0.303 z m 8.594,-12.39 a 4.732,4.732 0 0 1 3.269,-0.162 2.76,2.76 0 0 1 1.578,1.7 4.153,4.153 0 0 1 0.251,1.411 0.062,0.062 0 0 0 -0.03,0 0.342,0.342 0 0 1 -0.025,-0.064 2.339,2.339 0 0 0 -3.324,-1.47 A 8.04,8.04 0 0 1 15,7.884 C 14.966,7.84 14.882,7.8 14.936,7.727 a 0.329,0.329 0 0 1 0.147,0.064 7.247,7.247 0 0 0 2.965,1.288 7.365,7.365 0 0 0 3.929,-0.256 z m 5.051,5.778 c -1.593,0.01 -1.662,2.463 -5.094,3.166 a 10.8,10.8 0 0 1 -2.208,0.206 v -0.02 a 3.364,3.364 0 0 0 1.46,-0.816 c 0.388,-0.359 0.752,-0.742 1.121,-1.126 0.959,-0.993 2.035,-2.075 4.027,-1.917 a 2.859,2.859 0 0 1 1.775,0.624 c 0.015,0.01 0.02,0.025 0.034,0.044 -0.025,0 -0.034,0 -0.044,0 a 2.928,2.928 0 0 0 -1.072,-0.162 z m -0.6,-1.185 c 0,0.01 0,0.02 -0.01,0.029 -1.421,-0.216 -2.36,-0.388 -3.368,0.2 A 6.892,6.892 0 0 1 20,14.841 5.155,5.155 0 0 1 16.75,14.448 0.432,0.432 0 0 0 16.701,14.418 c 0,-0.01 0,-0.015 0,-0.025 a 3.483,3.483 0 0 0 2.729,-0.285 8.819,8.819 0 0 1 3.505,-1.524 4.461,4.461 0 0 1 3.486,0.831 z M 13.206,5.573 C 13.177,5.544 13.152,5.514 13.106,5.46 a 6.532,6.532 0 0 1 2.625,0.413 14.115,14.115 0 0 1 2.469,1.617 2.7,2.7 0 0 0 1.79,0.4 C 20.201,7.87 20.408,7.831 20.619,7.806 A 0.11,0.11 0 0 1 20.693,7.821 0.923,0.923 0 0 1 20.605,7.88 3.538,3.538 0 0 1 19.346,8.229 6.444,6.444 0 0 1 15.737,7.472 9.446,9.446 0 0 1 13.21,5.572 Z m 18.26,11.721 a 2.6,2.6 0 0 1 -2.1,0.261 c -0.6,-0.192 -0.959,-0.733 -1.554,-1.185 a 2.372,2.372 0 0 0 -1.382,-0.413 0.32,0.32 0 0 1 0.059,-0.069 2.624,2.624 0 0 1 2.326,-0.32 4.238,4.238 0 0 1 1.495,1.19 1.8,1.8 0 0 0 1.136,0.516 c 0,0 0.01,0 0.02,0.02 z M 21.018,24.03 c 0.108,0.059 0.079,0.074 0.074,0.1 a 3.2,3.2 0 0 1 -2.3,-1.091 4.174,4.174 0 0 0 -2.389,-1.46 0.184,0.184 0 0 1 0.054,-0.02 8.071,8.071 0 0 1 1.913,0.192 3.357,3.357 0 0 1 2.045,1.736 1.7,1.7 0 0 0 0.603,0.543 z"
       transform="translate(8.878,12.982)"
       fill="#ffffff" />
  </g>
</svg>
