<?xml version="1.0" encoding="UTF-8" standalone="no"?>
<svg
   class="MuiSvgIcon-root MuiSvgIcon-fontSizeMedium MuiBox-root css-1om0hkc"
   focusable="false"
   viewBox="0 0 24 24"
   aria-hidden="true"
   data-testid="AccountBoxIcon"
   version="1.1"
   id="svg4"
   xmlns="http://www.w3.org/2000/svg"
   xmlns:svg="http://www.w3.org/2000/svg">
  <defs
     id="defs8">
    <linearGradient
       id="linear-gradient"
       x1="7.5172691"
       y1="4.2097636"
       x2="7.5172691"
       y2="15.034631"
       gradientUnits="userSpaceOnUse"
       gradientTransform="matrix(1.1972432,0,0,0.97221476,3,1.0438238)">
      <stop
         offset="0"
         stop-color="#00ffeb"
         id="stop1535" />
      <stop
         offset="1"
         stop-color="#00e63e"
         id="stop1537" />
    </linearGradient>
    <linearGradient
       id="linear-gradient-9"
       x1="7.1571342"
       y1="4.0079952"
       x2="7.1571342"
       y2="14.314268"
       gradientUnits="userSpaceOnUse"
       gradientTransform="matrix(1.2480553,0,0,0.93598714,3.0675002,0.4373409)">
      <stop
         offset="0"
         stop-color="#00ffeb"
         id="stop1685" />
      <stop
         offset="1"
         stop-color="#00e63e"
         id="stop1687" />
    </linearGradient>
  </defs>
  <path
     id="Icon_ionic-logo-youtube"
     data-name="Icon ionic-logo-youtube"
     d="M 20.812342,8.2592081 A 2.7117679,2.7117679 0 0 0 18.230273,5.4263887 C 16.297772,5.3356001 14.326364,5.301014 12.312803,5.301014 h -0.627955 c -2.0092371,0 -3.9838891,0.034586 -5.9174689,0.1253747 A 2.7182528,2.7182528 0 0 0 3.1896324,8.2667738 C 3.1020864,9.5086317 3.0675002,10.75049 3.0675002,11.992347 c 0,1.241858 0.034586,2.485878 0.1188897,3.729897 a 2.7214954,2.7214954 0 0 0 2.5831509,2.843627 c 2.0308541,0.09403 4.1135861,0.136183 6.2309062,0.132942 2.117319,-0.0034 4.196809,-0.03458 6.230905,-0.132942 a 2.7214954,2.7214954 0 0 0 2.582071,-2.843627 c 0.08323,-1.245101 0.122132,-2.485878 0.11889,-3.733139 -0.0034,-1.247261 -0.03135,-2.4837163 -0.119971,-3.7298969 z M 10.289514,15.415292 V 8.5596749 l 5.059303,3.4261881 z"
     fill="url(#linear-gradient)"
     style="fill:url(#linear-gradient-9);stroke-width:1.08081" />
</svg>
