<?xml version="1.0" standalone="no"?>
<!DOCTYPE svg PUBLIC "-//W3C//DTD SVG 20010904//EN"
 "http://www.w3.org/TR/2001/REC-SVG-20010904/DTD/svg10.dtd">
<svg version="1.0" xmlns="http://www.w3.org/2000/svg"
 width="980.000000pt" height="980.000000pt" viewBox="0 0 980.000000 980.000000"
 preserveAspectRatio="xMidYMid meet">
<metadata>
Created by potrace 1.14, written by Peter Selinger 2001-2017
</metadata>
<g transform="translate(0.000000,980.000000) scale(0.100000,-0.100000)"
fill="#000000" stroke="none">
<path d="M8291 8539 c-25 -52 -65 -141 -91 -199 -25 -58 -48 -109 -52 -115 -3
-5 -26 -48 -50 -95 -56 -107 -101 -182 -144 -243 -19 -26 -34 -51 -34 -56 0
-5 -3 -11 -8 -13 -4 -1 -25 -28 -47 -58 -47 -65 -46 -63 -125 -160 -182 -221
-488 -526 -734 -731 -16 -13 -34 -28 -40 -34 -71 -63 -145 -125 -150 -125 -3
0 -16 -10 -29 -22 -27 -26 -23 -22 -307 -247 -113 -90 -214 -170 -225 -179
-11 -10 -52 -42 -90 -72 -39 -30 -75 -59 -81 -65 -6 -5 -45 -37 -87 -70 -43
-33 -77 -63 -77 -67 0 -5 -4 -8 -10 -8 -5 0 -18 -8 -28 -17 -10 -10 -40 -36
-66 -58 -179 -148 -366 -343 -526 -545 -28 -36 -56 -72 -63 -80 -36 -46 -67
-89 -67 -95 0 -3 -4 -11 -10 -18 -5 -7 -43 -58 -85 -114 -41 -56 -114 -141
-163 -190 -84 -87 -228 -203 -250 -203 -5 0 -12 -4 -14 -8 -4 -10 -97 -62
-111 -62 -6 0 -18 -7 -27 -15 -9 -8 -25 -16 -36 -18 -10 -1 -23 -5 -29 -8 -10
-6 -82 -31 -100 -35 -5 -1 -32 -7 -60 -14 -27 -6 -68 -14 -90 -18 -50 -9 -356
-8 -410 1 -245 40 -381 23 -559 -71 -121 -64 -236 -174 -297 -287 -80 -145
-127 -306 -120 -415 4 -77 58 -187 117 -242 79 -74 98 -81 100 -42 3 48 78
144 113 144 11 0 22 4 25 9 7 11 77 -4 125 -28 20 -10 99 -56 176 -103 141
-85 245 -138 300 -153 17 -5 32 -9 35 -10 3 -1 25 -7 48 -14 83 -24 127 -98
123 -208 -1 -29 -4 -61 -6 -73 -3 -11 -7 -30 -10 -41 -19 -87 -102 -310 -124
-332 -6 -6 -11 -16 -11 -23 0 -13 -105 -221 -122 -241 -6 -7 -7 -13 -4 -13 4
0 0 -10 -8 -22 -25 -35 -19 -53 29 -92 55 -46 137 -84 197 -92 l46 -6 21 58
c20 52 55 170 67 226 3 13 7 32 9 43 3 11 7 29 9 41 2 11 16 70 31 130 15 60
29 119 31 132 37 187 105 386 184 542 33 63 48 103 44 115 -4 10 -55 40 -113
67 -224 105 -298 157 -367 259 -61 91 -73 198 -34 319 l21 66 147 0 c133 -1
275 9 291 18 3 2 24 7 45 10 184 29 452 157 629 300 118 94 297 289 388 421
19 28 37 52 42 53 4 2 7 8 7 13 0 9 104 171 130 202 5 7 34 44 63 83 89 121
283 344 298 344 5 0 9 4 9 9 0 5 48 55 106 112 142 138 146 143 244 229 46 41
90 80 96 85 6 6 31 26 55 46 24 21 56 48 71 60 14 13 45 40 69 59 23 19 48 41
55 48 8 7 14 10 14 6 0 -4 6 -1 13 8 6 8 82 71 167 138 85 68 162 130 171 139
9 9 40 36 69 61 28 25 64 56 79 70 15 14 72 66 127 115 191 174 470 459 623
638 97 114 238 312 293 412 49 87 130 265 122 265 -2 0 0 8 5 18 11 21 45 144
56 207 9 50 13 270 6 309 -6 27 -10 22 -50 -65z m-4890 -4349 c11 -25 1 -90
-19 -124 -10 -17 -31 -37 -47 -45 -54 -26 -151 -20 -149 10 2 72 41 118 130
154 65 26 76 27 85 5z"/>
<path d="M8865 8241 c-50 -66 -217 -280 -245 -315 -102 -126 -209 -226 -364
-339 -98 -71 -150 -118 -235 -213 -24 -27 -72 -78 -105 -114 -96 -103 -97
-104 -45 -81 24 10 76 34 114 52 39 18 72 33 75 34 12 3 146 71 150 76 3 3 32
20 65 38 73 41 234 151 283 194 36 31 142 139 172 174 31 36 73 109 130 223
22 46 50 168 55 241 1 26 6 52 9 58 4 6 3 17 -1 25 -6 10 -21 -4 -58 -53z"/>
<path d="M9270 7904 c-19 -16 -36 -32 -38 -36 -2 -5 -7 -8 -12 -8 -4 0 -23
-13 -42 -30 -18 -16 -91 -75 -163 -130 -71 -55 -137 -107 -146 -114 -9 -7 -63
-45 -120 -85 -57 -39 -109 -74 -114 -79 -20 -17 -231 -139 -300 -175 -131 -66
-318 -143 -395 -163 -8 -2 -42 -11 -75 -20 -33 -9 -65 -17 -72 -18 -7 -1 -16
-5 -19 -9 -4 -4 -17 -7 -28 -7 -12 0 -52 -32 -101 -82 -82 -85 -132 -131 -195
-182 l-35 -28 65 7 c36 4 74 9 85 11 21 4 99 16 125 19 8 1 24 4 35 8 11 3 32
9 48 12 70 14 86 17 137 31 30 8 63 17 73 19 80 18 351 117 375 137 6 6 12 8
12 5 0 -6 183 87 240 122 19 11 42 24 50 28 8 4 20 11 25 15 6 4 59 44 119 89
117 87 255 218 330 314 25 33 51 65 56 72 6 7 10 16 10 22 0 5 4 11 8 13 12 4
87 136 102 179 9 24 10 44 4 63 l-10 28 -34 -28z"/>
<path d="M9480 7294 c-76 -44 -386 -205 -430 -223 -14 -6 -32 -15 -40 -20 -14
-9 -92 -45 -170 -78 -67 -29 -85 -38 -92 -48 -4 -5 -8 -7 -8 -3 0 3 -39 -9
-87 -29 -178 -70 -428 -150 -548 -175 -27 -5 -68 -14 -90 -19 -22 -4 -50 -10
-61 -13 -119 -25 -354 -47 -539 -50 l-81 -1 -143 -143 c-79 -78 -142 -145
-139 -147 24 -24 773 -25 904 -1 10 2 51 7 89 10 39 4 94 11 123 17 30 6 56 8
59 5 3 -3 13 -1 22 3 9 5 34 12 56 15 33 5 97 20 228 52 9 2 25 6 35 8 46 11
244 82 300 107 34 15 65 28 68 28 10 0 171 85 233 124 36 22 93 61 126 85 73
54 243 224 280 281 l28 41 -38 100 c-21 55 -38 100 -39 100 0 0 -21 -12 -46
-26z"/>
<path d="M9365 6593 c-90 -47 -378 -166 -430 -178 -5 -1 -18 -5 -27 -8 -22 -8
-46 -16 -56 -18 -4 -1 -18 -6 -32 -11 -14 -5 -32 -11 -40 -14 -8 -2 -49 -13
-90 -25 -157 -44 -209 -57 -214 -51 -4 3 -6 0 -6 -7 0 -7 -3 -10 -7 -8 -5 3
-46 -3 -93 -14 -90 -19 -92 -20 -240 -43 -211 -34 -314 -41 -560 -41 -185 0
-311 7 -395 21 -16 3 -39 7 -50 9 -11 2 -34 6 -52 9 -17 3 -51 10 -75 17 -24
6 -50 12 -58 14 -33 5 -350 -266 -432 -369 l-39 -49 52 -28 c28 -16 68 -34 88
-41 20 -7 41 -15 46 -19 9 -5 45 -16 67 -19 4 -1 22 -6 40 -11 18 -5 48 -12
67 -15 18 -3 43 -8 55 -11 11 -2 39 -7 61 -10 22 -2 69 -8 105 -13 66 -8 516
-5 580 4 43 6 123 16 170 20 39 4 173 29 307 57 29 5 55 10 58 10 2 0 23 6 45
14 22 8 44 15 48 15 69 6 373 117 524 191 334 165 538 359 633 604 21 53 18
54 -50 18z"/>
<path d="M307 6423 c-7 -12 -31 -135 -42 -218 -16 -114 -21 -327 -10 -420 2
-22 7 -62 10 -90 6 -59 14 -101 41 -225 21 -100 97 -301 150 -396 64 -116 145
-226 234 -314 52 -53 110 -107 128 -120 19 -14 39 -29 46 -35 58 -49 268 -195
281 -195 3 0 23 -11 45 -25 147 -93 448 -217 653 -271 4 -1 8 -2 10 -4 2 -2
20 -6 57 -14 14 -3 34 -8 45 -11 65 -15 155 -34 190 -39 22 -3 51 -8 64 -10
12 -3 44 -8 70 -11 25 -3 60 -7 76 -10 17 -3 50 -7 75 -10 146 -13 210 -18
249 -19 l44 -1 13 53 c14 53 69 182 82 192 4 3 20 22 36 43 42 57 79 93 140
135 l54 38 -181 1 c-176 0 -332 11 -332 23 0 1 -11 4 -25 5 -43 6 -151 45
-232 86 -95 46 -171 100 -257 181 l-66 62 -9 -53 c-12 -68 4 -120 52 -173 l37
-41 -140 6 c-77 4 -151 8 -165 11 -14 2 -43 7 -65 11 -47 7 -186 45 -200 53
-5 4 -18 8 -28 9 -41 7 -254 116 -302 155 -5 5 -33 25 -60 46 -153 113 -329
320 -426 502 -13 25 -27 47 -31 48 -5 2 -8 9 -8 15 0 6 -15 43 -34 82 -29 59
-41 86 -51 115 -4 11 -26 67 -40 100 -16 37 -84 268 -91 310 -3 14 -11 57 -19
95 -21 99 -34 182 -48 297 -3 30 -12 44 -20 31z"/>
<path d="M975 6187 c-144 -155 -212 -328 -207 -527 2 -87 8 -119 36 -204 20
-60 96 -209 115 -226 4 -3 19 -23 36 -45 48 -66 204 -215 224 -215 5 0 11 -4
13 -8 3 -9 99 -68 157 -97 l35 -18 -25 30 c-13 16 -33 42 -44 57 -11 16 -25
33 -30 40 -47 52 -151 241 -197 356 -22 56 -63 185 -72 230 -4 18 -17 86 -21
115 -12 67 -17 154 -16 250 0 108 2 129 16 233 4 28 6 52 4 51 -2 0 -13 -10
-24 -22z"/>
<path d="M1398 5923 c-26 -40 -64 -135 -73 -180 -2 -16 -9 -50 -14 -78 -24
-127 5 -371 61 -515 22 -57 96 -201 107 -210 3 -3 19 -23 36 -45 28 -38 125
-138 125 -129 0 3 10 -4 21 -15 12 -11 52 -36 90 -56 l68 -36 -15 43 c-22 61
-20 120 6 166 l22 39 -61 74 c-122 145 -222 327 -275 501 -28 91 -29 95 -41
168 -4 25 -9 54 -12 65 -2 11 -7 70 -10 130 -3 61 -6 111 -8 113 -1 1 -13 -15
-27 -35z"/>
<path d="M9158 5854 c-38 -19 -68 -32 -68 -29 0 4 -12 -1 -27 -9 -34 -18 -219
-84 -258 -92 -5 -1 -64 -16 -130 -34 -66 -18 -129 -34 -140 -36 -11 -2 -40 -8
-65 -14 -52 -11 -50 -11 -230 -44 -74 -13 -153 -27 -175 -30 -22 -3 -51 -8
-65 -10 -14 -3 -50 -8 -80 -11 -30 -3 -80 -9 -110 -12 -30 -4 -72 -7 -92 -7
-21 -1 -38 -3 -38 -6 0 -14 -592 -21 -730 -8 -89 8 -232 28 -241 34 -4 2 -24
6 -45 10 -59 9 -181 52 -255 89 l-66 33 -64 -55 c-105 -91 -176 -167 -299
-320 -21 -25 -98 -150 -118 -189 l-21 -42 59 -60 c159 -163 409 -272 730 -318
166 -24 592 -23 710 1 14 3 46 8 71 11 38 4 192 35 299 60 14 3 30 7 35 8 6 1
15 4 20 8 8 4 64 20 85 23 3 0 11 4 18 8 6 5 12 6 12 2 0 -3 9 -1 21 5 11 6
30 13 42 15 12 3 31 9 42 14 11 5 52 22 90 36 152 59 300 133 445 223 58 36
107 68 110 71 3 4 32 26 65 51 33 24 73 56 90 70 52 45 199 195 230 234 17 22
39 51 51 65 18 23 40 56 109 166 28 44 65 125 57 125 -4 -1 -37 -17 -74 -36z"/>
<path d="M5670 4888 c-34 -62 -137 -216 -179 -268 -20 -24 -43 -53 -51 -64
-29 -38 -246 -252 -285 -281 -22 -17 -46 -35 -53 -42 -7 -7 -40 -31 -73 -54
l-60 -42 28 -18 c63 -40 296 -121 413 -145 14 -2 31 -7 39 -9 19 -7 151 -35
189 -40 65 -10 97 -15 117 -19 11 -2 43 -7 70 -10 28 -4 68 -9 90 -11 200 -25
696 -25 863 0 17 3 47 7 65 10 17 3 50 8 72 11 22 3 72 12 110 20 71 16 94 21
130 28 11 2 61 16 110 31 50 14 97 28 105 30 8 2 40 14 70 25 30 12 61 22 68
23 6 0 12 4 12 9 0 4 7 8 16 8 21 0 286 127 295 141 3 6 12 11 20 12 8 2 49
26 93 55 43 29 82 52 87 52 4 0 9 4 11 8 2 5 28 26 58 49 148 108 291 252 456
456 27 34 13 36 -46 6 -57 -28 -112 -51 -118 -50 -1 1 -16 -6 -34 -15 -123
-63 -616 -222 -773 -248 -16 -2 -55 -10 -85 -16 -30 -6 -68 -13 -85 -15 -28
-4 -66 -10 -138 -21 -76 -12 -179 -17 -352 -17 -192 -1 -283 6 -405 28 -19 4
-46 8 -60 10 -59 9 -232 62 -300 91 -82 36 -220 108 -220 115 0 4 -8 10 -17
13 -10 3 -31 17 -48 31 -104 90 -145 129 -150 146 -10 31 -30 22 -55 -23z"/>
<path d="M4868 3974 c13 -24 143 -158 197 -202 105 -86 261 -175 400 -229 38
-15 72 -28 75 -28 3 -1 30 -9 60 -19 30 -10 64 -20 75 -22 11 -2 49 -11 85
-19 36 -8 81 -17 100 -20 19 -2 46 -7 60 -10 45 -10 222 -19 335 -18 104 2
250 9 250 13 0 1 14 3 30 5 88 10 125 15 170 25 28 6 61 13 75 15 73 10 305
85 415 133 83 37 247 122 266 138 8 8 19 14 23 14 10 0 184 130 225 168 23 22
28 32 17 32 -9 0 -16 -4 -16 -10 0 -5 -8 -10 -18 -10 -10 0 -29 -8 -42 -17
-14 -10 -25 -16 -25 -15 0 2 -13 -2 -30 -8 -63 -23 -141 -53 -165 -63 -14 -6
-29 -11 -35 -13 -5 -1 -55 -16 -110 -34 -168 -52 -326 -87 -500 -110 -44 -6
-93 -13 -108 -16 -22 -3 -301 -16 -352 -15 -40 0 -228 12 -262 16 -91 11 -139
17 -158 21 -10 2 -37 6 -60 10 -45 6 -167 30 -205 39 -14 4 -34 8 -45 10 -11
3 -28 6 -37 8 -10 2 -21 6 -24 10 -4 4 -16 7 -26 7 -49 0 -458 146 -637 227
-10 5 -11 2 -3 -13z"/>
<path d="M4742 3427 c-107 -31 -188 -90 -252 -182 -32 -46 -95 -169 -105 -205
-4 -14 -13 -38 -21 -55 -11 -26 -43 -129 -50 -160 -1 -5 -11 -46 -22 -90 -18
-72 -25 -106 -38 -185 -3 -14 -7 -36 -9 -50 -3 -14 -8 -37 -10 -52 -3 -16 -7
-40 -10 -55 -3 -16 -8 -46 -11 -68 -3 -22 -16 -89 -30 -150 -13 -60 -27 -121
-30 -134 -8 -39 -50 -114 -78 -140 -50 -47 -174 -22 -286 59 -30 21 -86 60
-125 86 -38 26 -72 51 -75 55 -5 6 -68 42 -80 44 -3 1 -17 7 -31 12 -36 16
-60 18 -90 10 -28 -7 -39 -24 -45 -71 -3 -24 -2 -26 11 -16 8 7 33 13 56 13
49 1 61 -15 64 -83 4 -86 44 -116 166 -126 145 -11 216 -83 234 -236 10 -86
50 -202 101 -297 37 -68 50 -134 34 -177 -14 -36 -6 -40 27 -14 39 30 52 58
53 107 0 38 -22 141 -34 161 -9 15 -17 65 -22 142 -7 90 4 107 87 134 131 43
242 161 328 347 32 70 49 111 48 119 0 3 6 16 13 30 7 14 17 41 21 60 4 19 13
55 19 80 7 25 14 54 16 65 2 11 6 30 9 43 3 12 7 32 10 43 36 164 114 338 174
387 88 72 159 88 290 68 52 -9 146 -43 181 -66 14 -9 52 -34 85 -56 33 -21 62
-41 65 -45 15 -17 286 -212 352 -252 140 -87 342 -172 458 -193 14 -3 30 -6
37 -9 32 -11 174 -20 318 -20 189 0 259 8 425 47 47 11 92 21 100 23 8 2 62
20 120 40 191 67 382 171 495 270 91 79 90 89 -8 55 -72 -25 -135 -44 -187
-56 -72 -16 -170 -36 -195 -40 -16 -2 -43 -6 -60 -9 -148 -23 -516 -23 -619 2
-12 2 -28 5 -36 5 -16 0 -87 13 -130 23 -14 3 -36 8 -50 11 -179 34 -536 179
-678 275 -24 16 -45 29 -48 29 -13 0 -223 158 -307 233 -34 29 -232 160 -247
162 -3 1 -22 9 -43 18 -112 49 -242 62 -335 34z"/>
<path d="M5096 2703 c2 -16 6 -46 8 -68 3 -22 5 -40 6 -40 1 0 3 -11 4 -25 3
-32 13 -70 39 -150 12 -36 22 -67 22 -70 3 -17 84 -166 123 -224 58 -87 195
-227 282 -288 83 -59 235 -136 300 -153 14 -3 54 -14 90 -24 67 -18 250 -21
315 -6 17 4 35 8 40 9 61 13 58 19 -26 43 -46 13 -91 26 -99 29 -8 3 -16 5
-17 5 -4 0 -113 48 -158 70 -22 11 -62 33 -90 50 -27 16 -60 35 -72 41 -13 6
-23 15 -23 20 0 4 -5 8 -11 8 -33 0 -291 239 -404 375 -32 39 -62 72 -67 73
-4 2 -8 9 -8 17 0 7 -7 19 -17 26 -9 8 -63 80 -121 162 -57 81 -108 147 -112
147 -5 0 -6 -12 -4 -27z"/>
<path d="M4895 2593 c5 -125 13 -238 20 -274 3 -13 7 -45 10 -72 3 -28 8 -54
11 -59 3 -5 7 -18 10 -31 8 -43 22 -101 24 -104 2 -2 3 -6 5 -10 3 -13 16 -47
27 -73 6 -14 12 -31 14 -38 5 -28 85 -149 126 -192 81 -85 188 -151 268 -165
18 -3 37 -8 41 -11 20 -12 187 -24 212 -15 14 5 7 14 -40 48 -165 117 -306
270 -442 478 -87 133 -207 388 -242 515 -6 19 -13 42 -16 50 -9 22 -10 28 -12
50 0 11 -5 20 -11 20 -6 0 -8 -46 -5 -117z"/>
<path d="M5397 2604 c9 -21 72 -132 85 -149 4 -5 31 -42 60 -82 162 -220 373
-365 582 -401 90 -15 267 -7 355 18 69 19 221 83 221 93 0 1 -17 1 -37 -1 -21
-1 -81 -3 -133 -3 -89 0 -133 3 -220 17 -19 4 -48 8 -65 11 -16 2 -75 18 -130
35 -55 18 -102 32 -105 33 -43 13 -181 81 -223 109 -21 15 -41 26 -45 26 -13
0 -159 114 -215 167 -30 29 -74 74 -96 100 -23 26 -38 38 -34 27z"/>
<path d="M4721 2548 c-17 -54 -37 -150 -51 -248 -13 -94 -3 -287 18 -370 68
-258 232 -414 452 -432 35 -3 32 8 -23 66 -92 98 -181 229 -246 361 -49 99
-81 175 -86 205 0 3 -6 21 -13 40 -27 83 -41 185 -39 303 1 59 1 107 0 107 -1
0 -6 -15 -12 -32z"/>
<path d="M2830 2073 c-21 -8 -60 -44 -73 -68 -9 -17 -8 -18 4 -8 17 14 85 10
120 -6 37 -18 60 -61 45 -84 -9 -14 -7 -24 7 -49 17 -29 17 -32 1 -49 -24 -26
-46 -24 -77 9 -41 43 -111 75 -147 67 -17 -4 -30 -10 -30 -15 0 -10 -49 -3
-65 9 -9 7 -33 6 -77 -2 -35 -6 -75 -66 -85 -125 l-4 -24 26 26 c33 33 71 52
115 60 43 6 57 -2 64 -36 11 -61 20 -67 138 -98 44 -12 88 -41 88 -59 0 -5
-20 -14 -45 -21 -24 -7 -53 -22 -64 -34 -11 -11 -34 -34 -52 -51 -17 -16 -51
-48 -75 -70 -65 -62 -70 -113 -18 -169 23 -25 28 -26 36 -12 5 9 7 20 4 25
-10 16 15 80 39 100 18 14 35 18 63 14 101 -12 127 -9 157 21 82 82 244 107
355 55 60 -28 100 -66 152 -143 40 -60 72 -85 115 -89 60 -7 73 -29 69 -118
-2 -76 -2 -78 18 -67 65 34 103 125 72 173 -22 34 -20 45 10 45 37 0 56 52 55
159 0 47 -2 95 -5 106 -9 40 -38 118 -49 132 -65 81 -140 108 -252 91 -113
-18 -145 -18 -188 -1 -57 23 -91 56 -123 119 -32 64 -73 94 -120 88 -28 -3
-36 0 -50 25 -32 54 -108 91 -154 74z"/>
</g>
</svg>
