<?xml version="1.0" encoding="UTF-8" standalone="no"?>
<svg
   class="MuiSvgIcon-root MuiSvgIcon-fontSizeMedium MuiBox-root css-1om0hkc"
   focusable="false"
   viewBox="0 0 24 24"
   aria-hidden="true"
   data-testid="AccountBoxIcon"
   version="1.1"
   id="svg4"
   xmlns="http://www.w3.org/2000/svg"
   xmlns:svg="http://www.w3.org/2000/svg">
  <defs
     id="defs8">
    <filter
       id="filter0_i"
       x="0.859375"
       y="0.592313"
       width="94.4298"
       height="94.6595"
       filterUnits="userSpaceOnUse"
       color-interpolation-filters="sRGB">
      <feFlood
         flood-opacity="0"
         result="BackgroundImageFix"
         id="feFlood927" />
      <feBlend
         mode="normal"
         in="SourceGraphic"
         in2="BackgroundImageFix"
         result="shape"
         id="feBlend929" />
      <feColorMatrix
         in="SourceAlpha"
         type="matrix"
         values="0 0 0 0 0 0 0 0 0 0 0 0 0 0 0 0 0 0 127 0"
         result="hardAlpha"
         id="feColorMatrix931" />
      <feOffset
         dy="-0.689125"
         id="feOffset933" />
      <feGaussianBlur
         stdDeviation="0.114854"
         id="feGaussianBlur935" />
      <feComposite
         in2="hardAlpha"
         operator="arithmetic"
         k2="-1"
         k3="1"
         id="feComposite937" />
      <feColorMatrix
         type="matrix"
         values="0 0 0 0 0.0699479 0 0 0 0 0.9875 0 0 0 0 0.717887 0 0 0 1 0"
         id="feColorMatrix939" />
      <feBlend
         mode="normal"
         in2="shape"
         result="effect1_innerShadow"
         id="feBlend941" />
    </filter>
    <linearGradient
       id="paint0_linear"
       x1="48.0745"
       y1="4.34131"
       x2="48.0745"
       y2="91.7325"
       gradientUnits="userSpaceOnUse">
      <stop
         stop-color="#141E27"
         id="stop944" />
      <stop
         offset="1"
         stop-color="#141E27"
         id="stop946" />
    </linearGradient>
    <clipPath
       id="clip0">
      <rect
         width="96"
         height="96"
         fill="white"
         id="rect949" />
    </clipPath>
  </defs>
  <g
     style="fill:none"
     id="g979"
     transform="matrix(0.18748695,0,0,0.18748695,2.993669,2.993669)">
    <g
       clip-path="url(#clip0)"
       id="g925">
      <g
         filter="url(#filter0_i)"
         id="g915">
        <path
           d="m 48.0743,95.2518 c 26.0761,0 47.2149,-21.1388 47.2149,-47.2149 0,-26.076 -21.1388,-47.214879 -47.2149,-47.214879 -26.0761,0 -47.214925,21.138879 -47.214925,47.214879 0,26.0761 21.138825,47.2149 47.214925,47.2149 z"
           fill="#00d395"
           id="path913" />
      </g>
      <path
         d="m 48.0745,91.7325 c 24.1324,0 43.6956,-19.5632 43.6956,-43.6956 0,-24.1324 -19.5632,-43.69559 -43.6956,-43.69559 -24.1324,0 -43.69559,19.56319 -43.69559,43.69559 0,24.1324 19.56319,43.6956 43.69559,43.6956 z"
         fill="url(#paint0_linear)"
         id="path917"
         style="fill:url(#paint0_linear)" />
      <path
         fill-rule="evenodd"
         clip-rule="evenodd"
         d="m 28.1549,63.8801 c -1.4122,-0.8637 -2.276,-2.402 -2.276,-4.0539 v -9.2237 c 0,-0.353 0.0946,-0.6935 0.2711,-0.9961 0.5485,-0.9457 1.7653,-1.2673 2.7111,-0.7124 l 20.8183,12.1364 c 1.2168,0.7125 1.9671,2.0112 1.9671,3.4235 v 9.5578 c 0,0.435 -0.1198,0.8701 -0.3468,1.242 -0.6872,1.1223 -2.1499,1.4753 -3.2722,0.7881 z M 59.187,46.3658 c 1.2168,0.7124 1.9671,2.0112 1.9671,3.4234 v 19.3932 c 0,0.5737 -0.309,1.1033 -0.807,1.3807 l -4.5584,2.566 c -0.0567,0.0315 -0.1198,0.0567 -0.1828,0.0756 V 62.4364 c 0,-1.3934 -0.7314,-2.6858 -1.9293,-3.4046 L 35.3928,48.0933 V 35.9379 c 0,-0.3531 0.0946,-0.6935 0.2711,-0.9962 0.5485,-0.9457 1.7653,-1.2672 2.7111,-0.7124 z m 9.1104,-14.3242 c 1.2231,0.7061 1.9734,2.0175 1.9734,3.4297 v 28.3269 c 0,0.58 -0.3216,1.1159 -0.8323,1.3933 l -4.3187,2.3327 v -19.721 c 0,-1.3933 -0.7314,-2.6794 -1.923,-3.3982 L 44.5095,33.1953 V 21.6641 c 0,-0.353 0.0946,-0.6935 0.2648,-0.9961 0.5485,-0.9457 1.7653,-1.2673 2.711,-0.7187 z"
         fill="#f9fafb"
         id="path919" />
      <path
         d="M 48.0371,96 C 74.5263,96 96,74.5263 96,48.0371 96,21.5479 74.5263,0.0742188 48.0371,0.0742188 21.5479,0.0742188 0.0742188,21.5479 0.0742188,48.0371 0.0742188,74.5263 21.5479,96 48.0371,96 Z"
         fill="#070a0e"
         id="path921" />
      <path
         fill-rule="evenodd"
         clip-rule="evenodd"
         d="m 27.8013,64.1309 c -1.4346,-0.8775 -2.312,-2.4402 -2.312,-4.1182 v -9.3698 c 0,-0.3587 0.096,-0.7045 0.2754,-1.0119 0.5572,-0.9607 1.7933,-1.2873 2.754,-0.7237 L 49.6668,61.236 c 1.2361,0.7237 1.9982,2.0431 1.9982,3.4777 v 9.7092 c 0,0.442 -0.1216,0.8839 -0.3522,1.2617 -0.6981,1.14 -2.184,1.4987 -3.324,0.8006 z M 59.325,46.339 c 1.2361,0.7238 1.9983,2.0431 1.9983,3.4777 v 19.7004 c 0,0.5828 -0.3139,1.1208 -0.8198,1.4026 l -4.6306,2.6066 c -0.0576,0.032 -0.1217,0.0577 -0.1857,0.0769 v -10.939 c 0,-1.4154 -0.743,-2.7283 -1.9599,-3.4584 L 35.1539,48.0939 v -12.348 c 0,-0.3586 0.096,-0.7045 0.2754,-1.0119 0.5572,-0.9607 1.7933,-1.2873 2.754,-0.7237 z m 9.2547,-14.5511 c 1.2425,0.7173 2.0047,2.0495 2.0047,3.4841 v 28.7756 c 0,0.5892 -0.3267,1.1336 -0.8454,1.4154 l -4.3872,2.3697 V 47.7993 c 0,-1.4154 -0.743,-2.7219 -1.9534,-3.4521 L 44.415,32.96 V 21.2461 c 0,-0.3587 0.0961,-0.7045 0.269,-1.012 0.5572,-0.9606 1.7933,-1.2873 2.754,-0.7301 z"
         fill="#00d395"
         id="path923" />
    </g>
  </g>
</svg>
