<?xml version="1.0" encoding="UTF-8" standalone="no"?>
<svg
   class="MuiSvgIcon-root MuiSvgIcon-fontSizeMedium MuiBox-root css-1om0hkc"
   focusable="false"
   viewBox="0 0 24 24"
   aria-hidden="true"
   data-testid="AccountBoxIcon"
   version="1.1"
   id="svg4"
   xmlns="http://www.w3.org/2000/svg"
   xmlns:svg="http://www.w3.org/2000/svg">
  <defs
     id="defs8" />
  <g
     style="fill:#cccccc"
     id="g1191"
     transform="translate(-70.850711,6.2464455)">
    <g
       id="logo"
       style="fill:#cccccc">
      <g
         id="g1959"
         transform="matrix(0.64212225,0,0,0.64212225,30.740683,0.31492529)">
        <path
           fill-rule="evenodd"
           clip-rule="evenodd"
           d="m 69.253693,1.4550625 11.938572,-6.98529 11.8913,7.00668 V 15.463073 l -11.9439,7.006699 -11.9176,-7.011999 V 1.4550625 Z"
           fill="#ffffff"
           id="path1129"
           style="fill:#061121;fill-opacity:1" />
        <path
           d="m 84.099265,6.0495725 -0.9584,2.6047 0.2791,2.9097005 -2.2435,0.0107 h -2.22234 l 0.30024,-2.9204005 -0.97961,-2.6047 z"
           fill="#ffffff"
           id="path1121"
           style="fill:#ffffff" />
        <path
           d="m 86.769265,6.9213725 -2.6383,1.7436 v 3.0969005 l -2.0118,1.9629 v 0.9253 l 1.9433,1.8132 h 1.622 l 4.0919,-7.2420005 z"
           fill="#ffffff"
           id="path1123"
           style="fill:#ffffff" />
        <path
           d="m 76.663315,0.6848625 h 9.00005 l 1.0849,4.66401 h -11.13294 z"
           fill="#ffffff"
           id="path1125"
           style="fill:#ffffff" />
        <path
           d="m 78.264285,8.6649725 -2.67004,-1.7222 -3.01757,2.2785 4.11299,7.2634005 h 1.64308 l 1.94322,-1.8346 v -0.9253 l -2.01168,-1.9629 z"
           fill="#ffffff"
           id="path1127"
           style="fill:#ffffff" />
      </g>
    </g>
  </g>
</svg>
