<?xml version="1.0" encoding="UTF-8" standalone="no"?>
<svg
   class="MuiSvgIcon-root MuiSvgIcon-fontSizeMedium MuiBox-root css-1om0hkc"
   focusable="false"
   viewBox="0 0 24 24"
   aria-hidden="true"
   data-testid="AccountBoxIcon"
   version="1.1"
   id="svg4"
   xmlns="http://www.w3.org/2000/svg"
   xmlns:svg="http://www.w3.org/2000/svg">
  <defs
     id="defs8">
    <clipPath
       id="clip-path">
      <rect
         id="Rechteck_1170"
         data-name="Rechteck 1170"
         width="15.312"
         height="10.564"
         fill="#fff" />
    </clipPath>
    <filter
       id="filter0_i"
       x="0.859375"
       y="0.592313"
       width="94.4298"
       height="94.6595"
       filterUnits="userSpaceOnUse"
       color-interpolation-filters="sRGB">
      <feFlood
         flood-opacity="0"
         result="BackgroundImageFix"
         id="feFlood927" />
      <feBlend
         mode="normal"
         in="SourceGraphic"
         in2="BackgroundImageFix"
         result="shape"
         id="feBlend929" />
      <feColorMatrix
         in="SourceAlpha"
         type="matrix"
         values="0 0 0 0 0 0 0 0 0 0 0 0 0 0 0 0 0 0 127 0"
         result="hardAlpha"
         id="feColorMatrix931" />
      <feOffset
         dy="-0.689125"
         id="feOffset933" />
      <feGaussianBlur
         stdDeviation="0.114854"
         id="feGaussianBlur935" />
      <feComposite
         in2="hardAlpha"
         operator="arithmetic"
         k2="-1"
         k3="1"
         id="feComposite937" />
      <feColorMatrix
         type="matrix"
         values="0 0 0 0 0.0699479 0 0 0 0 0.9875 0 0 0 0 0.717887 0 0 0 1 0"
         id="feColorMatrix939" />
      <feBlend
         mode="normal"
         in2="shape"
         result="effect1_innerShadow"
         id="feBlend941" />
    </filter>
    <linearGradient
       id="paint0_linear"
       x1="48.0745"
       y1="4.34131"
       x2="48.0745"
       y2="91.7325"
       gradientUnits="userSpaceOnUse">
      <stop
         stop-color="#141E27"
         id="stop944" />
      <stop
         offset="1"
         stop-color="#141E27"
         id="stop946" />
    </linearGradient>
    <clipPath
       id="clip0">
      <rect
         width="96"
         height="96"
         fill="white"
         id="rect949" />
    </clipPath>
  </defs>
  <style
     type="text/css"
     id="style1288">
	.st0{fill:#F5AC37;}
	.st1{fill:#FEFEFD;}
</style>
  <g
     id="Layer_x0020_1"
     transform="matrix(0.9,0,0,0.9,1.2,1.2)">
	<path
   class="st0"
   d="M 12,2 C 17.5,2 22,6.5 22,12 22,17.5 17.5,22 12,22 6.5,22 2,17.5 2,12 2,6.5 6.5,2 12,2 Z"
   id="path1290" />

	<path
   class="st1"
   d="m 12.4,12.7 h 3.8 c 0.1,0 0.1,0 0.1,-0.1 0,-0.4 0,-0.8 0,-1.2 0,-0.1 0,-0.1 -0.1,-0.1 H 8.6 c -0.1,0 -0.1,0 -0.1,0.1 v 1.1 c 0,0.1 0,0.1 0.1,0.1 h 3.8 z M 15.9,10 c 0,0 0,0 0,0 C 15.8,9.8 15.8,9.6 15.7,9.5 15.6,9.3 15.4,9.1 15.2,8.9 15.1,8.8 15,8.7 14.9,8.6 14.4,8.1 13.7,7.8 13,7.7 12.7,7.6 12.3,7.6 11.9,7.6 H 8.6 c -0.1,0 -0.1,0 -0.1,0.1 V 10 c 0,0.1 0,0.1 0.1,0.1 L 15.9,10 c -0.1,0.1 0,0.1 0,0 z m 0,4 c -0.1,0 -0.2,0 -0.3,0 h -7 c -0.1,0 -0.1,0 -0.1,0.1 v 2.2 c 0,0.1 0,0.1 0.1,0.1 h 3.2 c 0.2,0 0.3,0 0.5,0 0.5,0 0.9,-0.1 1.4,-0.3 C 13.9,16 14,16 14.2,15.9 v 0 c 0.8,-0.4 1.4,-1 1.7,-1.8 0,0 0,-0.1 0,-0.1 z m -8.7,3.5 v 0 V 16 15.5 14 c 0,-0.1 0,-0.1 -0.1,-0.1 H 5.8 c -0.1,0 -0.1,0 -0.1,-0.1 v -1.2 h 1.4 c 0.1,0 0.1,0 0.1,-0.1 v -1.2 c 0,-0.1 0,-0.1 -0.1,-0.1 H 5.8 c -0.1,0 -0.1,0 -0.1,-0.1 V 10 c 0,-0.1 0,-0.1 0.1,-0.1 h 1.3 c 0.1,0 0.1,0 0.1,-0.1 V 6.6 c 0,-0.1 0,-0.1 0.1,-0.1 H 12 c 0.3,0 0.7,0.1 1,0.1 0.7,0.1 1.4,0.4 2,0.7 0.4,0.2 0.8,0.5 1.1,0.9 0.2,0.3 0.5,0.5 0.7,0.8 0.2,0.3 0.4,0.6 0.5,1 0,0.1 0.1,0.1 0.2,0.1 h 1.1 c 0.1,0 0.1,0 0.1,0.1 v 1 c 0,0.1 0,0.1 -0.1,0.1 h -0.9 c -0.1,0 -0.1,0 -0.1,0.1 0,0.4 0,0.8 0,1.1 0,0.1 0,0.1 0.1,0.1 h 1 c 0,0.1 0,0.1 0,0.2 0,0.1 0,0.1 0,0.2 v 0.8 c 0,0.1 0,0.1 -0.1,0.1 h -1.2 c -0.1,0 -0.2,0 -0.2,0.1 -0.3,0.7 -0.7,1.4 -1.3,1.9 -0.2,0.2 -0.4,0.4 -0.7,0.5 -0.3,0.1 -0.5,0.3 -0.8,0.4 -0.5,0.2 -1,0.4 -1.5,0.5 -0.5,0.1 -1,0.1 -1.5,0.1 z"
   id="path1292" />

</g>
</svg>
