<?xml version="1.0" encoding="UTF-8" standalone="no"?>
<svg
   class="MuiSvgIcon-root MuiSvgIcon-fontSizeMedium MuiBox-root css-1om0hkc"
   focusable="false"
   viewBox="0 0 24 24"
   aria-hidden="true"
   data-testid="AccountBoxIcon"
   version="1.1"
   id="svg4"
   xmlns="http://www.w3.org/2000/svg"
   xmlns:svg="http://www.w3.org/2000/svg">
  <defs
     id="defs8">
    <clipPath
       id="clip-path">
      <rect
         id="Rechteck_1170"
         data-name="Rechteck 1170"
         width="15.312"
         height="10.564"
         fill="#fff" />
    </clipPath>
    <filter
       id="filter0_i"
       x="0.859375"
       y="0.592313"
       width="94.4298"
       height="94.6595"
       filterUnits="userSpaceOnUse"
       color-interpolation-filters="sRGB">
      <feFlood
         flood-opacity="0"
         result="BackgroundImageFix"
         id="feFlood927" />
      <feBlend
         mode="normal"
         in="SourceGraphic"
         in2="BackgroundImageFix"
         result="shape"
         id="feBlend929" />
      <feColorMatrix
         in="SourceAlpha"
         type="matrix"
         values="0 0 0 0 0 0 0 0 0 0 0 0 0 0 0 0 0 0 127 0"
         result="hardAlpha"
         id="feColorMatrix931" />
      <feOffset
         dy="-0.689125"
         id="feOffset933" />
      <feGaussianBlur
         stdDeviation="0.114854"
         id="feGaussianBlur935" />
      <feComposite
         in2="hardAlpha"
         operator="arithmetic"
         k2="-1"
         k3="1"
         id="feComposite937" />
      <feColorMatrix
         type="matrix"
         values="0 0 0 0 0.0699479 0 0 0 0 0.9875 0 0 0 0 0.717887 0 0 0 1 0"
         id="feColorMatrix939" />
      <feBlend
         mode="normal"
         in2="shape"
         result="effect1_innerShadow"
         id="feBlend941" />
    </filter>
    <linearGradient
       id="paint0_linear"
       x1="48.0745"
       y1="4.34131"
       x2="48.0745"
       y2="91.7325"
       gradientUnits="userSpaceOnUse">
      <stop
         stop-color="#141E27"
         id="stop944" />
      <stop
         offset="1"
         stop-color="#141E27"
         id="stop946" />
    </linearGradient>
    <clipPath
       id="clip0">
      <rect
         width="96"
         height="96"
         fill="white"
         id="rect949" />
    </clipPath>
    <clipPath
       id="clip-path-1">
      <rect
         id="Rechteck_1170-5"
         data-name="Rechteck 1170"
         width="15.312"
         height="10.564"
         fill="#fff" />
    </clipPath>
    <linearGradient
       id="linear-gradient"
       x1="6.82"
       y1="-0.55799998"
       x2="17.700999"
       y2="30.070001"
       gradientUnits="userSpaceOnUse">
      <stop
         offset="0"
         stop-color="#4e8869"
         id="stop830" />
      <stop
         offset="0.355"
         stop-color="#7cf76c"
         id="stop832" />
      <stop
         offset="0.754"
         stop-color="#54bcea"
         id="stop834" />
      <stop
         offset="1"
         stop-color="#372fff"
         id="stop836" />
      <stop
         offset="1"
         stop-color="#0025f4"
         id="stop838" />
    </linearGradient>
    <linearGradient
       id="linear-gradient-1"
       x1="10.8042"
       y1="-0.88397997"
       x2="28.041809"
       y2="47.636702"
       gradientUnits="userSpaceOnUse">
      <stop
         offset="0"
         stop-color="#f500ff"
         id="stop971" />
      <stop
         offset="0.355"
         stop-color="#ba6cf7"
         id="stop973" />
      <stop
         offset="0.754"
         stop-color="#f2dd35"
         id="stop975" />
      <stop
         offset="0.936"
         stop-color="#f8d648"
         id="stop977" />
      <stop
         offset="1"
         stop-color="#e6d234"
         id="stop979" />
    </linearGradient>
    <clipPath
       id="clip-path-7">
      <rect
         id="Rechteck_1170-6"
         data-name="Rechteck 1170"
         width="15.312"
         height="10.564"
         fill="#fff" />
    </clipPath>
  </defs>
  <style
     type="text/css"
     id="style1288">
	.st0{fill:#F5AC37;}
	.st1{fill:#FEFEFD;}
</style>
  <style
     type="text/css"
     id="style1427">
	.st0{fill:#343434;}
	.st1{fill:#8C8C8C;}
	.st2{fill:#3C3C3B;}
	.st3{fill:#141414;}
	.st4{fill:#393939;}
</style>
  <g
     id="Gruppe_4162"
     data-name="Gruppe 4162"
     transform="matrix(0.75,0,0,0.75,3,3)">
    <circle
       id="Ellipse_2"
       data-name="Ellipse 2"
       cx="12"
       cy="12"
       r="12"
       fill="#9a6400" />
    <g
       id="Gruppe_4156"
       data-name="Gruppe 4156"
       transform="translate(4.344,6.718)">
      <g
         id="Gruppe_4147"
         data-name="Gruppe 4147"
         clip-path="url(#clip-path-7)">
        <path
           id="Pfad_2307"
           data-name="Pfad 2307"
           d="m 84.22,120.149 a 2.15,2.15 0 0 0 0.381,1.865 c -0.6,-0.092 -0.921,-0.853 -0.381,-1.865"
           transform="translate(-78.068,-111.738)"
           fill="#ffffff"
           fill-rule="evenodd" />
        <path
           id="Pfad_2308"
           data-name="Pfad 2308"
           d="m 90.58,117.507 c -0.256,1.294 0.01,2.012 0.911,2.108 a 3.171,3.171 0 0 1 -0.911,-2.108"
           transform="translate(-84.153,-109.281)"
           fill="#ffffff"
           fill-rule="evenodd" />
        <path
           id="Pfad_2309"
           data-name="Pfad 2309"
           d="m 96.032,118.5 a 1.7,1.7 0 0 0 1.728,2.015 3.416,3.416 0 0 1 -1.728,-2.015"
           transform="translate(-89.289,-110.2)"
           fill="#ffffff"
           fill-rule="evenodd" />
        <path
           id="Pfad_2310"
           data-name="Pfad 2310"
           d="m 102.189,122.158 a 2.363,2.363 0 0 0 1.926,1.227 c -0.81,0.284 -1.578,-0.076 -1.926,-1.227"
           transform="translate(-95.035,-113.606)"
           fill="#ffffff"
           fill-rule="evenodd" />
        <path
           id="Pfad_2311"
           data-name="Pfad 2311"
           d="m 34.305,125.787 a 0.513,0.513 0 0 0 -0.545,0.041 c -0.113,0.061 -0.179,-0.038 -0.233,-0.04 -0.148,0 -0.174,0.08 -0.2,0.235 -0.2,-0.216 -0.007,-0.333 0.166,-0.4 0.021,-0.008 0.05,-0.066 0.093,-0.086 a 0.35,0.35 0 0 1 0.15,-0.023 c 0.087,-0.03 -0.042,-0.132 -0.164,-0.17 -0.122,-0.038 -0.132,-0.114 -0.106,-0.207 a 0.306,0.306 0 0 0 -0.345,0.089 c 0.062,-0.23 0.19,-0.286 0.387,-0.16 0.086,-0.077 0.187,-0.012 0.3,0.144 0.044,0.062 0.176,0.018 0.1,-0.095 -0.033,-0.046 0.043,-0.07 0.046,-0.078 a 0.215,0.215 0 0 0 -0.283,-0.153 c 0.195,-0.2 0.285,-0.106 0.4,0.11 0.09,-0.027 0.171,0.049 0.194,0.147 a 0.34,0.34 0 0 0 0.359,0.29 c 0.4,-0.025 0.579,0.182 0.475,0.657 -0.036,0.165 -0.071,0.183 -0.184,0.171 0.077,0.107 0.083,0.24 -0.176,0.345 0.093,-0.191 0.074,-0.328 -0.017,-0.332 -0.064,-0.021 -0.122,-0.041 -0.18,-0.191 a 0.422,0.422 0 0 0 -0.237,-0.294"
           transform="translate(-30.805,-116.041)"
           fill="#ffffff"
           fill-rule="evenodd" />
        <path
           id="Pfad_2312"
           data-name="Pfad 2312"
           d="m 56.513,102.045 c 0.316,-0.2 0.757,-0.177 1.28,0.464 a 3.7,3.7 0 0 0 3.585,1.291 2.852,2.852 0 0 1 -2.914,0.082 c -0.64,-0.41 -0.834,-0.9 -1.246,-1.084 -0.723,-0.323 -0.867,0.628 -1.111,1.03 -0.265,0.435 -0.495,0.629 -0.805,0.645 -0.118,0.02 -0.123,0.218 -0.1,0.468 0.023,0.207 0.015,0.324 -0.192,0.379 a 0.282,0.282 0 0 0 0.05,-0.311 1.337,1.337 0 0 1 -0.09,-0.574 0.351,0.351 0 0 0 -0.309,-0.4 c -0.181,-0.033 -0.262,-0.118 -0.216,-0.272 0.032,-0.1 -0.074,-0.148 -0.2,-0.1 0.039,-0.146 0.115,-0.231 0.394,0.01 0.09,0.093 0.194,0.2 0.316,0.322 0.051,0.054 0.251,0.187 0.362,0.151 0.172,-0.056 0.287,-0.414 0.428,-0.8 a 2.729,2.729 0 0 1 0.767,-1.307"
           transform="translate(-50.449,-94.799)"
           fill="#ffffff"
           fill-rule="evenodd" />
        <path
           id="Pfad_2313"
           data-name="Pfad 2313"
           d="m 95.765,89.726 c 0.723,1.445 3.185,1.766 4.527,0.855 a 5.231,5.231 0 0 1 -4.527,-0.855"
           transform="translate(-89.061,-83.444)"
           fill="#ffffff"
           fill-rule="evenodd" />
        <path
           id="Pfad_2314"
           data-name="Pfad 2314"
           d="m 98.931,73.071 a 3.545,3.545 0 0 0 1.367,-1.052 c 0.405,0.8 1.929,1.555 4.5,0.871 -2.179,2.082 -5.454,0.581 -5.864,0.181"
           transform="translate(-92.005,-66.977)"
           fill="#ffffff"
           fill-rule="evenodd" />
        <path
           id="Pfad_2315"
           data-name="Pfad 2315"
           d="m 123.161,58.067 c 0.778,0.757 3.7,0.781 4.583,0.455 -1.257,1.839 -4.868,1.661 -5.537,0.341 a 2.869,2.869 0 0 1 0.954,-0.8"
           transform="translate(-113.651,-54.002)"
           fill="#ffffff"
           fill-rule="evenodd" />
        <path
           id="Pfad_2316"
           data-name="Pfad 2316"
           d="m 139.974,47.667 a 6.259,6.259 0 0 0 4.016,0.1 c -0.612,1.324 -3.991,1.243 -4.84,0.433 a 3.284,3.284 0 0 1 0.824,-0.532"
           transform="translate(-129.408,-44.33)"
           fill="#ffffff"
           fill-rule="evenodd" />
        <path
           id="Pfad_2317"
           data-name="Pfad 2317"
           d="m 154.369,32.6 a 7.359,7.359 0 0 0 4,-0.6 c -0.607,1.266 -2.514,1.519 -4.544,0.979 z"
           transform="translate(-143.052,-29.764)"
           fill="#ffffff"
           fill-rule="evenodd" />
        <path
           id="Pfad_2318"
           data-name="Pfad 2318"
           d="m 164.348,19.688 a 6.055,6.055 0 0 0 2.831,-1.035 c -0.352,0.714 -1.469,1.528 -3.387,1.4 a 4.312,4.312 0 0 0 0.556,-0.367"
           transform="translate(-152.325,-17.347)"
           fill="#ffffff"
           fill-rule="evenodd" />
        <path
           id="Pfad_2319"
           data-name="Pfad 2319"
           d="m 175.125,10.452 a 4.421,4.421 0 0 0 1.45,-1.052 c -0.131,0.732 -0.655,1.191 -2.04,1.5 z"
           transform="translate(-162.316,-8.742)"
           fill="#ffffff"
           fill-rule="evenodd" />
        <path
           id="Pfad_2320"
           data-name="Pfad 2320"
           d="m 49.089,6.72 c -0.32,-0.292 -0.366,-0.675 0.11,-1.23 a 1.214,1.214 0 0 1 1.34,-0.279 2.147,2.147 0 0 0 2.433,-0.729 11.215,11.215 0 0 1 2.888,-1.842 6.713,6.713 0 0 0 3,-2.639 c -0.042,0.99 -0.791,1.772 -2.784,2.967 a 9.531,9.531 0 0 0 -2.856,2.018 2.509,2.509 0 0 1 -2.6,0.81 c -0.25,0.358 -0.181,0.692 0.255,1.011 0.063,0.046 0.366,0.221 0.319,0.275 a 3.134,3.134 0 0 0 -0.5,0.815 c -0.181,0.394 -0.422,1.06 -0.513,1.046 a 0.728,0.728 0 0 1 -0.388,-0.3 C 49.772,8.608 50.921,7.372 50.34,7.129 49.857,6.929 49.586,6.429 49.347,6.469 A 0.3,0.3 0 0 0 49.086,6.721 M 49.527,5.783 C 49.555,5.637 49.659,5.544 49.912,5.549 A 0.268,0.268 0 0 1 49.806,5.807 0.263,0.263 0 0 1 49.527,5.783"
           transform="translate(-45.426)"
           fill="#ffffff"
           fill-rule="evenodd" />
        <path
           id="Pfad_2321"
           data-name="Pfad 2321"
           d="M 3.377,21.283 A 1.019,1.019 0 0 1 4.04,20.642 1.9,1.9 0 0 1 2.417,19.791 0.32,0.32 0 0 0 2.467,20.224 C 0.755,19.993 0.173,18.435 0.3,16.741 a 2.826,2.826 0 0 0 0.219,2.925 4.891,4.891 0 0 0 2.855,1.617"
           transform="translate(0,-15.569)"
           fill="#ffffff"
           fill-rule="evenodd" />
        <path
           id="Pfad_2322"
           data-name="Pfad 2322"
           d="M 11.827,27.238 A 1.7,1.7 0 0 1 11.093,26.165 1.14,1.14 0 0 1 11.615,25 a 2.528,2.528 0 0 0 0.212,2.237"
           transform="translate(-10.302,-23.251)"
           fill="#ffffff"
           fill-rule="evenodd" />
        <path
           id="Pfad_2323"
           data-name="Pfad 2323"
           d="m 22.856,34.349 c 0.03,0.019 -0.1,-0.239 0.1,-0.367 a 2.321,2.321 0 0 1 -0.341,-1.781 1.5,1.5 0 0 0 0.238,2.148"
           transform="translate(-20.711,-29.947)"
           fill="#ffffff"
           fill-rule="evenodd" />
      </g>
    </g>
  </g>
</svg>
