<?xml version="1.0" encoding="UTF-8" standalone="no"?>
<svg class="MuiSvgIcon-root MuiSvgIcon-fontSizeMedium MuiBox-root" focusable="false" viewBox="0 0 24 24" aria-hidden="true" data-testid="SummarizeIcon" version="1.1" xmlns="http://www.w3.org/2000/svg" xmlns:svg="http://www.w3.org/2000/svg">
  >
  <path d="M15 3H5c-1.1 0-1.99.9-1.99 2L3 19c0 1.1.89 2 1.99 2H19c1.1 0 2-.9 2-2V9l-6-6zM8 17c-.55 0-1-.45-1-1s.45-1 1-1 1 .45 1 1-.45 1-1 1zm0-4c-.55 0-1-.45-1-1s.45-1 1-1 1 .45 1 1-.45 1-1 1zm0-4c-.55 0-1-.45-1-1s.45-1 1-1 1 .45 1 1-.45 1-1 1zm6 1V4.5l5.5 5.5H14z" fill="#00EC62"></path>
</svg>
