<?xml version="1.0" encoding="utf-8"?>
<!-- Generator: Adobe Illustrator 26.0.2, SVG Export Plug-In . SVG Version: 6.00 Build 0)  -->
<svg version="1.1" id="Ebene_1" focusable="false" xmlns="http://www.w3.org/2000/svg" xmlns:xlink="http://www.w3.org/1999/xlink"
	 x="0px" y="0px" viewBox="0 0 24 24" style="enable-background:new 0 0 24 24;" xml:space="preserve">
<style type="text/css">
	.st0{fill:#2775CA;}
	.st1{fill:#FFFFFF;}
</style>
<g>
	<path class="st0" d="M12,22c5.5,0,10-4.5,10-10S17.5,2,12,2S2,6.5,2,12S6.5,22,12,22z"/>
	<path class="st1" d="M14.8,13.6c0-1.5-0.9-2-2.6-2.2c-1.2-0.2-1.5-0.5-1.5-1.1s0.4-1,1.2-1c0.8,0,1.2,0.2,1.4,0.9
		c0,0.1,0.2,0.2,0.3,0.2h0.7c0.2,0,0.3-0.1,0.3-0.3v0c-0.2-0.9-0.9-1.6-1.9-1.7v-1c0-0.2-0.1-0.3-0.3-0.3h-0.6
		c-0.2,0-0.3,0.1-0.3,0.3v1c-1.2,0.2-2,1-2,2c0,1.4,0.8,1.9,2.6,2.1c1.2,0.2,1.5,0.5,1.5,1.1c0,0.7-0.6,1.1-1.4,1.1
		c-1.1,0-1.5-0.5-1.6-1.1c0-0.2-0.2-0.2-0.3-0.2H9.5c-0.2,0-0.3,0.1-0.3,0.3v0c0.2,1,0.8,1.8,2.2,2v1c0,0.2,0.1,0.3,0.3,0.3h0.6
		c0.2,0,0.3-0.1,0.3-0.3v-1C13.9,15.6,14.8,14.8,14.8,13.6L14.8,13.6z"/>
	<path class="st1" d="M9.9,18c-3.2-1.2-4.9-4.8-3.7-8c0.6-1.8,2-3.1,3.7-3.7c0.2-0.1,0.2-0.2,0.2-0.4V5.3C10.1,5.1,10,5,9.9,5
		c0,0-0.1,0-0.2,0c-4,1.2-6.1,5.5-4.9,9.4c0.8,2.3,2.5,4.1,4.9,4.9c0.2,0.1,0.3,0,0.4-0.2c0,0,0-0.1,0-0.2v-0.6
		C10.1,18.3,10,18.1,9.9,18z M14.3,5c-0.2-0.1-0.3,0-0.4,0.2c0,0,0,0.1,0,0.2v0.6c0,0.2,0.1,0.3,0.2,0.4c3.2,1.2,4.9,4.8,3.7,8
		c-0.6,1.8-2,3.1-3.7,3.7c-0.2,0.1-0.2,0.2-0.2,0.4V19c0,0.2,0.1,0.3,0.2,0.3c0,0,0.1,0,0.2,0c4-1.2,6.1-5.5,4.9-9.4
		C18.4,7.5,16.6,5.8,14.3,5L14.3,5z"/>
</g>
</svg>
