<?xml version="1.0" encoding="utf-8"?>
<!-- Generator: Adobe Illustrator 26.0.2, SVG Export Plug-In . SVG Version: 6.00 Build 0)  -->
<svg version="1.1" id="Ebene_1" focusable="false" xmlns="http://www.w3.org/2000/svg" xmlns:xlink="http://www.w3.org/1999/xlink"
	 x="0px" y="0px" viewBox="0 0 24 24" style="enable-background:new 0 0 24 24;" xml:space="preserve">
<style type="text/css">
	.st0{fill-rule:evenodd;clip-rule:evenodd;fill:#50AF95;}
	.st1{fill-rule:evenodd;clip-rule:evenodd;fill:#FFFFFF;}
</style>
<path class="st0" d="M5.7,3.8l-3.6,7.6c0,0.1,0,0.1,0,0.2l9.8,9.4c0.1,0.1,0.1,0.1,0.2,0l9.8-9.4c0,0,0.1-0.1,0-0.2l-3.6-7.6
	c0-0.1-0.1-0.1-0.1-0.1H5.8C5.8,3.7,5.7,3.8,5.7,3.8C5.7,3.8,5.7,3.8,5.7,3.8z"/>
<path class="st1" d="M13.3,12.2L13.3,12.2c-0.1,0-0.4,0-1.2,0c-0.6,0-1.1,0-1.3,0l0,0c-2.5-0.1-4.4-0.5-4.4-1.1c0-0.5,1.9-1,4.4-1.1
	v1.7c0.2,0,0.6,0,1.3,0c0.8,0,1.2,0,1.2,0v-1.7c2.5,0.1,4.3,0.5,4.3,1.1S15.8,12.1,13.3,12.2L13.3,12.2L13.3,12.2z M13.3,9.9V8.4
	h3.5V6.1H7.3v2.3h3.5v1.5c-2.8,0.1-4.9,0.7-4.9,1.4s2.1,1.2,4.9,1.4v4.9h2.5v-4.9c2.8-0.1,4.9-0.7,4.9-1.4
	C18.2,10.6,16.1,10.1,13.3,9.9L13.3,9.9L13.3,9.9z M13.3,9.9L13.3,9.9z"/>
</svg>
