<?xml version="1.0" standalone="no"?>
<!DOCTYPE svg PUBLIC "-//W3C//DTD SVG 20010904//EN"
 "http://www.w3.org/TR/2001/REC-SVG-20010904/DTD/svg10.dtd">
<svg version="1.0" xmlns="http://www.w3.org/2000/svg"
 width="225.000000pt" height="225.000000pt" viewBox="0 0 225.000000 225.000000"
 preserveAspectRatio="xMidYMid meet">

<g transform="translate(0.000000,225.000000) scale(0.100000,-0.100000)"
fill="#000000" stroke="none">
<path d="M675 1901 l-440 -258 -3 -519 -2 -519 441 -255 c243 -140 447 -255
454 -255 7 0 211 115 453 255 l442 255 0 520 0 520 -441 255 c-243 140 -446
256 -453 257 -6 1 -209 -114 -451 -256z m805 -186 c0 -2 18 -81 40 -175 22
-94 40 -175 40 -180 0 -6 -158 -10 -435 -10 -239 0 -435 2 -435 5 0 7 70 315
76 337 5 16 25 18 182 21 389 6 532 7 532 2z m-131 -442 c-63 -163 -66 -176
-58 -248 4 -38 8 -89 8 -112 l1 -43 -176 0 -176 0 5 29 c4 16 9 69 13 118 6
91 3 105 -61 266 -7 16 8 17 224 17 l231 0 -11 -27z m-554 -109 l105 -66 0
-117 0 -118 80 -77 c71 -70 80 -82 80 -115 0 -32 -9 -44 -79 -108 l-79 -73
-65 0 -65 0 -160 282 -161 281 117 88 c64 49 118 89 120 89 1 0 50 -30 107
-66z m892 -19 c62 -47 113 -89 113 -93 0 -4 -72 -131 -159 -282 l-158 -275
-62 -3 -62 -3 -80 72 c-72 65 -79 75 -79 108 0 33 8 46 80 115 l80 78 0 119 0
119 98 64 c53 36 101 65 106 65 5 1 60 -37 123 -84z"/>
</g>
</svg>
