<?xml version="1.0" encoding="UTF-8" standalone="no"?>
<svg
   class="MuiSvgIcon-root MuiSvgIcon-fontSizeMedium MuiBox-root css-1om0hkc"
   focusable="false"
   viewBox="0 0 24 24"
   aria-hidden="true"
   data-testid="AccountBoxIcon"
   version="1.1"
   id="svg4"
   xmlns="http://www.w3.org/2000/svg"
   xmlns:svg="http://www.w3.org/2000/svg">
  <defs
     id="defs8">
    <linearGradient
       id="linear-gradient"
       x1="6.82"
       y1="-0.55799998"
       x2="17.700999"
       y2="30.070001"
       gradientUnits="userSpaceOnUse">
      <stop
         offset="0"
         stop-color="#4e8869"
         id="stop830" />
      <stop
         offset="0.355"
         stop-color="#7cf76c"
         id="stop832" />
      <stop
         offset="0.754"
         stop-color="#54bcea"
         id="stop834" />
      <stop
         offset="1"
         stop-color="#372fff"
         id="stop836" />
      <stop
         offset="1"
         stop-color="#0025f4"
         id="stop838" />
    </linearGradient>
    <linearGradient
       id="linear-gradient-1"
       x1="10.8042"
       y1="-0.88397997"
       x2="28.041809"
       y2="47.636702"
       gradientUnits="userSpaceOnUse">
      <stop
         offset="0"
         stop-color="#f500ff"
         id="stop971" />
      <stop
         offset="0.355"
         stop-color="#ba6cf7"
         id="stop973" />
      <stop
         offset="0.754"
         stop-color="#f2dd35"
         id="stop975" />
      <stop
         offset="0.936"
         stop-color="#f8d648"
         id="stop977" />
      <stop
         offset="1"
         stop-color="#e6d234"
         id="stop979" />
    </linearGradient>
    <linearGradient
       id="linear-gradient-6"
       x1="5.28"
       y1="-0.43199998"
       x2="13.704"
       y2="23.280001"
       gradientUnits="userSpaceOnUse">
      <stop
         offset="0"
         stop-color="#f500ff"
         id="stop836-1" />
      <stop
         offset="0.498"
         stop-color="#f7776c"
         id="stop838-5" />
      <stop
         offset="1"
         stop-color="#e6d234"
         id="stop840" />
    </linearGradient>
  </defs>
  <g
     id="Gruppe_4142"
     data-name="Gruppe 4142"
     transform="matrix(0.74120833,0,0,0.74120833,3.1055,3.1055)">
    <circle
       id="Ellipse_2"
       data-name="Ellipse 2"
       cx="12"
       cy="12"
       r="12"
       fill="url(#linear-gradient)"
       style="fill:url(#linear-gradient-6)" />
    <path
       id="Icon_awesome-phoenix-framework"
       data-name="Icon awesome-phoenix-framework"
       d="m 6.248,7.087 c 0.112,0 0.669,-0.02 0.751,-0.032 a 3.436,3.436 0 0 1 -2,-0.721 0.456,0.456 0 0 1 -0.188,-0.4 C 4.896,5.563 5.777,5.498 6.337,5.665 7.4,5.978 8.2,6.991 9.679,7.082 a 6.469,6.469 0 0 0 3.175,-0.66 0.113,0.113 0 0 0 -0.029,0 H 12.793 A 10.123,10.123 0 0 1 8.84,6.207 C 7.74,5.875 7.282,5.354 7.32,5.122 7.373,4.812 7.992,4.785 8.374,4.837 a 6.1,6.1 0 0 1 1.142,0.4 3.707,3.707 0 0 0 1.505,0.15 5.7,5.7 0 0 0 1.071,-0.211 H 12.019 C 11.837,5.167 11.655,5.164 11.476,5.151 8.213,4.911 7.693,2.772 4.066,2.634 a 11.746,11.746 0 0 0 -4,0.509 L 0,3.167 0.006,3.174 h 0.07 a 3.291,3.291 0 0 1 0.549,0 1.7,1.7 0 0 1 1.64,1.112 C 2.421,4.786 2.244,5.025 2.5,5.538 3.058,6.661 5.171,7.1 6.248,7.087 Z M 2.21,3.025 A 0.113,0.113 0 0 1 2.172,3 C 2.527,2.962 2.882,2.94 3.246,2.93 3.213,3.14 2.594,3.236 2.21,3.025 Z m 5.778,5.1 A 8.021,8.021 0 0 1 4.364,7.232 6.43,6.43 0 0 1 3.818,6.892 L 3.83,6.886 A 8.709,8.709 0 0 0 5.438,7.279 6.136,6.136 0 0 0 7.538,7.231 2.33,2.33 0 0 1 8.8,7.269 2.123,2.123 0 0 0 8.1,7.384 C 7.95,7.448 7.965,7.554 8.305,7.634 A 13.922,13.922 0 0 1 11.158,8 a 2.195,2.195 0 0 1 0.3,0.156 c 0,0 -0.009,0 -0.012,0.007 A 6.985,6.985 0 0 0 10.266,8.028 C 9.538,8 8.9,8.108 7.988,8.121 Z m 5.13,-3.664 a 5.545,5.545 0 0 1 1.952,-0.048 1.476,1.476 0 0 1 0.942,0.5 0.706,0.706 0 0 1 0.15,0.417 H 16.144 A 0.083,0.083 0 0 1 16.129,5.311 C 15.982,4.991 15.252,4.674 14.145,4.876 A 8.419,8.419 0 0 1 8.954,4.176 C 8.933,4.163 8.884,4.151 8.916,4.129 A 0.329,0.329 0 0 1 9,4.152 7.139,7.139 0 0 0 10.77,4.533 8.7,8.7 0 0 0 13.118,4.457 Z m 3.014,1.708 c -0.951,0 -0.992,0.728 -3.04,0.936 A 12.875,12.875 0 0 1 11.774,7.166 V 7.157 a 3.079,3.079 0 0 0 0.872,-0.241 c 0.232,-0.106 0.449,-0.22 0.669,-0.333 a 4.286,4.286 0 0 1 2.4,-0.567 2.884,2.884 0 0 1 1.059,0.185 0.081,0.081 0 0 1 0.021,0.013 0.15,0.15 0 0 1 -0.026,0 3.416,3.416 0 0 0 -0.64,-0.048 z m -0.361,-0.35 c 0,0 0,0.006 -0.006,0.009 A 5.527,5.527 0 0 0 13.755,5.886 6.94,6.94 0 0 1 11.935,6.241 5.981,5.981 0 0 1 10,6.121 L 9.971,6.112 c 0,0 0,0 0,-0.007 A 4.01,4.01 0 0 0 11.6,6.02 8.663,8.663 0 0 1 13.692,5.569 4.868,4.868 0 0 1 15.773,5.815 Z M 7.883,3.5 7.821,3.467 a 7.635,7.635 0 0 1 1.567,0.122 11.544,11.544 0 0 1 1.473,0.478 3.007,3.007 0 0 0 1.068,0.118 C 12.055,4.179 12.178,4.168 12.305,4.16 a 0.125,0.125 0 0 1 0.044,0 C 12.331,4.166 12.314,4.173 12.296,4.177 A 3.9,3.9 0 0 1 11.545,4.277 7.278,7.278 0 0 1 9.391,4.053 7.029,7.029 0 0 1 7.883,3.5 Z m 10.9,3.466 A 2.944,2.944 0 0 1 17.53,7.043 4.43,4.43 0 0 1 16.603,6.693 2.569,2.569 0 0 0 15.778,6.571 0.167,0.167 0 0 1 15.813,6.551 2.971,2.971 0 0 1 17.2,6.452 3.027,3.027 0 0 1 18.092,6.804 1.782,1.782 0 0 0 18.77,6.957 c 0,0 0.006,0 0.012,0.006 z m -6.237,1.988 c 0.065,0.017 0.047,0.022 0.044,0.029 A 2.987,2.987 0 0 1 11.217,8.66 3.638,3.638 0 0 0 9.79,8.229 0.193,0.193 0 0 1 9.822,8.223 a 9.589,9.589 0 0 1 1.142,0.057 2.138,2.138 0 0 1 1.221,0.513 1.087,1.087 0 0 0 0.361,0.161 z"
       transform="translate(2.626,7.348)"
       fill="#ffffff" />
  </g>
</svg>
